<svg width="390" height="341" viewBox="0 0 390 341" fill="none" xmlns="http://www.w3.org/2000/svg">
<path d="M390 299.474H3.05176e-05V299.702H390V299.474Z" fill="#E6E6E6"/>
<path d="M347.763 307.387H333.31V307.614H347.763V307.387Z" fill="#E6E6E6"/>
<path d="M328.185 307.387H307.78V307.614H328.185V307.387Z" fill="#E6E6E6"/>
<path d="M272.524 307.615H257.423V307.843H272.524V307.615Z" fill="#E6E6E6"/>
<path d="M66.1206 305.539H32.4324V305.767H66.1206V305.539Z" fill="#E6E6E6"/>
<path d="M25.4826 305.539H20.5452V305.767H25.4826V305.539Z" fill="#E6E6E6"/>
<path d="M128.661 312.427H79.5366V312.654H128.661V312.427Z" fill="#E6E6E6"/>
<path d="M184.86 258.678H34.2498C33.07 258.676 31.9391 258.125 31.1056 257.145C30.272 256.166 29.8038 254.839 29.8038 253.456V5.17723C29.8141 3.80154 30.2868 2.48615 31.1193 1.51678C31.9517 0.547412 33.0767 0.00235663 34.2498 0H184.86C186.041 0 187.174 0.550275 188.009 1.52977C188.845 2.50927 189.314 3.83775 189.314 5.22296V253.456C189.314 254.841 188.845 256.169 188.009 257.149C187.174 258.128 186.041 258.678 184.86 258.678ZM34.2498 0.182942C33.1217 0.185365 32.0404 0.712615 31.2434 1.64896C30.4465 2.58531 29.9988 3.85424 29.9988 5.17723V253.456C29.9988 254.779 30.4465 256.047 31.2434 256.984C32.0404 257.92 33.1217 258.447 34.2498 258.45H184.86C185.989 258.447 187.071 257.92 187.869 256.984C188.667 256.048 189.117 254.779 189.119 253.456V5.17723C189.117 3.8534 188.667 2.58449 187.869 1.6484C187.071 0.712317 185.989 0.18536 184.86 0.182942H34.2498Z" fill="#E6E6E6"/>
<path d="M353.582 258.678H202.964C201.783 258.676 200.652 258.125 199.817 257.146C198.982 256.167 198.512 254.84 198.51 253.456V5.17723C198.522 3.8007 198.997 2.48532 199.831 1.51621C200.664 0.547093 201.79 0.00233093 202.964 0H353.582C354.754 0.00476058 355.877 0.55088 356.707 1.51999C357.538 2.4891 358.01 3.80312 358.02 5.17723V253.456C358.02 254.838 357.553 256.163 356.721 257.142C355.889 258.121 354.76 258.674 353.582 258.678ZM202.964 0.182942C201.835 0.18536 200.753 0.712317 199.955 1.6484C199.157 2.58449 198.707 3.8534 198.705 5.17723V253.456C198.707 254.779 199.157 256.048 199.955 256.984C200.753 257.92 201.835 258.447 202.964 258.45H353.582C354.711 258.447 355.793 257.92 356.591 256.984C357.389 256.048 357.839 254.779 357.841 253.456V5.17723C357.839 3.8534 357.389 2.58449 356.591 1.6484C355.793 0.712317 354.711 0.18536 353.582 0.182942H202.964Z" fill="#E6E6E6"/>
<path d="M328.396 27.9534H222.55V146.463H328.396V27.9534Z" fill="#E0E0E0"/>
<path d="M330.743 27.9534H224.897V146.463H330.743V27.9534Z" fill="#F5F5F5"/>
<path d="M326.524 140.901V33.5148L229.125 33.5148V140.901H326.524Z" fill="white"/>
<path d="M326.524 140.901V33.5148H324.745V140.901H326.524Z" fill="#E0E0E0"/>
<path d="M328.996 107.524H226.645V114.988H328.996V107.524Z" fill="#F5F5F5"/>
<path d="M197.535 241.711H176.647V296.035H197.535V241.711Z" fill="#E6E6E6"/>
<path d="M272.641 296.035H180.664V299.475H272.641V296.035Z" fill="#E6E6E6"/>
<path d="M197.535 296.035H276.643V241.711H197.535V296.035Z" fill="#FAFAFA"/>
<path d="M205.748 266.216H268.429V248.397H205.748V266.216Z" fill="#E6E6E6"/>
<path d="M205.748 289.339H268.429V271.521H205.748V289.339Z" fill="#E6E6E6"/>
<path d="M246.488 256.081H227.698C227.189 256.081 226.777 256.564 226.777 257.16V257.444C226.777 258.04 227.189 258.523 227.698 258.523H246.488C246.996 258.523 247.408 258.04 247.408 257.444V257.16C247.408 256.564 246.996 256.081 246.488 256.081Z" fill="#FAFAFA"/>
<path d="M246.488 279.214H227.698C227.189 279.214 226.777 279.697 226.777 280.293V280.577C226.777 281.173 227.189 281.656 227.698 281.656H246.488C246.996 281.656 247.408 281.173 247.408 280.577V280.293C247.408 279.697 246.996 279.214 246.488 279.214Z" fill="#FAFAFA"/>
<path d="M69.9582 184.24H48.6486V292.605H69.9582V184.24Z" fill="#E6E6E6"/>
<path d="M157.825 292.605H52.7437V299.474H157.825V292.605Z" fill="#E6E6E6"/>
<path d="M69.9582 292.605H161.912V184.24H69.9582L69.9582 292.605Z" fill="#FAFAFA"/>
<path d="M78.3354 233.112H153.535V197.567H78.3354V233.112Z" fill="#E6E6E6"/>
<path d="M78.3354 279.269H153.535V243.723H78.3354V279.269Z" fill="#E6E6E6"/>
<path d="M124.379 217.782H107.492C106.942 217.78 106.416 217.523 106.027 217.067C105.638 216.611 105.419 215.993 105.417 215.349C105.417 214.703 105.635 214.083 106.024 213.625C106.413 213.167 106.941 212.909 107.492 212.907H124.379C124.93 212.909 125.458 213.167 125.846 213.625C126.235 214.083 126.454 214.703 126.454 215.349C126.452 215.993 126.232 216.611 125.844 217.067C125.455 217.523 124.928 217.78 124.379 217.782Z" fill="#FAFAFA"/>
<path d="M124.379 263.929H107.492C106.942 263.926 106.416 263.669 106.027 263.214C105.638 262.758 105.419 262.14 105.417 261.496C105.419 260.851 105.638 260.234 106.027 259.778C106.416 259.322 106.942 259.065 107.492 259.063H124.379C124.928 259.065 125.455 259.322 125.844 259.778C126.232 260.234 126.452 260.851 126.454 261.496C126.454 262.141 126.235 262.76 125.846 263.216C125.457 263.672 124.929 263.929 124.379 263.929Z" fill="#FAFAFA"/>
<path d="M245.7 233.094C245.7 233.094 230.006 201.363 251.776 176.108C251.776 176.108 257.462 180.444 257.377 186.289C257.291 192.134 251.293 193.606 252.58 198.482C253.867 203.357 259.529 208.132 255.817 212.202C252.104 216.273 256.409 219.813 256.16 224.752C255.91 229.692 245.7 233.094 245.7 233.094Z" fill="#FAFAFA"/>
<path d="M222.752 224.029C222.752 224.029 223.291 241.711 243.867 241.711C264.443 241.711 264.974 224.029 264.974 224.029H222.752Z" fill="#E6E6E6"/>
<path d="M246.886 235.994C246.886 235.994 253.243 200.073 225.826 184.157C225.826 184.157 221.606 190.387 223.259 195.893C224.913 201.4 230.997 200.586 231.059 205.69C231.122 210.794 227.05 217.425 231.668 219.868C236.285 222.31 233.142 227.322 234.71 231.914C236.278 236.506 246.886 235.994 246.886 235.994Z" fill="#E6E6E6"/>
<path d="M121.719 83.0917C121.719 83.0917 122.257 93.7206 142.826 93.7206C163.394 93.7206 163.94 83.0917 163.94 83.0917H121.719Z" fill="#F0F0F0"/>
<path d="M65.9334 101.459L62.556 127.885H65.9334L86.6502 101.459H65.9334Z" fill="#F5F5F5"/>
<path d="M62.556 101.459V127.885L83.2728 101.459H62.556Z" fill="#E0E0E0"/>
<path d="M147.186 101.459L143.801 127.885H147.186L167.903 101.459H147.186Z" fill="#F5F5F5"/>
<path d="M143.801 101.459V127.885L164.525 101.459H143.801Z" fill="#E0E0E0"/>
<path d="M47.3383 101.962H69.8725V93.7206H47.3383V101.962Z" fill="#E0E0E0"/>
<path d="M181.912 93.7207H69.8802V101.962H181.912V93.7207Z" fill="#F5F5F5"/>
<path d="M92.898 59.8582C98.7246 60.7729 102.328 45.9639 89.466 33.3958C90.1602 47.9396 82.7502 58.2209 92.898 59.8582Z" fill="#E0E0E0"/>
<path d="M97.1803 79.3049C105.62 72.3623 99.8401 48.1135 73.7101 49.8697C85.0201 67.6881 82.4539 91.3973 97.1803 79.3049Z" fill="#E0E0E0"/>
<path d="M94.2007 79.1402C88.5847 72.0513 96.5407 54.2145 116.766 60.7272C105.362 72.472 103.982 91.4704 94.2007 79.1402Z" fill="#E0E0E0"/>
<path d="M101.4 68.8041C103.342 66.0599 105.635 62.9134 105.082 59.657C104.528 56.4007 103.132 53.9035 104.239 50.391C105.565 46.1834 105.308 41.1617 103.069 41.5824C100.831 42.0032 98.319 45.0858 98.3892 49.1562C98.4594 53.2266 96.2286 54.37 94.1616 56.4738C92.0946 58.5776 91.2912 61.6328 90.9168 64.7062C90.2694 69.4809 84.9888 68.5754 83.5848 72.7281C82.1418 76.7345 85.0278 82.0764 89.6454 83.3021C94.263 84.5278 97.5546 85.2962 100.706 81.0702C103.904 76.5059 98.5218 72.7739 101.4 68.8041Z" fill="#F5F5F5"/>
<path d="M85.5036 93.7207H102.859L104.169 80.1922H84.1932L85.5036 93.7207Z" fill="#E6E6E6"/>
<path d="M82.9063 82.607H105.464V79.6244H82.9063V82.607Z" fill="#E6E6E6"/>
<path d="M141.851 169.659H123.006V184.231H141.851V169.659Z" fill="#F5F5F5"/>
<path d="M108.857 184.24H123.006V169.669H108.857V184.24Z" fill="#E0E0E0"/>
<path d="M103.334 161.903H95.2536V184.24H103.334V161.903Z" fill="#F5F5F5"/>
<path d="M89.1852 184.24H95.2536V161.903H89.1852V184.24Z" fill="#E0E0E0"/>
<path d="M195 340.782C278.524 340.782 346.234 336.147 346.234 330.428C346.234 324.709 278.524 320.073 195 320.073C111.476 320.073 43.7658 324.709 43.7658 330.428C43.7658 336.147 111.476 340.782 195 340.782Z" fill="#F5F5F5"/>
<path d="M122.6 161.738C123.499 162.202 124.45 162.51 125.424 162.653C127.426 162.939 129.451 162.388 131.141 161.098C133.817 159.067 135.439 155.509 135.182 152.234C135.168 152.074 135.104 151.926 135.001 151.819C134.898 151.713 134.765 151.655 134.628 151.658C132.207 151.638 129.812 152.249 127.617 153.449C125.422 154.648 123.482 156.404 121.937 158.592C121.204 154.933 120.557 151.063 120.089 147.075C121.387 148.241 122.912 149.008 124.527 149.307C125.195 149.402 125.873 149.368 126.532 149.207C130.018 148.365 132.772 143.984 135.283 139.364C135.329 139.282 135.36 139.188 135.374 139.091C135.387 138.993 135.383 138.893 135.361 138.797C135.34 138.705 135.301 138.62 135.247 138.548C135.193 138.477 135.125 138.421 135.049 138.386C128.692 135.276 121.953 141.999 119.8 144.423C119.473 141.064 119.298 137.687 119.278 134.306C120.638 134.814 122.035 135.175 123.451 135.385C126.875 135.852 129.753 135.157 131.812 133.291C134.254 131.095 135.385 127.446 135.08 122.753C135.074 122.664 135.052 122.576 135.015 122.497C134.978 122.418 134.928 122.348 134.867 122.293C134.806 122.238 134.736 122.199 134.661 122.177C134.586 122.156 134.509 122.152 134.433 122.168C127.195 123.403 121.633 128.836 119.317 131.452C119.317 130.849 119.317 130.245 119.371 129.623C119.38 129.473 119.344 129.324 119.27 129.202C119.206 128.054 118.925 126.937 118.448 125.933C117.97 124.928 117.308 124.061 116.509 123.394C114.691 122.012 112.148 121.83 108.943 122.836C108.848 122.868 108.761 122.922 108.685 122.996C108.61 123.07 108.549 123.162 108.506 123.266C108.463 123.363 108.441 123.471 108.441 123.581C108.441 123.691 108.463 123.799 108.506 123.897C108.638 124.162 111.439 129.705 116.376 130.391C116.911 130.446 117.448 130.446 117.983 130.391C117.92 132.056 117.897 133.73 117.92 135.404C116.202 133.676 114.182 132.409 112.002 131.691C109.822 130.974 107.535 130.824 105.3 131.251C105.123 131.284 104.964 131.396 104.855 131.562C104.804 131.642 104.767 131.734 104.749 131.832C104.73 131.93 104.729 132.031 104.746 132.129C105.729 137.791 108.108 141.605 111.111 142.319C111.244 142.319 111.384 142.374 111.532 142.401C113.092 142.612 115.323 142.072 118.037 139.044C118.229 142.913 118.601 146.767 119.153 150.588C116.532 148.603 110.518 144.972 105.167 148.502C105.032 148.587 104.927 148.726 104.874 148.895C104.821 149.064 104.823 149.25 104.879 149.417C107.055 154.576 109.426 157.265 112.141 157.649H112.211C114.473 157.933 116.891 156.616 119.629 153.661C120.245 157.393 120.978 160.979 121.758 164.308C119.231 161.83 116.002 161.72 111.782 163.943C111.69 163.992 111.608 164.066 111.543 164.158C111.478 164.25 111.432 164.357 111.407 164.473C111.383 164.583 111.384 164.698 111.41 164.808C111.436 164.917 111.486 165.016 111.556 165.095C111.735 165.305 114.8 168.754 118.576 169.257C120.018 169.47 121.482 169.173 122.78 168.406C124.327 174.497 126.213 180.461 128.427 186.261C128.471 186.371 128.539 186.464 128.624 186.533C128.709 186.602 128.808 186.644 128.911 186.655C129.05 186.67 129.19 186.642 129.316 186.572C129.477 186.481 129.601 186.321 129.665 186.126C129.729 185.931 129.727 185.714 129.659 185.52C126.746 177.837 124.384 169.882 122.6 161.738Z" fill="#72A5D0"/>
<g opacity="0.6">
<path d="M122.6 161.738C123.499 162.202 124.45 162.51 125.424 162.653C127.426 162.939 129.451 162.388 131.141 161.098C133.817 159.067 135.439 155.509 135.182 152.234C135.168 152.074 135.104 151.926 135.001 151.819C134.898 151.713 134.765 151.655 134.628 151.658C132.207 151.638 129.812 152.249 127.617 153.449C125.422 154.648 123.482 156.404 121.937 158.592C121.204 154.933 120.557 151.063 120.089 147.075C121.387 148.241 122.912 149.008 124.527 149.307C125.195 149.402 125.873 149.368 126.532 149.207C130.018 148.365 132.772 143.984 135.283 139.364C135.329 139.282 135.36 139.188 135.374 139.091C135.387 138.993 135.383 138.893 135.361 138.797C135.34 138.705 135.301 138.62 135.247 138.548C135.193 138.477 135.125 138.421 135.049 138.386C128.692 135.276 121.953 141.999 119.8 144.423C119.473 141.064 119.298 137.687 119.278 134.306C120.638 134.814 122.035 135.175 123.451 135.385C126.875 135.852 129.753 135.157 131.812 133.291C134.254 131.095 135.385 127.446 135.08 122.753C135.074 122.664 135.052 122.576 135.015 122.497C134.978 122.418 134.928 122.348 134.867 122.293C134.806 122.238 134.736 122.199 134.661 122.177C134.586 122.156 134.509 122.152 134.433 122.168C127.195 123.403 121.633 128.836 119.317 131.452C119.317 130.849 119.317 130.245 119.371 129.623C119.38 129.473 119.344 129.324 119.27 129.202C119.206 128.054 118.925 126.937 118.448 125.933C117.97 124.928 117.308 124.061 116.509 123.394C114.691 122.012 112.148 121.83 108.943 122.836C108.848 122.868 108.761 122.922 108.685 122.996C108.61 123.07 108.549 123.162 108.506 123.266C108.463 123.363 108.441 123.471 108.441 123.581C108.441 123.691 108.463 123.799 108.506 123.897C108.638 124.162 111.439 129.705 116.376 130.391C116.911 130.446 117.448 130.446 117.983 130.391C117.92 132.056 117.897 133.73 117.92 135.404C116.202 133.676 114.182 132.409 112.002 131.691C109.822 130.974 107.535 130.824 105.3 131.251C105.123 131.284 104.964 131.396 104.855 131.562C104.804 131.642 104.767 131.734 104.749 131.832C104.73 131.93 104.729 132.031 104.746 132.129C105.729 137.791 108.108 141.605 111.111 142.319C111.244 142.319 111.384 142.374 111.532 142.401C113.092 142.612 115.323 142.072 118.037 139.044C118.229 142.913 118.601 146.767 119.153 150.588C116.532 148.603 110.518 144.972 105.167 148.502C105.032 148.587 104.927 148.726 104.874 148.895C104.821 149.064 104.823 149.25 104.879 149.417C107.055 154.576 109.426 157.265 112.141 157.649H112.211C114.473 157.933 116.891 156.616 119.629 153.661C120.245 157.393 120.978 160.979 121.758 164.308C119.231 161.83 116.002 161.72 111.782 163.943C111.69 163.992 111.608 164.066 111.543 164.158C111.478 164.25 111.432 164.357 111.407 164.473C111.383 164.583 111.384 164.698 111.41 164.808C111.436 164.917 111.486 165.016 111.556 165.095C111.735 165.305 114.8 168.754 118.576 169.257C120.018 169.47 121.482 169.173 122.78 168.406C124.327 174.497 126.213 180.461 128.427 186.261C128.471 186.371 128.539 186.464 128.624 186.533C128.709 186.602 128.808 186.644 128.911 186.655C129.05 186.67 129.19 186.642 129.316 186.572C129.477 186.481 129.601 186.321 129.665 186.126C129.729 185.931 129.727 185.714 129.659 185.52C126.746 177.837 124.384 169.882 122.6 161.738Z" fill="black"/>
</g>
<path d="M325.923 140.252H137.319C134.222 140.252 131.711 143.196 131.711 146.828V283.046C131.711 286.678 134.222 289.623 137.319 289.623H325.923C329.02 289.623 331.531 286.678 331.531 283.046V146.828C331.531 143.196 329.02 140.252 325.923 140.252Z" fill="#72A5D0"/>
<path opacity="0.6" d="M325.923 140.252H137.319C134.222 140.252 131.711 143.196 131.711 146.828V283.046C131.711 286.678 134.222 289.623 137.319 289.623H325.923C329.02 289.623 331.531 286.678 331.531 283.046V146.828C331.531 143.196 329.02 140.252 325.923 140.252Z" fill="black"/>
<path d="M257.182 330.428H210.522C215.093 310.213 212.355 288.434 202.316 268.228H248.976C259.015 288.434 261.752 310.213 257.182 330.428Z" fill="#72A5D0"/>
<path d="M254.748 330.428H208.081C212.651 310.213 209.921 288.434 199.875 268.228H246.542C256.62 288.434 259.319 310.213 254.748 330.428Z" fill="#72A5D0"/>
<path d="M256.339 297.279H209.165C207.545 287.037 204.4 277.21 199.875 268.246H247.049C251.568 277.213 254.712 287.04 256.339 297.279Z" fill="#72A5D0"/>
<g opacity="0.4">
<path d="M257.182 330.428H210.522C215.093 310.213 212.355 288.434 202.316 268.228H248.976C259.015 288.434 261.752 310.213 257.182 330.428Z" fill="black"/>
<path d="M254.748 330.428H208.081C212.651 310.213 209.921 288.434 199.875 268.228H246.542C256.62 288.434 259.319 310.213 254.748 330.428Z" fill="black"/>
<path d="M256.339 297.28H209.165C207.545 287.038 204.4 277.211 199.875 268.247H247.049C251.568 277.214 254.712 287.04 256.339 297.28Z" fill="black"/>
</g>
<path d="M254.748 330.428H208.081C212.651 310.213 209.921 288.434 199.875 268.228H246.542C256.62 288.434 259.319 310.213 254.748 330.428Z" fill="#72A5D0"/>
<path opacity="0.2" d="M254.748 330.428H208.081C212.651 310.213 209.921 288.434 199.875 268.228H246.542C256.62 288.434 259.319 310.213 254.748 330.428Z" fill="black"/>
<path opacity="0.2" d="M255.84 297.279H209.118C207.512 287.048 204.397 277.223 199.914 268.246H246.636C251.119 277.223 254.234 287.048 255.84 297.279Z" fill="black"/>
<path d="M323.271 140.252H134.667C131.57 140.252 129.059 143.196 129.059 146.828V283.046C129.059 286.678 131.57 289.623 134.667 289.623H323.271C326.368 289.623 328.879 286.678 328.879 283.046V146.828C328.879 143.196 326.368 140.252 323.271 140.252Z" fill="#72A5D0"/>
<path opacity="0.3" d="M323.271 140.252H134.667C131.57 140.252 129.059 143.196 129.059 146.828V283.046C129.059 286.678 131.57 289.623 134.667 289.623H323.271C326.368 289.623 328.879 286.678 328.879 283.046V146.828C328.879 143.196 326.368 140.252 323.271 140.252Z" fill="black"/>
<path d="M246.09 326.101H192.816C191.837 326.101 190.899 326.557 190.207 327.369C189.515 328.18 189.127 329.281 189.127 330.429H249.779C249.779 329.281 249.391 328.18 248.699 327.369C248.007 326.557 247.068 326.101 246.09 326.101Z" fill="#72A5D0"/>
<path opacity="0.3" d="M246.09 326.101H192.816C191.837 326.101 190.899 326.557 190.207 327.369C189.515 328.18 189.127 329.281 189.127 330.429H249.779C249.779 329.281 249.391 328.18 248.699 327.369C248.007 326.557 247.068 326.101 246.09 326.101Z" fill="black"/>
<path d="M328.879 147.816H129.059V268.219H328.879V147.816Z" fill="#72A5D0"/>
<path opacity="0.84" d="M328.809 147.816H128.989V268.219H328.809V147.816Z" fill="#FAFAFA"/>
<path opacity="0.23" d="M299.84 157.119H165.22C163.996 157.119 163.004 158.282 163.004 159.717V252.065C163.004 253.5 163.996 254.663 165.22 254.663H299.84C301.063 254.663 302.055 253.5 302.055 252.065V159.717C302.055 158.282 301.063 157.119 299.84 157.119Z" fill="#72A5D0"/>
<path opacity="0.67" d="M301.47 163.833V252.065C301.47 252.754 301.237 253.415 300.821 253.902C300.406 254.389 299.842 254.663 299.255 254.663H164.635C164.048 254.661 163.486 254.386 163.071 253.899C162.656 253.413 162.421 252.753 162.419 252.065V163.833H301.47Z" fill="#FAFAFA"/>
<path opacity="0.41" d="M301.064 167.29H162.825V251.215H301.064V167.29Z" fill="white"/>
<path opacity="0.19" d="M272.836 225.228C269.203 225.228 265.652 223.964 262.631 221.597C259.61 219.23 257.256 215.866 255.865 211.93C254.475 207.994 254.111 203.663 254.82 199.484C255.529 195.305 257.278 191.467 259.847 188.455C262.416 185.442 265.689 183.39 269.253 182.559C272.816 181.728 276.509 182.155 279.866 183.785C283.222 185.415 286.091 188.176 288.11 191.719C290.128 195.261 291.205 199.426 291.205 203.686C291.199 209.397 289.262 214.872 285.818 218.91C282.375 222.949 277.706 225.221 272.836 225.228ZM272.836 182.374C269.242 182.374 265.728 183.624 262.739 185.966C259.751 188.308 257.421 191.636 256.046 195.531C254.67 199.425 254.31 203.71 255.011 207.844C255.713 211.979 257.444 215.776 259.985 218.757C262.527 221.737 265.765 223.767 269.291 224.59C272.816 225.412 276.47 224.99 279.791 223.377C283.112 221.764 285.95 219.032 287.947 215.527C289.944 212.022 291.01 207.902 291.01 203.686C291.006 198.036 289.09 192.617 285.683 188.622C282.275 184.626 277.655 182.379 272.836 182.374Z" fill="#72A5D0"/>
<path opacity="0.19" d="M241.956 225.228C238.323 225.228 234.771 223.964 231.751 221.597C228.73 219.23 226.376 215.866 224.985 211.93C223.595 207.994 223.231 203.663 223.94 199.484C224.649 195.305 226.398 191.467 228.967 188.455C231.536 185.442 234.809 183.39 238.372 182.559C241.936 181.728 245.629 182.155 248.985 183.785C252.342 185.415 255.211 188.176 257.229 191.719C259.248 195.261 260.325 199.426 260.325 203.686C260.317 209.397 258.379 214.87 254.936 218.908C251.493 222.945 246.825 225.218 241.956 225.228ZM241.956 182.374C238.361 182.374 234.848 183.624 231.859 185.966C228.87 188.308 226.541 191.636 225.165 195.531C223.79 199.425 223.43 203.71 224.131 207.844C224.832 211.979 226.563 215.776 229.105 218.757C231.647 221.737 234.885 223.767 238.41 224.59C241.936 225.412 245.59 224.99 248.911 223.377C252.232 221.764 255.07 219.032 257.067 215.527C259.064 212.022 260.13 207.902 260.13 203.686C260.124 198.036 258.207 192.62 254.8 188.624C251.393 184.629 246.774 182.381 241.956 182.374Z" fill="#72A5D0"/>
<path opacity="0.19" d="M291.112 237.266H182.692C182.679 237.266 182.666 237.263 182.654 237.257C182.642 237.251 182.631 237.242 182.623 237.231C182.614 237.22 182.607 237.206 182.603 237.192C182.599 237.178 182.597 237.162 182.598 237.147V233.606C182.597 233.591 182.599 233.576 182.603 233.562C182.607 233.547 182.614 233.534 182.623 233.523C182.631 233.512 182.642 233.503 182.654 233.497C182.666 233.491 182.679 233.487 182.692 233.488H291.112C291.125 233.487 291.137 233.491 291.149 233.497C291.161 233.503 291.172 233.512 291.181 233.523C291.19 233.534 291.196 233.547 291.201 233.562C291.205 233.576 291.206 233.591 291.205 233.606V237.147C291.206 237.162 291.205 237.178 291.201 237.192C291.196 237.206 291.19 237.22 291.181 237.231C291.172 237.242 291.161 237.251 291.149 237.257C291.137 237.263 291.125 237.266 291.112 237.266ZM182.762 237.037H291.01V233.716H182.762V237.037Z" fill="#72A5D0"/>
<path opacity="0.19" d="M297.18 243.449H166.733C166.72 243.449 166.707 243.446 166.695 243.44C166.683 243.434 166.672 243.425 166.664 243.413C166.655 243.402 166.648 243.389 166.644 243.375C166.64 243.36 166.638 243.345 166.639 243.33V175.166C166.638 175.151 166.64 175.136 166.644 175.121C166.648 175.107 166.655 175.094 166.664 175.082C166.672 175.071 166.683 175.062 166.695 175.056C166.707 175.05 166.72 175.047 166.733 175.047H297.18C297.193 175.047 297.206 175.05 297.218 175.056C297.23 175.062 297.24 175.071 297.249 175.082C297.258 175.094 297.265 175.107 297.269 175.121C297.273 175.136 297.275 175.151 297.274 175.166V243.312C297.277 243.328 297.278 243.345 297.274 243.362C297.271 243.379 297.265 243.394 297.256 243.408C297.247 243.421 297.235 243.432 297.222 243.439C297.209 243.446 297.194 243.449 297.18 243.449ZM166.858 243.22H297.118V175.276H166.834L166.858 243.22Z" fill="#72A5D0"/>
<path d="M295.441 160.494C295.439 160.768 295.507 161.036 295.635 161.264C295.764 161.493 295.947 161.671 296.162 161.777C296.377 161.883 296.614 161.912 296.843 161.86C297.072 161.807 297.283 161.677 297.448 161.484C297.614 161.291 297.727 161.045 297.773 160.777C297.819 160.508 297.796 160.23 297.707 159.977C297.618 159.724 297.467 159.508 297.274 159.356C297.08 159.203 296.852 159.122 296.618 159.122C296.464 159.121 296.311 159.156 296.168 159.224C296.025 159.292 295.896 159.393 295.786 159.521C295.677 159.648 295.59 159.8 295.53 159.967C295.471 160.134 295.441 160.313 295.441 160.494Z" fill="white"/>
<path d="M292.445 161.876C293.096 161.876 293.623 161.257 293.623 160.494C293.623 159.731 293.096 159.113 292.445 159.113C291.795 159.113 291.268 159.731 291.268 160.494C291.268 161.257 291.795 161.876 292.445 161.876Z" fill="white"/>
<path d="M288.272 161.876C288.923 161.876 289.45 161.257 289.45 160.494C289.45 159.731 288.923 159.113 288.272 159.113C287.622 159.113 287.095 159.731 287.095 160.494C287.095 161.257 287.622 161.876 288.272 161.876Z" fill="white"/>
<path d="M301.47 163.659H162.419V164.006H301.47V163.659Z" fill="#72A5D0"/>
<path opacity="0.47" d="M182.465 147.816L164.112 268.219H182.278L200.632 147.816H182.465Z" fill="#FAFAFA"/>
<path opacity="0.47" d="M205.062 147.816L186.716 268.219H195.796L214.149 147.816H205.062Z" fill="#FAFAFA"/>
<path opacity="0.4" d="M306.587 147.816L288.233 268.219H292.781L311.126 147.816H306.587Z" fill="white"/>
<path opacity="0.4" d="M298.592 147.816L280.238 268.219H284.786L303.131 147.816H298.592Z" fill="white"/>
<path d="M258.781 326.101H249.241C248.263 326.101 247.324 326.557 246.632 327.369C245.94 328.18 245.552 329.281 245.552 330.429H262.462C262.463 329.861 262.369 329.298 262.184 328.774C262 328.249 261.729 327.771 261.387 327.369C261.045 326.967 260.638 326.649 260.191 326.431C259.744 326.213 259.265 326.101 258.781 326.101Z" fill="#72A5D0"/>
<path opacity="0.4" d="M258.781 326.101H249.241C248.263 326.101 247.324 326.557 246.632 327.369C245.94 328.18 245.552 329.281 245.552 330.429H262.462C262.463 329.861 262.369 329.298 262.184 328.774C262 328.249 261.729 327.771 261.387 327.369C261.045 326.967 260.638 326.649 260.191 326.431C259.744 326.213 259.265 326.101 258.781 326.101Z" fill="black"/>
<path d="M232.791 279.195C232.791 280.082 232.567 280.948 232.147 281.685C231.727 282.422 231.13 282.997 230.432 283.336C229.733 283.675 228.965 283.764 228.223 283.591C227.482 283.418 226.801 282.991 226.266 282.365C225.732 281.738 225.368 280.939 225.22 280.07C225.073 279.2 225.149 278.299 225.438 277.48C225.727 276.661 226.217 275.961 226.846 275.469C227.474 274.976 228.213 274.713 228.969 274.713C229.983 274.713 230.955 275.185 231.672 276.026C232.388 276.867 232.791 278.007 232.791 279.195Z" fill="#72A5D0"/>
<path opacity="0.5" d="M232.791 279.195C232.791 280.082 232.567 280.948 232.147 281.685C231.727 282.422 231.13 282.997 230.432 283.336C229.733 283.675 228.965 283.764 228.223 283.591C227.482 283.418 226.801 282.991 226.266 282.365C225.732 281.738 225.368 280.939 225.22 280.07C225.073 279.2 225.149 278.299 225.438 277.48C225.727 276.661 226.217 275.961 226.846 275.469C227.474 274.976 228.213 274.713 228.969 274.713C229.983 274.713 230.955 275.185 231.672 276.026C232.388 276.867 232.791 278.007 232.791 279.195Z" fill="black"/>
<path d="M196.31 314.969C195.772 293.071 195.819 159.534 196.903 148.566L198.377 146.179C198.377 146.179 197.699 148.301 197.535 185.831C197.371 223.362 197.153 309.399 197.332 314.969H196.31Z" fill="#72A5D0"/>
<path d="M205.07 233.753C211.31 221.569 218.143 212.907 223.088 208.141C228.033 203.375 215.069 234.32 209.999 245.836C204.929 257.352 198.682 270.085 196.669 280.842C196.279 258.962 198.822 245.937 205.07 233.753Z" fill="#72A5D0"/>
<path d="M196.794 150.103C198.073 136.254 196.342 123.458 202.769 107.24C209.196 91.0222 214.087 78.2895 220.288 72.3714C221.778 70.9444 216.684 99.1356 210.764 115.015C206.591 126.22 205.249 134.224 200.819 141.779C199.781 143.535 196.794 150.103 196.794 150.103Z" fill="#72A5D0"/>
<path d="M196.763 223.993C198.058 206.897 199.228 190.432 207.597 166.11C209.633 160.183 228.501 118.765 233.423 114.283C235.833 112.079 227.401 139.602 219.164 162.763C212.995 180.142 210.436 185.118 203.564 205.278C200.873 213.263 196.763 223.993 196.763 223.993Z" fill="#72A5D0"/>
<path d="M185.78 139.63C178.76 128.479 171.974 120.942 166.99 117C162.006 113.057 175.57 140.471 182.091 152.436C188.612 164.4 194.516 174.782 197.215 185.155C195.92 163.321 192.8 150.789 185.78 139.63Z" fill="#72A5D0"/>
<path d="M196.763 254.288C195.437 242.397 192.707 228.429 188.807 218.075C184.907 207.72 178.901 191.841 174.127 186.453C172.981 185.154 179.119 216.044 183.066 224.258C187.013 232.472 189.899 240.22 192.379 244.876C193.206 246.385 196.763 254.288 196.763 254.288Z" fill="#72A5D0"/>
<path opacity="0.5" d="M196.31 314.969C195.772 293.071 195.819 159.534 196.903 148.566L198.377 146.179C198.377 146.179 197.699 148.301 197.535 185.831C197.371 223.362 197.153 309.399 197.332 314.969H196.31Z" fill="white"/>
<path opacity="0.5" d="M205.07 233.753C211.31 221.569 218.143 212.907 223.088 208.141C228.033 203.375 215.069 234.32 209.999 245.836C204.929 257.352 198.682 270.085 196.669 280.842C196.279 258.962 198.822 245.937 205.07 233.753Z" fill="white"/>
<path opacity="0.5" d="M196.794 150.103C198.073 136.254 196.342 123.458 202.769 107.24C209.196 91.0222 214.087 78.2895 220.288 72.3714C221.778 70.9444 216.684 99.1356 210.764 115.015C206.591 126.22 205.249 134.224 200.819 141.779C199.781 143.535 196.794 150.103 196.794 150.103Z" fill="white"/>
<path opacity="0.5" d="M196.763 223.993C198.058 206.897 199.228 190.432 207.597 166.11C209.633 160.183 228.501 118.765 233.423 114.283C235.833 112.079 227.401 139.602 219.164 162.763C212.995 180.142 210.436 185.118 203.564 205.278C200.873 213.263 196.763 223.993 196.763 223.993Z" fill="white"/>
<path opacity="0.5" d="M185.78 139.63C178.76 128.479 171.974 120.942 166.99 117C162.006 113.057 175.57 140.471 182.091 152.436C188.612 164.4 194.516 174.782 197.215 185.155C195.92 163.321 192.8 150.789 185.78 139.63Z" fill="white"/>
<path opacity="0.5" d="M196.763 254.288C195.437 242.397 192.707 228.429 188.807 218.075C184.907 207.72 178.901 191.841 174.127 186.453C172.981 185.154 179.119 216.044 183.066 224.258C187.013 232.472 189.899 240.22 192.379 244.876C193.206 246.385 196.763 254.288 196.763 254.288Z" fill="white"/>
<path d="M211.614 330.428H182.052L179.821 310.506H213.845L211.614 330.428Z" fill="#263238"/>
<path d="M216.044 312.829H177.614L176.514 306.106H217.144L216.044 312.829Z" fill="#263238"/>
<path d="M179.361 161.509H91.416C88.4048 161.509 85.9638 164.372 85.9638 167.903V324.034C85.9638 327.565 88.4048 330.428 91.416 330.428H179.361C182.372 330.428 184.813 327.565 184.813 324.034V167.903C184.813 164.372 182.372 161.509 179.361 161.509Z" fill="#72A5D0"/>
<path opacity="0.6" d="M179.361 161.509H91.416C88.4048 161.509 85.9638 164.372 85.9638 167.903V324.034C85.9638 327.565 88.4048 330.428 91.416 330.428H179.361C182.372 330.428 184.813 327.565 184.813 324.034V167.903C184.813 164.372 182.372 161.509 179.361 161.509Z" fill="black"/>
<path d="M176.748 161.509H88.803C85.7918 161.509 83.3508 164.372 83.3508 167.903V324.034C83.3508 327.565 85.7918 330.428 88.803 330.428H176.748C179.759 330.428 182.2 327.565 182.2 324.034V167.903C182.2 164.372 179.759 161.509 176.748 161.509Z" fill="#72A5D0"/>
<path opacity="0.3" d="M176.748 161.509H88.803C85.7918 161.509 83.3508 164.372 83.3508 167.903V324.034C83.3508 327.565 85.7918 330.428 88.803 330.428H176.748C179.759 330.428 182.2 327.565 182.2 324.034V167.903C182.2 164.372 179.759 161.509 176.748 161.509Z" fill="black"/>
<path d="M182.2 168.845H83.3508V315.473H182.2V168.845Z" fill="#FAFAFA"/>
<path opacity="0.1" d="M182.2 168.845H83.3508V315.473H182.2V168.845Z" fill="#72A5D0"/>
<path opacity="0.48" d="M118.396 169.211L95.7763 315.838H113.053L135.673 169.211H118.396Z" fill="#FAFAFA"/>
<path opacity="0.48" d="M140.806 168.845L118.186 315.482H126.82L149.44 168.845H140.806Z" fill="#FAFAFA"/>
<path d="M132.772 327.217C134.822 327.217 136.484 325.268 136.484 322.863C136.484 320.459 134.822 318.509 132.772 318.509C130.721 318.509 129.059 320.459 129.059 322.863C129.059 325.268 130.721 327.217 132.772 327.217Z" fill="#72A5D0"/>
<path opacity="0.5" d="M132.772 327.217C134.822 327.217 136.484 325.268 136.484 322.863C136.484 320.459 134.822 318.509 132.772 318.509C130.721 318.509 129.059 320.459 129.059 322.863C129.059 325.268 130.721 327.217 132.772 327.217Z" fill="black"/>
<path d="M133.63 164.885C133.63 165.084 133.579 165.279 133.485 165.444C133.391 165.61 133.257 165.739 133.1 165.815C132.943 165.891 132.771 165.911 132.604 165.872C132.438 165.833 132.285 165.737 132.165 165.597C132.045 165.456 131.963 165.276 131.93 165.081C131.897 164.886 131.914 164.684 131.979 164.5C132.044 164.316 132.154 164.159 132.295 164.048C132.436 163.938 132.602 163.879 132.772 163.879C132.999 163.879 133.217 163.985 133.378 164.173C133.539 164.362 133.63 164.618 133.63 164.885Z" fill="#72A5D0"/>
<path opacity="0.5" d="M133.63 164.885C133.63 165.084 133.579 165.279 133.485 165.444C133.391 165.61 133.257 165.739 133.1 165.815C132.943 165.891 132.771 165.911 132.604 165.872C132.438 165.833 132.285 165.737 132.165 165.597C132.045 165.456 131.963 165.276 131.93 165.081C131.897 164.886 131.914 164.684 131.979 164.5C132.044 164.316 132.154 164.159 132.295 164.048C132.436 163.938 132.602 163.879 132.772 163.879C132.999 163.879 133.217 163.985 133.378 164.173C133.539 164.362 133.63 164.618 133.63 164.885Z" fill="black"/>
<path d="M256.238 136.291L262.189 134.983C262.284 134.964 262.375 134.921 262.454 134.857C262.534 134.793 262.6 134.709 262.648 134.611C262.697 134.513 262.726 134.404 262.735 134.291C262.743 134.178 262.73 134.065 262.696 133.958L258.016 117.704C257.943 117.47 257.803 117.272 257.619 117.145C257.436 117.019 257.22 116.97 257.01 117.009L251.066 118.308C250.97 118.326 250.879 118.369 250.799 118.434C250.719 118.499 250.652 118.584 250.603 118.683C250.555 118.782 250.526 118.893 250.518 119.007C250.51 119.12 250.525 119.235 250.559 119.341L255.239 135.596C255.31 135.831 255.449 136.029 255.631 136.156C255.814 136.283 256.028 136.331 256.238 136.291Z" fill="#72A5D0"/>
<path opacity="0.6" d="M256.238 136.291L262.189 134.983C262.284 134.964 262.375 134.921 262.454 134.857C262.534 134.793 262.6 134.709 262.648 134.611C262.697 134.513 262.726 134.404 262.735 134.291C262.743 134.178 262.73 134.065 262.696 133.958L258.016 117.704C257.943 117.47 257.803 117.272 257.619 117.145C257.436 117.019 257.22 116.97 257.01 117.009L251.066 118.308C250.97 118.326 250.879 118.369 250.799 118.434C250.719 118.499 250.652 118.584 250.603 118.683C250.555 118.782 250.526 118.893 250.518 119.007C250.51 119.12 250.525 119.235 250.559 119.341L255.239 135.596C255.31 135.831 255.449 136.029 255.631 136.156C255.814 136.283 256.028 136.331 256.238 136.291Z" fill="black"/>
<path d="M256.971 136.163L262.915 134.864C263.011 134.846 263.102 134.803 263.182 134.738C263.262 134.673 263.329 134.588 263.378 134.489C263.426 134.39 263.455 134.279 263.463 134.165C263.471 134.051 263.456 133.937 263.422 133.83L258.742 117.576C258.668 117.342 258.528 117.144 258.345 117.017C258.161 116.891 257.946 116.842 257.735 116.881L251.792 118.189C251.696 118.206 251.605 118.248 251.524 118.312C251.444 118.376 251.377 118.46 251.329 118.559C251.28 118.657 251.251 118.767 251.243 118.88C251.236 118.994 251.25 119.107 251.285 119.213L255.965 135.468C256.038 135.702 256.178 135.9 256.362 136.026C256.545 136.153 256.761 136.201 256.971 136.163Z" fill="#72A5D0"/>
<path opacity="0.3" d="M256.971 136.163L262.915 134.864C263.011 134.846 263.102 134.803 263.182 134.738C263.262 134.673 263.329 134.588 263.378 134.489C263.426 134.39 263.455 134.279 263.463 134.165C263.471 134.051 263.456 133.937 263.422 133.83L258.742 117.576C258.668 117.342 258.528 117.144 258.345 117.017C258.161 116.891 257.946 116.842 257.735 116.881L251.792 118.189C251.696 118.206 251.605 118.248 251.524 118.312C251.444 118.376 251.377 118.46 251.329 118.559C251.28 118.657 251.251 118.767 251.243 118.88C251.236 118.994 251.25 119.107 251.285 119.213L255.965 135.468C256.038 135.702 256.178 135.9 256.362 136.026C256.545 136.153 256.761 136.201 256.971 136.163Z" fill="black"/>
<path d="M255.645 134.361L263.102 132.724L258.905 118.143L251.441 119.781L255.645 134.361Z" fill="#FAFAFA"/>
<path opacity="0.14" d="M255.645 134.361L263.102 132.724L258.905 118.143L251.441 119.781L255.645 134.361Z" fill="#72A5D0"/>
<path d="M251.441 126.083L252.026 124.491L257.642 131.891L252.782 132.33L251.441 126.083Z" fill="#E58A7B"/>
<path d="M155.493 68.6943C162.14 68.6943 167.528 62.3753 167.528 54.5804C167.528 46.7856 162.14 40.4666 155.493 40.4666C148.846 40.4666 143.458 46.7856 143.458 54.5804C143.458 62.3753 148.846 68.6943 155.493 68.6943Z" fill="#72A5D0"/>
<path d="M155.493 71.347C154.667 71.3477 153.842 71.265 153.028 71.1L153.161 70.1853C154.71 70.4953 156.292 70.4953 157.841 70.1853L157.973 71.1C157.154 71.2641 156.324 71.3467 155.493 71.347ZM148.372 69.1151C146.93 68.1429 145.645 66.883 144.573 65.3922L145.174 64.7977C146.184 66.2118 147.399 67.4069 148.762 68.3284L148.372 69.1151ZM162.63 69.1151L162.24 68.3284C163.603 67.4069 164.817 66.2118 165.828 64.7977L166.421 65.3831C165.35 66.8588 164.067 68.1033 162.63 69.0602V69.1151ZM142.085 60.3705C141.515 58.5355 141.225 56.5973 141.227 54.6444H142.007C141.995 56.4861 142.259 58.3159 142.787 60.0504L142.085 60.3705ZM168.901 60.3705L168.168 60.0595C168.696 58.325 168.96 56.4952 168.948 54.6536H169.478H169.728C169.732 56.5767 169.452 58.4861 168.901 60.2973V60.3705ZM142.802 49.2751L142.069 48.9641C142.636 47.1276 143.473 45.4218 144.542 43.9241L145.135 44.5095C144.133 45.905 143.344 47.4923 142.802 49.202V49.2751ZM168.152 49.1837C167.615 47.456 166.823 45.8523 165.812 44.4455L166.413 43.8509C167.486 45.3399 168.331 47.0359 168.909 48.8635L168.152 49.1837ZM148.715 40.9513L148.325 40.1647C149.77 39.1737 151.355 38.4952 153.005 38.1615L153.137 39.0762C151.584 39.3756 150.087 39.9916 148.715 40.8964V40.9513ZM162.193 40.9513C160.831 40.0413 159.341 39.4219 157.794 39.1219L157.927 38.2072C159.573 38.5363 161.157 39.202 162.607 40.1738L162.193 40.9513Z" fill="#72A5D0"/>
<path d="M249.124 125.946H246.784V126.86H249.124V125.946Z" fill="#72A5D0"/>
<path d="M242.096 126.86H237.416V125.946H242.096V126.86ZM232.674 126.229C231.125 125.727 229.651 124.947 228.306 123.915L228.735 123.156C230.012 124.13 231.409 124.867 232.877 125.342L232.674 126.229ZM224.741 120.174C223.717 118.726 222.89 117.1 222.292 115.353L223.018 115.015C223.594 116.671 224.383 118.213 225.358 119.589L224.741 120.174ZM221.2 109.884C221.2 109.417 221.2 108.969 221.2 108.475C221.198 107.065 221.334 105.659 221.606 104.286L222.386 104.496C222.129 105.801 222.001 107.136 222.004 108.475C222.004 108.923 222.004 109.39 222.004 109.819L221.2 109.884ZM224.024 99.5473L223.353 99.0808C224.173 97.4625 225.199 96.0004 226.395 94.7451L226.918 95.4312C225.781 96.6132 224.805 97.992 224.024 99.5199V99.5473ZM230.732 92.5133L230.412 91.6809C231.873 90.9065 233.429 90.4035 235.022 90.1899L235.115 91.1046C233.603 91.3006 232.124 91.7664 230.732 92.4858V92.5133ZM249.639 90.9766H249.124V90.0619H249.639C250.996 90.0608 252.348 89.8454 253.656 89.4215L253.867 90.3363C252.488 90.7641 251.065 90.9703 249.639 90.9491V90.9766ZM244.436 90.9766H239.756V90.0619H244.436V90.9766ZM258.227 87.9763L257.798 87.2171C259.075 86.2372 260.216 85.0342 261.183 83.6498L261.791 84.226C260.773 85.6741 259.571 86.9297 258.227 87.9489V87.9763ZM264.225 79.3964L263.5 79.0579C264.061 77.3931 264.406 75.6385 264.521 73.8533L265.301 73.9265C265.177 75.7937 264.814 77.6283 264.225 79.369V79.3964ZM264.163 68.5388C263.813 66.7964 263.237 65.1274 262.454 63.5903L263.125 63.1238C263.948 64.7401 264.553 66.4957 264.919 68.3285L264.163 68.5388ZM259.553 59.4833C258.413 58.2966 257.127 57.319 255.739 56.5837L256.051 55.7513C257.515 56.5184 258.87 57.5458 260.068 58.7972L259.553 59.4833ZM251.347 55.175C250.782 55.1017 250.215 55.0651 249.647 55.0652H246.706V54.1505H249.639C250.239 54.1432 250.838 54.183 251.433 54.2695L251.347 55.175ZM241.987 55.0652H237.307V54.1505H241.987V55.0652ZM232.627 55.0652H227.947V54.1505H232.627V55.0652ZM223.267 55.0652H218.587V54.1505H223.267V55.0652ZM213.907 55.0652H209.227V54.1505H213.907V55.0652ZM204.547 55.0652H199.867V54.1505H204.547V55.0652ZM195.187 55.0652H190.507V54.1505H195.187V55.0652ZM185.827 55.0652H181.147V54.1505H185.827V55.0652Z" fill="#72A5D0"/>
<path d="M176.327 54.1231H173.987V55.0372H176.327V54.1231Z" fill="#72A5D0"/>
<path d="M155.821 74.2923H155.165V76.5887H155.821V74.2923Z" fill="#72A5D0"/>
<path d="M74.1 226.188H73.4526V221.615H74.1V226.188ZM74.1 217.041H73.4526V212.468H74.1V217.041ZM145.291 214.69C144.527 214.689 143.766 214.591 143.021 214.398L143.161 213.657C144.403 213.968 145.683 214.005 146.936 213.766L147.038 214.517C146.454 214.615 145.865 214.658 145.275 214.645L145.291 214.69ZM105.089 214.69L105.05 213.922C106.316 213.83 107.556 213.455 108.701 212.815L108.982 213.501C107.752 214.164 106.425 214.543 105.074 214.617L105.089 214.69ZM101.088 214.041C99.8047 213.541 98.6156 212.755 97.5858 211.727L98.007 211.141C98.9722 212.108 100.087 212.847 101.291 213.318L101.088 214.041ZM150.79 212.843L150.446 212.193C151.526 211.413 152.468 210.397 153.223 209.202L153.754 209.659C152.946 210.923 151.94 211.994 150.79 212.815V212.843ZM139.316 212.504C138.201 211.61 137.243 210.474 136.492 209.156L137.038 208.726C137.741 209.966 138.642 211.034 139.69 211.873L139.316 212.504ZM112.187 210.675L111.712 210.163C112.567 209.062 113.234 207.78 113.677 206.385L114.293 206.65C113.813 208.118 113.098 209.466 112.187 210.62V210.675ZM95.0742 208.077C94.4427 206.673 94.0506 205.138 93.9198 203.558L94.5672 203.485C94.6912 204.966 95.0594 206.404 95.6514 207.72L95.0742 208.077ZM74.1 207.803H73.4526V203.229H74.1V207.803ZM155.501 205.379L154.869 205.187C155.074 204.236 155.179 203.259 155.181 202.278V200.714H155.836V202.278C155.829 203.324 155.711 204.366 155.485 205.379H155.501ZM134.94 204.775C134.797 203.953 134.724 203.117 134.722 202.278V200.119H135.377V202.278C135.378 203.064 135.446 203.849 135.58 204.619L134.94 204.775ZM114.941 201.958H114.293V197.384H114.941V201.958ZM94.5126 198.875H93.8574V194.302H94.5126V198.875ZM74.1 198.61H73.4526V194.036H74.1V198.61ZM155.836 196.122H155.181V191.548H155.836V196.122ZM135.4 195.518H134.745V192.28C134.748 191.843 134.727 191.406 134.683 190.972L135.33 190.881C135.377 191.345 135.4 191.812 135.4 192.28V195.518ZM114.964 192.774H114.317V192.289C114.315 190.871 114.52 189.463 114.925 188.127L115.541 188.383C115.158 189.637 114.963 190.958 114.964 192.289V192.774ZM93.6546 189.792C93.382 188.337 92.8707 186.957 92.1492 185.731L92.6874 185.301C93.4422 186.611 93.9721 188.08 94.2474 189.627L93.6546 189.792ZM74.3808 189.536L73.749 189.353C74.0691 187.812 74.6413 186.358 75.4338 185.072L75.9564 185.52C75.2141 186.725 74.6741 188.085 74.3652 189.527L74.3808 189.536ZM155.836 186.929H155.181V182.356H155.836V186.929ZM133.552 186.764C132.947 185.455 132.134 184.294 131.157 183.343L131.57 182.758C132.616 183.773 133.484 185.016 134.129 186.417L133.552 186.764ZM117.468 184.587L116.977 184.075C117.876 182.888 118.961 181.916 120.175 181.212L120.463 181.898C119.32 182.553 118.297 183.463 117.452 184.578L117.468 184.587ZM89.466 182.63C88.4117 181.803 87.23 181.225 85.9872 180.929L86.1198 180.179C87.4446 180.5 88.7031 181.121 89.8248 182.008L89.466 182.63ZM78.702 182.493L78.3588 181.843C79.4983 180.987 80.7706 180.403 82.1028 180.124L82.2198 180.883C80.9643 181.141 79.764 181.685 78.6864 182.484L78.702 182.493ZM127.842 181.23C126.878 180.872 125.873 180.69 124.862 180.691C124.574 180.691 124.348 180.691 124.082 180.691L124.036 179.922C124.301 179.922 124.574 179.922 124.816 179.922C125.895 179.922 126.968 180.114 127.998 180.49L127.842 181.23ZM155.836 177.736H155.181V173.163H155.836V177.736ZM155.836 168.543H155.181V163.97H155.836V168.543ZM155.836 159.351H155.181V154.777H155.836V159.351ZM155.836 150.204H155.181V145.63H155.836V150.204ZM155.836 141.011H155.181V136.437H155.836V141.011ZM155.836 131.809H155.181V127.235H155.836V131.809ZM155.836 122.662H155.181V118.088H155.836V122.662ZM155.836 113.469H155.181V108.896H155.836V113.469ZM155.836 104.276H155.181V99.7028H155.836V104.276ZM155.836 95.1293H155.181V90.5558H155.836V95.1293ZM155.836 85.9365H155.181V81.363H155.836V85.9365Z" fill="#72A5D0"/>
<path d="M74.0922 230.881H73.437V233.177H74.0922V230.881Z" fill="#72A5D0"/>
<path d="M154.019 61.459C153.709 61.4557 153.413 61.3114 153.192 61.0565L149.105 56.2635C148.888 56.005 148.766 55.6567 148.766 55.2939C148.766 54.931 148.888 54.5827 149.105 54.3243C149.213 54.196 149.342 54.0941 149.484 54.0245C149.626 53.955 149.778 53.9192 149.932 53.9192C150.085 53.9192 150.238 53.955 150.38 54.0245C150.522 54.0941 150.65 54.196 150.758 54.3243L154.019 58.1477L160.22 50.8758C160.442 50.6335 160.735 50.5015 161.038 50.5078C161.341 50.5141 161.63 50.6581 161.845 50.9095C162.059 51.1608 162.182 51.5 162.187 51.8555C162.193 52.2109 162.08 52.5549 161.873 52.815L154.853 61.0474C154.745 61.178 154.615 61.2817 154.472 61.3524C154.328 61.4231 154.174 61.4593 154.019 61.459Z" fill="white"/>
<path d="M300.69 88.827C299.91 93.4005 298.21 102.548 300.924 105.612C300.924 105.612 299.863 110.185 292.664 110.185C284.739 110.185 288.873 105.612 288.873 105.612C293.202 104.404 293.085 100.645 292.336 97.1142L300.69 88.827Z" fill="#E58A7B"/>
<path d="M284.918 107.177C284.918 106.491 285.808 105.786 287.102 105.237C287.797 104.935 288.475 103.792 289.528 103.581C290.308 103.426 291.314 104.212 292.313 104.13C293.147 104.057 294.021 103.105 294.988 103.096C295.955 103.087 296.735 104.011 297.687 104.075C298.28 104.075 298.873 103.234 299.372 103.288C299.871 103.343 300.409 104.341 300.885 104.441C301.517 104.569 302.227 103.828 302.656 103.993C303.342 104.249 303.436 105.338 303.74 105.631C304.613 106.463 305.3 107.25 304.52 107.396C302.593 107.753 302.515 106.481 300.565 106.481C298.615 106.481 298.615 107.396 296.665 107.351C294.715 107.305 294.723 106.436 292.765 106.436C290.807 106.436 290.846 107.067 288.865 107.305C287.555 107.562 286.215 107.519 284.918 107.177Z" fill="#72A5D0"/>
<g opacity="0.6">
<path d="M284.918 107.177C284.918 106.491 285.808 105.786 287.102 105.237C287.797 104.935 288.475 103.792 289.528 103.581C290.308 103.426 291.314 104.212 292.313 104.13C293.147 104.057 294.021 103.105 294.988 103.096C295.955 103.087 296.735 104.011 297.687 104.075C298.28 104.075 298.873 103.234 299.372 103.288C299.871 103.343 300.409 104.341 300.885 104.441C301.517 104.569 302.227 103.828 302.656 103.993C303.342 104.249 303.436 105.338 303.74 105.631C304.613 106.463 305.3 107.25 304.52 107.396C302.593 107.753 302.515 106.481 300.565 106.481C298.615 106.481 298.615 107.396 296.665 107.351C294.715 107.305 294.723 106.436 292.765 106.436C290.807 106.436 290.846 107.067 288.865 107.305C287.555 107.562 286.215 107.519 284.918 107.177Z" fill="black"/>
</g>
<path d="M314.855 115.463C315.869 117.979 316.664 120.384 317.468 122.891C318.271 125.397 318.919 127.921 319.543 130.473C320.175 133.051 320.695 135.664 321.103 138.303C321.29 139.63 321.485 140.956 321.61 142.319C321.688 142.987 321.758 143.664 321.797 144.35L321.929 146.453C321.964 148.193 321.698 149.923 321.149 151.539C320.701 152.895 320.167 154.21 319.55 155.472C318.388 157.822 317.085 160.071 315.65 162.205C312.873 166.338 309.828 170.213 306.54 173.794L304.106 171.16C305.393 169.165 306.712 167.117 307.944 165.049C309.176 162.982 310.409 160.915 311.524 158.802C312.642 156.741 313.653 154.603 314.551 152.399C314.964 151.391 315.313 150.348 315.596 149.28C315.825 148.488 315.931 147.655 315.908 146.819L315.713 145.09C315.658 144.496 315.572 143.901 315.471 143.261C315.307 142.072 315.081 140.874 314.855 139.685C314.629 138.495 314.371 137.306 314.075 136.117C313.778 134.928 313.513 133.739 313.201 132.559C312.585 130.199 311.875 127.848 311.142 125.525C310.409 123.202 309.582 120.842 308.802 118.674L314.855 115.463Z" fill="#E58A7B"/>
<path d="M312.195 107.359C314.909 108.054 317.803 119.506 317.803 119.506L307.117 127.501C307.117 127.501 303.763 118.354 305.058 114.366C306.415 110.249 308.989 106.536 312.195 107.359Z" fill="#72A5D0"/>
<path opacity="0.6" d="M312.195 107.359C314.909 108.054 317.803 119.506 317.803 119.506L307.117 127.501C307.117 127.501 303.763 118.354 305.058 114.366C306.415 110.249 308.989 106.536 312.195 107.359Z" fill="white"/>
<path opacity="0.28" d="M310.744 111.256L307.094 127.428V127.501L311.368 124.299L310.744 111.256Z" fill="#72A5D0"/>
<path d="M277.828 107.578C277.828 107.578 274.708 108.868 280.948 153.817H307.468C307.024 141.157 307.008 133.346 312.148 107.359C308.432 106.459 304.665 105.875 300.877 105.612C296.865 105.282 292.838 105.282 288.826 105.612C283.702 106.17 277.828 107.578 277.828 107.578Z" fill="#72A5D0"/>
<path opacity="0.6" d="M277.828 107.578C277.828 107.578 274.708 108.868 280.948 153.817H307.468C307.024 141.157 307.008 133.346 312.148 107.359C308.432 106.459 304.665 105.875 300.877 105.612C296.865 105.282 292.838 105.282 288.826 105.612C283.702 106.17 277.828 107.578 277.828 107.578Z" fill="white"/>
<path d="M305.37 170.135L299.052 167.903L301.688 175.056C301.688 175.056 305.861 175.532 307.367 172.879L305.37 170.135Z" fill="#E58A7B"/>
<path d="M293.935 170.263L296.416 176.108L301.688 175.075L299.052 167.922L293.935 170.263Z" fill="#E58A7B"/>
<path d="M322.085 326.303H315.557L313.451 308.557H319.987L322.085 326.303Z" fill="#E58A7B"/>
<path d="M292.399 326.303H285.87L285.433 308.557H291.962L292.399 326.303Z" fill="#E58A7B"/>
<path d="M285.433 308.566L285.659 317.704H292.196L291.97 308.566H285.433Z" fill="#CF6F64"/>
<path d="M319.987 308.566H313.451L314.535 317.704H321.071L319.987 308.566Z" fill="#CF6F64"/>
<path d="M287.961 153.817C287.961 153.817 291.751 206.412 295.69 236.049C298.865 259.987 312.96 315.939 312.96 315.939H321.867C321.867 315.939 314.527 261.898 312.913 238.189C308.833 178.276 315.986 167.675 307.492 153.78L287.961 153.817Z" fill="#72A5D0"/>
<path opacity="0.6" d="M287.961 153.817C287.961 153.817 291.751 206.412 295.69 236.049C298.865 259.987 312.96 315.939 312.96 315.939H321.867C321.867 315.939 314.527 261.898 312.913 238.189C308.833 178.276 315.986 167.675 307.492 153.78L287.961 153.817Z" fill="black"/>
<path opacity="0.4" d="M296.057 174.507C296.057 174.507 292.406 187.844 292.461 207.08C293.093 213.584 293.764 220.041 294.45 226.024C296.54 220.444 300.386 204.18 296.057 174.507Z" fill="black"/>
<path d="M280.956 153.817C280.956 153.817 275.8 212.843 276.229 236.204C276.674 260.508 284.271 315.939 284.271 315.939H293.101C293.101 315.939 291.704 261.971 292.484 238.061C293.335 212.038 300.386 153.817 300.386 153.817H280.956Z" fill="#72A5D0"/>
<path opacity="0.6" d="M280.956 153.817C280.956 153.817 275.8 212.843 276.229 236.204C276.674 260.508 284.271 315.939 284.271 315.939H293.101C293.101 315.939 291.704 261.971 292.484 238.061C293.335 212.038 300.386 153.817 300.386 153.817H280.956Z" fill="black"/>
<path d="M312.913 326.751C312.47 326.795 312.029 326.656 311.665 326.358C311.556 326.234 311.476 326.081 311.431 325.911C311.386 325.742 311.378 325.562 311.407 325.388C311.416 325.278 311.45 325.173 311.505 325.083C311.56 324.993 311.634 324.922 311.719 324.876C312.499 324.482 314.465 325.974 314.683 326.147C314.709 326.167 314.729 326.194 314.742 326.227C314.754 326.259 314.758 326.295 314.753 326.33C314.749 326.366 314.736 326.399 314.715 326.425C314.694 326.452 314.666 326.47 314.636 326.477C314.072 326.642 313.494 326.734 312.913 326.751ZM312.039 325.168C311.972 325.164 311.905 325.18 311.844 325.214C311.797 325.214 311.735 325.287 311.719 325.443C311.694 325.556 311.696 325.675 311.723 325.788C311.751 325.901 311.803 326.002 311.875 326.083C312.203 326.44 313.061 326.486 314.215 326.221C313.561 325.695 312.819 325.337 312.039 325.168Z" fill="#72A5D0"/>
<path d="M314.597 326.486C314.575 326.494 314.55 326.494 314.527 326.486C313.903 326.075 312.718 324.419 312.858 323.559C312.883 323.416 312.948 323.288 313.043 323.195C313.138 323.102 313.257 323.05 313.381 323.046C313.499 323.026 313.619 323.038 313.733 323.08C313.846 323.123 313.95 323.196 314.036 323.293C314.746 324.025 314.753 326.239 314.753 326.331C314.754 326.363 314.747 326.394 314.733 326.421C314.719 326.449 314.699 326.471 314.675 326.486C314.65 326.496 314.623 326.496 314.597 326.486ZM313.49 323.376H313.42C313.225 323.376 313.178 323.504 313.162 323.586C313.076 324.117 313.817 325.361 314.434 325.937C314.452 325.082 314.242 324.24 313.833 323.531C313.74 323.43 313.617 323.374 313.49 323.376Z" fill="#72A5D0"/>
<path d="M283.187 326.751C282.637 326.803 282.088 326.639 281.627 326.285C281.519 326.171 281.438 326.028 281.39 325.868C281.343 325.708 281.33 325.537 281.354 325.37C281.357 325.27 281.383 325.172 281.428 325.087C281.473 325.002 281.536 324.932 281.611 324.885C282.391 324.373 285.02 325.937 285.308 326.111C285.338 326.128 285.363 326.156 285.378 326.19C285.394 326.225 285.399 326.264 285.394 326.303C285.39 326.34 285.375 326.374 285.352 326.4C285.33 326.427 285.301 326.444 285.269 326.449C284.585 326.626 283.888 326.727 283.187 326.751ZM282.025 325.168C281.925 325.162 281.826 325.184 281.736 325.233C281.706 325.253 281.681 325.282 281.663 325.318C281.645 325.353 281.635 325.393 281.635 325.434C281.622 325.54 281.632 325.648 281.664 325.748C281.695 325.848 281.747 325.938 281.814 326.01C282.212 326.431 283.288 326.504 284.731 326.221C283.887 325.692 282.971 325.336 282.025 325.168Z" fill="#72A5D0"/>
<path d="M285.215 326.486H285.152C284.372 326.075 282.812 324.419 282.953 323.55C282.953 323.348 283.109 323.092 283.538 323.037C283.692 323.019 283.847 323.039 283.995 323.094C284.142 323.149 284.279 323.238 284.396 323.357C285.215 324.153 285.363 326.221 285.371 326.303C285.373 326.335 285.368 326.366 285.357 326.395C285.346 326.424 285.329 326.449 285.308 326.468C285.28 326.486 285.247 326.492 285.215 326.486ZM283.655 323.376H283.561C283.28 323.376 283.257 323.54 283.249 323.586C283.179 324.108 284.224 325.416 285.02 325.965C284.954 325.096 284.663 324.272 284.185 323.604C284.039 323.459 283.854 323.378 283.663 323.376H283.655Z" fill="#72A5D0"/>
<path d="M284.989 80.7688C284.938 80.775 284.888 80.7675 284.84 80.7469C284.793 80.7263 284.75 80.693 284.716 80.6499C284.465 80.2993 284.147 80.0242 283.787 79.8475C283.428 79.6708 283.037 79.5977 282.649 79.6343C282.567 79.6474 282.484 79.622 282.418 79.5637C282.353 79.5054 282.309 79.419 282.298 79.3233C282.288 79.2292 282.31 79.1345 282.357 79.0581C282.405 78.9818 282.476 78.9294 282.555 78.9116C283.045 78.8634 283.538 78.9518 283.993 79.1696C284.449 79.3875 284.854 79.7285 285.176 80.165C285.231 80.2345 285.262 80.326 285.262 80.4211C285.262 80.5163 285.231 80.6078 285.176 80.6773C285.122 80.7288 285.057 80.7606 284.989 80.7688Z" fill="#263238"/>
<path d="M283.631 85.3145C283.339 86.7878 282.874 88.2068 282.251 89.5313C282.544 89.7102 282.867 89.8119 283.197 89.8293C283.527 89.8466 283.856 89.7793 284.162 89.632L283.631 85.3145Z" fill="#DF5753"/>
<path d="M283.975 84.1531C284.045 84.7661 283.834 85.3059 283.491 85.3608C283.148 85.4157 282.812 84.9673 282.711 84.3635C282.61 83.7597 282.851 83.2016 283.195 83.1467C283.538 83.0918 283.92 83.5767 283.975 84.1531Z" fill="#263238"/>
<path d="M283.374 83.2383L282.071 83.0278C282.071 83.0278 282.851 84.0163 283.374 83.2383Z" fill="#263238"/>
<path d="M315.12 325.415H322.46C322.585 325.412 322.708 325.463 322.803 325.56C322.898 325.656 322.959 325.79 322.975 325.937L323.817 332.751C323.832 332.924 323.817 333.098 323.771 333.263C323.725 333.428 323.649 333.58 323.55 333.708C323.451 333.837 323.329 333.94 323.194 334.01C323.058 334.079 322.912 334.115 322.764 334.114C320.206 334.059 318.973 333.885 315.744 333.885C313.763 333.885 310.861 334.123 308.116 334.123C305.37 334.123 305.23 330.94 306.368 330.657C311.493 329.367 312.296 327.583 314.028 325.882C314.334 325.58 314.72 325.415 315.12 325.415Z" fill="#263238"/>
<path d="M285.644 325.415H292.984C293.11 325.414 293.232 325.466 293.328 325.561C293.424 325.657 293.487 325.79 293.506 325.937L294.341 332.751C294.356 332.923 294.341 333.097 294.295 333.261C294.249 333.425 294.175 333.577 294.077 333.705C293.978 333.833 293.858 333.936 293.723 334.007C293.589 334.077 293.443 334.114 293.296 334.114C290.737 334.059 289.505 333.885 286.276 333.885C284.287 333.885 280.184 334.123 277.438 334.123C274.693 334.123 274.552 330.94 275.691 330.657C280.808 329.367 282.828 327.583 284.552 325.882C284.859 325.583 285.245 325.418 285.644 325.415Z" fill="#263238"/>
<path opacity="0.28" d="M277.064 114.841V115.024C277.142 120.137 277.742 128.745 279.552 143.215L283.249 126.229L277.064 114.841Z" fill="#72A5D0"/>
<path d="M282.313 117.466C281.58 121.811 280.753 126.065 279.77 130.336C278.788 134.608 277.789 138.852 276.494 143.142L275.987 144.743L275.434 146.353C275.309 146.734 275.16 147.104 274.989 147.46C274.774 147.933 274.513 148.375 274.209 148.777C273.502 149.69 272.574 150.328 271.549 150.606C270.692 150.835 269.801 150.835 268.944 150.606C268.29 150.448 267.654 150.203 267.049 149.874C266.043 149.322 265.091 148.644 264.209 147.853C262.633 146.43 261.167 144.847 259.826 143.124C259.155 142.301 258.531 141.441 257.923 140.572C257.314 139.703 256.729 138.834 256.152 137.873L258.625 135.303C261.247 138.081 264.08 140.573 267.088 142.749C267.737 143.192 268.421 143.559 269.131 143.846C269.732 144.112 270.27 144.039 270.059 143.993C269.933 144.013 269.812 144.07 269.708 144.157L269.818 143.764L270.231 142.319L270.621 140.828C271.635 136.812 272.501 132.596 273.359 128.461L275.8 115.875L282.313 117.466Z" fill="#E58A7B"/>
<path d="M256.355 138.258L252.782 132.33L257.642 131.891C257.642 131.891 260.387 135.605 259.42 138.587L256.355 138.258Z" fill="#E58A7B"/>
<path d="M256.058 130.803L257.088 130.062L257.564 127.254L258.352 128.406L258.937 135.001L256.058 130.803Z" fill="#E58A7B"/>
<path d="M301.252 79.1403C301.782 86.714 302.141 89.9064 299.38 94.3152C295.222 100.929 287.165 100.032 284.723 92.7877C282.516 86.2658 282.025 74.9692 287.937 70.9262C289.235 70.0262 290.708 69.5307 292.215 69.4868C293.723 69.4429 295.215 69.852 296.549 70.6753C297.884 71.4986 299.016 72.7087 299.84 74.1903C300.663 75.672 301.149 77.3761 301.252 79.1403Z" fill="#E58A7B"/>
<path d="M286.814 70.0755C285.493 70.7268 284.411 71.9046 283.758 73.401C283.106 74.8973 282.926 76.6158 283.249 78.253C283.249 78.253 288.327 75.6826 288.53 85.223C288.678 92.1107 284.63 101.404 284.63 101.404C284.63 101.404 294.044 103.691 307.593 98.8247C313.357 96.7574 310.76 56.1811 286.814 70.0755Z" fill="#263238"/>
<path d="M286.33 74.2923C285.41 76.8901 285.652 82.0307 289.279 81.4819C292.906 80.9331 291.845 76.6431 291.845 76.6431L286.33 74.2923Z" fill="#263238"/>
<path d="M290.371 84.5553C290.408 86.0259 289.952 87.4549 289.099 88.5343C287.96 89.9429 286.533 88.9916 286.143 87.1988C285.784 85.5981 285.948 82.918 287.438 82.1679C287.766 82.0108 288.123 81.9524 288.475 81.9979C288.828 82.0435 289.165 82.1915 289.456 82.4287C289.748 82.6658 289.984 82.9846 290.144 83.356C290.303 83.7273 290.381 84.1396 290.371 84.5553Z" fill="#E58A7B"/>
<path d="M322.53 316.278H312.351L311.267 312.116L322.881 312.436L322.53 316.278Z" fill="#72A5D0"/>
<path d="M304.278 155.501H304.98C305.128 155.501 305.237 155.418 305.222 155.309L304.886 151.649C304.886 151.548 304.754 151.457 304.606 151.457H303.888C303.748 151.457 303.638 151.548 303.646 151.649L303.982 155.309C304.013 155.437 304.138 155.501 304.278 155.501Z" fill="#72A5D0"/>
<path d="M286.837 155.501H287.555C287.695 155.501 287.804 155.418 287.797 155.309L287.461 151.649C287.461 151.548 287.321 151.457 287.18 151.457H286.463C286.315 151.457 286.205 151.548 286.221 151.649L286.556 155.309C286.564 155.437 286.689 155.501 286.837 155.501Z" fill="#72A5D0"/>
<path d="M293.779 316.278H283.592L282.859 312.719L294.161 312.116L293.779 316.278Z" fill="#72A5D0"/>
<path d="M307.889 151.997L309.083 154.741C309.176 154.961 308.958 155.18 308.654 155.18H280.8C280.558 155.18 280.363 155.043 280.348 154.869L280.106 152.125C280.106 151.933 280.301 151.768 280.558 151.768H307.429C307.516 151.754 307.605 151.768 307.686 151.808C307.767 151.849 307.837 151.914 307.889 151.997Z" fill="#72A5D0"/>
<path opacity="0.1" d="M307.889 151.997L309.083 154.741C309.176 154.961 308.958 155.18 308.654 155.18H280.8C280.558 155.18 280.363 155.043 280.348 154.869L280.106 152.125C280.106 151.933 280.301 151.768 280.558 151.768H307.429C307.516 151.754 307.605 151.768 307.686 151.808C307.767 151.849 307.837 151.914 307.889 151.997Z" fill="black"/>
<path opacity="0.6" d="M304.278 155.501H304.98C305.128 155.501 305.237 155.418 305.222 155.309L304.886 151.649C304.886 151.548 304.754 151.457 304.606 151.457H303.888C303.748 151.457 303.638 151.548 303.646 151.649L303.982 155.309C304.013 155.437 304.138 155.501 304.278 155.501Z" fill="black"/>
<path opacity="0.6" d="M286.837 155.501H287.555C287.695 155.501 287.804 155.418 287.797 155.309L287.461 151.649C287.461 151.548 287.321 151.457 287.18 151.457H286.463C286.315 151.457 286.205 151.548 286.221 151.649L286.556 155.309C286.564 155.437 286.689 155.501 286.837 155.501Z" fill="black"/>
<path d="M277.828 107.578C275.137 108.383 273.257 121.381 273.257 121.381L283.647 129.659C283.647 129.659 287.82 114.183 285.722 110.679C283.561 107.094 281.759 106.408 277.828 107.578Z" fill="#72A5D0"/>
<path opacity="0.6" d="M277.828 107.578C275.137 108.383 273.257 121.381 273.257 121.381L283.647 129.659C283.647 129.659 287.82 114.183 285.722 110.679C283.561 107.094 281.759 106.408 277.828 107.578Z" fill="white"/>
<path d="M130.463 275.171C130.467 275.14 130.467 275.11 130.463 275.079C130.681 273.607 130.868 272.125 131.024 270.625C133.232 273.506 135.151 274.238 136.523 274.238C136.669 274.247 136.815 274.247 136.96 274.238C139.651 273.927 141.921 270.835 143.044 266.005C143.066 265.91 143.071 265.81 143.057 265.712C143.044 265.614 143.013 265.521 142.966 265.438C142.87 265.265 142.723 265.138 142.553 265.081C140.646 264.47 138.648 264.362 136.702 264.765C134.755 265.168 132.91 266.073 131.297 267.414C131.391 266.005 131.446 264.597 131.461 263.179C131.896 263.268 132.337 263.314 132.779 263.316C137.225 263.316 139.979 258.679 140.111 258.45C140.161 258.362 140.191 258.26 140.2 258.155C140.208 258.05 140.194 257.944 140.158 257.846C140.122 257.74 140.067 257.643 139.997 257.563C139.928 257.482 139.844 257.42 139.753 257.38C136.976 256.154 134.722 256.044 133.06 257.069C132.003 257.743 131.191 258.845 130.775 260.17C129.6 257.168 127.82 254.546 125.589 252.53C123.358 250.514 120.742 249.165 117.967 248.598C117.888 248.576 117.805 248.577 117.726 248.599C117.647 248.622 117.573 248.667 117.512 248.729C117.45 248.792 117.402 248.87 117.371 248.959C117.341 249.048 117.328 249.144 117.335 249.239C117.616 253.968 118.365 259.74 121.688 262.502C123.017 263.57 124.601 264.118 126.212 264.066C127.59 264.031 128.957 263.776 130.276 263.307C130.206 266.677 129.946 270.039 129.496 273.369C127.647 270.908 122.944 265.438 116.524 263.554C116.453 263.528 116.377 263.52 116.303 263.532C116.229 263.543 116.158 263.574 116.095 263.621C116.032 263.668 115.978 263.73 115.938 263.804C115.898 263.878 115.871 263.961 115.861 264.048C115.385 268.118 116.212 271.42 118.24 273.597C119.925 275.427 122.343 276.341 125.26 276.341C126.555 276.328 127.845 276.168 129.113 275.866C128.677 278.656 128.138 281.354 127.553 283.988C125.533 282.104 119.691 277.339 114.122 279.323C114.048 279.352 113.981 279.399 113.926 279.463C113.87 279.526 113.828 279.604 113.802 279.689C113.775 279.781 113.766 279.878 113.774 279.974C113.782 280.07 113.807 280.164 113.849 280.247C115.908 284.748 117.967 287.245 120.315 288.114C120.926 288.337 121.563 288.451 122.203 288.452C123.859 288.371 125.47 287.795 126.883 286.778C126.001 290.236 125.034 293.456 124.082 296.328C122.491 294.585 120.554 293.338 118.446 292.699C116.338 292.06 114.128 292.049 112.016 292.669C111.949 292.686 111.886 292.719 111.83 292.765C111.774 292.812 111.727 292.871 111.692 292.939C111.656 293.008 111.632 293.084 111.622 293.163C111.612 293.242 111.616 293.323 111.634 293.401C111.96 294.884 112.577 296.257 113.436 297.411C114.294 298.566 115.37 299.469 116.579 300.051C117.462 300.479 118.408 300.7 119.363 300.7C120.627 300.689 121.868 300.298 122.967 299.566C121.723 303.129 120.32 306.613 118.763 310.003C118.696 310.172 118.686 310.364 118.734 310.541C118.781 310.718 118.883 310.869 119.02 310.963C119.122 311.041 119.242 311.082 119.363 311.082C119.454 311.085 119.544 311.06 119.624 311.008C119.703 310.957 119.77 310.881 119.816 310.789C121.704 306.639 123.383 302.363 124.847 297.983C124.877 297.913 124.901 297.84 124.917 297.764C125.208 296.904 125.497 296.017 125.783 295.102C127.663 297.645 129.948 299.054 132.241 299.054C132.491 299.054 132.733 299.054 132.982 299.054C134.253 298.905 135.454 298.297 136.418 297.314C137.382 296.331 138.062 295.021 138.364 293.565C138.386 293.401 138.363 293.233 138.299 293.085C138.234 292.938 138.132 292.817 138.005 292.742C136.286 291.612 134.362 290.975 132.392 290.884C130.422 290.794 128.462 291.252 126.672 292.221C127.288 290.126 127.889 287.903 128.443 285.598C128.492 285.505 128.519 285.397 128.521 285.287C128.669 284.638 128.825 283.988 128.965 283.321C131.219 286.193 133.302 287.602 135.307 287.602C137.74 287.602 139.987 285.489 142.147 281.199C142.206 281.039 142.215 280.861 142.174 280.694C142.133 280.527 142.043 280.382 141.921 280.284C137.389 276.625 131.968 279.122 129.55 280.586C129.893 278.872 130.195 277.128 130.455 275.354L130.463 275.171Z" fill="#72A5D0"/>
<path opacity="0.3" d="M130.463 275.171C130.467 275.14 130.467 275.11 130.463 275.079C130.681 273.607 130.868 272.125 131.024 270.625C133.232 273.506 135.151 274.238 136.523 274.238C136.669 274.247 136.815 274.247 136.96 274.238C139.651 273.927 141.921 270.835 143.044 266.005C143.066 265.91 143.071 265.81 143.057 265.712C143.044 265.614 143.013 265.521 142.966 265.438C142.87 265.265 142.723 265.138 142.553 265.081C140.646 264.47 138.648 264.362 136.702 264.765C134.755 265.168 132.91 266.073 131.297 267.414C131.391 266.005 131.446 264.597 131.461 263.179C131.896 263.268 132.337 263.314 132.779 263.316C137.225 263.316 139.979 258.679 140.111 258.45C140.161 258.362 140.191 258.26 140.2 258.155C140.208 258.05 140.194 257.944 140.158 257.846C140.122 257.74 140.067 257.643 139.997 257.563C139.928 257.482 139.844 257.42 139.753 257.38C136.976 256.154 134.722 256.044 133.06 257.069C132.003 257.743 131.191 258.845 130.775 260.17C129.6 257.168 127.82 254.546 125.589 252.53C123.358 250.514 120.742 249.165 117.967 248.598C117.888 248.576 117.805 248.577 117.726 248.599C117.647 248.622 117.573 248.667 117.512 248.729C117.45 248.792 117.402 248.87 117.371 248.959C117.341 249.048 117.328 249.144 117.335 249.239C117.616 253.968 118.365 259.74 121.688 262.502C123.017 263.57 124.601 264.118 126.212 264.066C127.59 264.031 128.957 263.776 130.276 263.307C130.206 266.677 129.946 270.039 129.496 273.369C127.647 270.908 122.944 265.438 116.524 263.554C116.453 263.528 116.377 263.52 116.303 263.532C116.229 263.543 116.158 263.574 116.095 263.621C116.032 263.668 115.978 263.73 115.938 263.804C115.898 263.878 115.871 263.961 115.861 264.048C115.385 268.118 116.212 271.42 118.24 273.597C119.925 275.427 122.343 276.341 125.26 276.341C126.555 276.328 127.845 276.168 129.113 275.866C128.677 278.656 128.138 281.354 127.553 283.988C125.533 282.104 119.691 277.339 114.122 279.323C114.048 279.352 113.981 279.399 113.926 279.463C113.87 279.526 113.828 279.604 113.802 279.689C113.775 279.781 113.766 279.878 113.774 279.974C113.782 280.07 113.807 280.164 113.849 280.247C115.908 284.748 117.967 287.245 120.315 288.114C120.926 288.337 121.563 288.451 122.203 288.452C123.859 288.371 125.47 287.795 126.883 286.778C126.001 290.236 125.034 293.456 124.082 296.328C122.491 294.585 120.554 293.338 118.446 292.699C116.338 292.06 114.128 292.049 112.016 292.669C111.949 292.686 111.886 292.719 111.83 292.765C111.774 292.812 111.727 292.871 111.692 292.939C111.656 293.008 111.632 293.084 111.622 293.163C111.612 293.242 111.616 293.323 111.634 293.401C111.96 294.884 112.577 296.257 113.436 297.411C114.294 298.566 115.37 299.469 116.579 300.051C117.462 300.479 118.408 300.7 119.363 300.7C120.627 300.689 121.868 300.298 122.967 299.566C121.723 303.129 120.32 306.613 118.763 310.003C118.696 310.172 118.686 310.364 118.734 310.541C118.781 310.718 118.883 310.869 119.02 310.963C119.122 311.041 119.242 311.082 119.363 311.082C119.454 311.085 119.544 311.06 119.624 311.008C119.703 310.957 119.77 310.881 119.816 310.789C121.704 306.639 123.383 302.363 124.847 297.983C124.877 297.913 124.901 297.84 124.917 297.764C125.208 296.904 125.497 296.017 125.783 295.102C127.663 297.645 129.948 299.054 132.241 299.054C132.491 299.054 132.733 299.054 132.982 299.054C134.253 298.905 135.454 298.297 136.418 297.314C137.382 296.331 138.062 295.021 138.364 293.565C138.386 293.401 138.363 293.233 138.299 293.085C138.234 292.938 138.132 292.817 138.005 292.742C136.286 291.612 134.362 290.975 132.392 290.884C130.422 290.794 128.462 291.252 126.672 292.221C127.288 290.126 127.889 287.903 128.443 285.598C128.492 285.505 128.519 285.397 128.521 285.287C128.669 284.638 128.825 283.988 128.965 283.321C131.219 286.193 133.302 287.602 135.307 287.602C137.74 287.602 139.987 285.489 142.147 281.199C142.206 281.039 142.215 280.861 142.174 280.694C142.133 280.527 142.043 280.382 141.921 280.284C137.389 276.625 131.968 279.122 129.55 280.586C129.893 278.872 130.195 277.128 130.455 275.354L130.463 275.171Z" fill="black"/>
<path d="M102.18 293.712C103.021 294.021 103.896 294.185 104.777 294.197C105.896 294.19 107.001 293.904 108.018 293.357C109.035 292.81 109.941 292.014 110.675 291.024C111.409 290.033 111.954 288.87 112.274 287.613C112.594 286.356 112.682 285.033 112.531 283.732C112.504 283.59 112.434 283.465 112.333 283.38C112.232 283.295 112.108 283.258 111.985 283.275C109.829 283.555 107.753 284.393 105.907 285.73C104.061 287.067 102.493 288.869 101.314 291.004C100.331 287.839 99.411 284.473 98.6388 280.988C99.8993 281.862 101.325 282.356 102.788 282.424C103.39 282.427 103.988 282.315 104.559 282.095C107.593 280.915 109.676 276.671 111.478 272.253C111.51 272.173 111.527 272.085 111.527 271.997C111.527 271.908 111.51 271.821 111.478 271.741C111.451 271.661 111.409 271.59 111.355 271.533C111.301 271.475 111.236 271.434 111.166 271.411C105.23 269.426 99.8322 276.232 98.1318 278.665C97.5362 275.714 97.0779 272.728 96.759 269.719C98.0164 270.001 99.2931 270.148 100.573 270.158C103.693 270.158 106.158 269.189 107.827 267.277C109.808 265.017 110.487 261.633 109.801 257.499C109.787 257.419 109.76 257.343 109.72 257.277C109.68 257.21 109.628 257.154 109.569 257.113C109.509 257.071 109.443 257.045 109.374 257.036C109.305 257.027 109.235 257.035 109.169 257.06C102.835 259.035 98.3658 264.56 96.5406 267.176C96.5406 266.637 96.4626 266.097 96.4314 265.557C96.422 265.422 96.3755 265.293 96.2988 265.191C96.1407 264.178 95.791 263.219 95.2754 262.385C94.7598 261.55 94.0913 260.862 93.3192 260.371C91.5876 259.365 89.3022 259.511 86.541 260.801C86.4593 260.838 86.3855 260.896 86.3249 260.97C86.2642 261.044 86.2182 261.133 86.19 261.231C86.1621 261.325 86.1539 261.426 86.1661 261.524C86.1783 261.623 86.2106 261.717 86.2602 261.798C86.4006 262.017 89.3802 266.609 93.8418 266.609C94.3236 266.607 94.8041 266.552 95.277 266.444C95.3706 267.932 95.5032 269.423 95.6748 270.917C93.9938 269.577 92.0834 268.684 90.0773 268.3C88.0712 267.916 86.0177 268.051 84.0606 268.695C83.9835 268.717 83.9111 268.758 83.848 268.814C83.7849 268.871 83.7325 268.942 83.694 269.024C83.6549 269.102 83.6299 269.188 83.6205 269.278C83.6111 269.368 83.6175 269.459 83.6394 269.545C85.02 274.466 87.477 277.567 90.2226 277.832C90.3473 277.842 90.4723 277.842 90.597 277.832C92.001 277.832 93.9432 277.082 96.057 274.046C96.5738 277.468 97.2508 280.855 98.085 284.19C95.5734 282.744 89.895 280.256 85.449 284.043C85.3862 284.09 85.3319 284.15 85.2892 284.222C85.2465 284.293 85.2163 284.374 85.2004 284.459C85.1844 284.544 85.183 284.632 85.1962 284.717C85.2095 284.803 85.237 284.885 85.2774 284.958C87.672 289.285 90.0276 291.361 92.4768 291.361H92.5392C94.575 291.361 96.6264 289.87 98.7792 286.897C99.6606 290.154 100.628 293.245 101.618 296.117C99.1536 294.224 96.2676 294.526 92.7108 297.032C92.6337 297.09 92.5681 297.166 92.5183 297.256C92.4685 297.346 92.4357 297.447 92.4222 297.554C92.4127 297.653 92.4248 297.754 92.4576 297.847C92.4903 297.94 92.5425 298.021 92.6094 298.084C92.7888 298.249 95.823 300.929 99.216 300.929C100.519 300.943 101.796 300.501 102.882 299.657C104.802 304.89 107.014 309.969 109.504 314.86C109.554 314.952 109.623 315.027 109.705 315.078C109.787 315.13 109.879 315.155 109.972 315.152C110.098 315.154 110.22 315.109 110.323 315.024C110.46 314.926 110.559 314.768 110.598 314.585C110.638 314.402 110.615 314.209 110.534 314.046C107.269 307.554 104.475 300.752 102.18 293.712Z" fill="#72A5D0"/>
<path opacity="0.5" d="M102.18 293.712C103.021 294.021 103.896 294.185 104.777 294.197C105.896 294.19 107.001 293.904 108.018 293.357C109.035 292.81 109.941 292.014 110.675 291.024C111.409 290.033 111.954 288.87 112.274 287.613C112.594 286.356 112.682 285.033 112.531 283.732C112.504 283.59 112.434 283.465 112.333 283.38C112.232 283.295 112.108 283.258 111.985 283.275C109.829 283.555 107.753 284.393 105.907 285.73C104.061 287.067 102.493 288.869 101.314 291.004C100.331 287.839 99.411 284.473 98.6388 280.988C99.8993 281.862 101.325 282.356 102.788 282.424C103.39 282.427 103.988 282.315 104.559 282.095C107.593 280.915 109.676 276.671 111.478 272.253C111.51 272.173 111.527 272.085 111.527 271.997C111.527 271.908 111.51 271.821 111.478 271.741C111.451 271.661 111.409 271.59 111.355 271.533C111.301 271.475 111.236 271.434 111.166 271.411C105.23 269.426 99.8322 276.232 98.1318 278.665C97.5362 275.714 97.0779 272.728 96.759 269.719C98.0164 270.001 99.2931 270.148 100.573 270.158C103.693 270.158 106.158 269.189 107.827 267.277C109.808 265.017 110.487 261.633 109.801 257.499C109.787 257.419 109.76 257.343 109.72 257.277C109.68 257.21 109.628 257.154 109.569 257.113C109.509 257.071 109.443 257.045 109.374 257.036C109.305 257.027 109.235 257.035 109.169 257.06C102.835 259.035 98.3658 264.56 96.5406 267.176C96.5406 266.637 96.4626 266.097 96.4314 265.557C96.422 265.422 96.3755 265.293 96.2988 265.191C96.1407 264.178 95.791 263.219 95.2754 262.385C94.7598 261.55 94.0913 260.862 93.3192 260.371C91.5876 259.365 89.3022 259.511 86.541 260.801C86.4593 260.838 86.3855 260.896 86.3249 260.97C86.2642 261.044 86.2182 261.133 86.19 261.231C86.1621 261.325 86.1539 261.426 86.1661 261.524C86.1783 261.623 86.2106 261.717 86.2602 261.798C86.4006 262.017 89.3802 266.609 93.8418 266.609C94.3236 266.607 94.8041 266.552 95.277 266.444C95.3706 267.932 95.5032 269.423 95.6748 270.917C93.9938 269.577 92.0834 268.684 90.0773 268.3C88.0712 267.916 86.0177 268.051 84.0606 268.695C83.9835 268.717 83.9111 268.758 83.848 268.814C83.7849 268.871 83.7325 268.942 83.694 269.024C83.6549 269.102 83.6299 269.188 83.6205 269.278C83.6111 269.368 83.6175 269.459 83.6394 269.545C85.02 274.466 87.477 277.567 90.2226 277.832C90.3473 277.842 90.4723 277.842 90.597 277.832C92.001 277.832 93.9432 277.082 96.057 274.046C96.5738 277.468 97.2508 280.855 98.085 284.19C95.5734 282.744 89.895 280.256 85.449 284.043C85.3862 284.09 85.3319 284.15 85.2892 284.222C85.2465 284.293 85.2163 284.374 85.2004 284.459C85.1844 284.544 85.183 284.632 85.1962 284.717C85.2095 284.803 85.237 284.885 85.2774 284.958C87.672 289.285 90.0276 291.361 92.4768 291.361H92.5392C94.575 291.361 96.6264 289.87 98.7792 286.897C99.6606 290.154 100.628 293.245 101.618 296.117C99.1536 294.224 96.2676 294.526 92.7108 297.032C92.6337 297.09 92.5681 297.166 92.5183 297.256C92.4685 297.346 92.4357 297.447 92.4222 297.554C92.4127 297.653 92.4248 297.754 92.4576 297.847C92.4903 297.94 92.5425 298.021 92.6094 298.084C92.7888 298.249 95.823 300.929 99.216 300.929C100.519 300.943 101.796 300.501 102.882 299.657C104.802 304.89 107.014 309.969 109.504 314.86C109.554 314.952 109.623 315.027 109.705 315.078C109.787 315.13 109.879 315.155 109.972 315.152C110.098 315.154 110.22 315.109 110.323 315.024C110.46 314.926 110.559 314.768 110.598 314.585C110.638 314.402 110.615 314.209 110.534 314.046C107.269 307.554 104.475 300.752 102.18 293.712Z" fill="white"/>
<path d="M123.63 330.428H105.05L103.646 307.899H125.034L123.63 330.428Z" fill="#263238"/>
<path d="M126.415 306.38H102.258V310.195H126.415V306.38Z" fill="#263238"/>
<path d="M115.44 197.183H72.5478C69.5366 197.183 67.0956 200.045 67.0956 203.577V324.034C67.0956 327.565 69.5366 330.428 72.5478 330.428H115.44C118.451 330.428 120.892 327.565 120.892 324.034V203.577C120.892 200.045 118.451 197.183 115.44 197.183Z" fill="#72A5D0"/>
<path opacity="0.6" d="M115.44 197.183H72.5478C69.5366 197.183 67.0956 200.045 67.0956 203.577V324.034C67.0956 327.565 69.5366 330.428 72.5478 330.428H115.44C118.451 330.428 120.892 327.565 120.892 324.034V203.577C120.892 200.045 118.451 197.183 115.44 197.183Z" fill="black"/>
<path d="M112.827 197.183H69.9347C66.9236 197.183 64.4825 200.045 64.4825 203.577V324.034C64.4825 327.565 66.9236 330.428 69.9347 330.428H112.827C115.838 330.428 118.279 327.565 118.279 324.034V203.577C118.279 200.045 115.838 197.183 112.827 197.183Z" fill="#72A5D0"/>
<path opacity="0.3" d="M112.827 197.183H69.9347C66.9236 197.183 64.4825 200.045 64.4825 203.577V324.034C64.4825 327.565 66.9236 330.428 69.9347 330.428H112.827C115.838 330.428 118.279 327.565 118.279 324.034V203.577C118.279 200.045 115.838 197.183 112.827 197.183Z" fill="black"/>
<path d="M118.279 204.519H64.4826V319.022H118.279V204.519Z" fill="#FAFAFA"/>
<path opacity="0.18" d="M118.31 204.281H64.5138V318.784H118.31V204.281Z" fill="#72A5D0"/>
<path opacity="0.4" d="M84.006 204.528L66.5574 319.031H83.8344L101.291 204.528H84.006Z" fill="white"/>
<path opacity="0.4" d="M105.503 204.528L88.0541 319.031H96.6965L114.145 204.528H105.503Z" fill="white"/>
<path d="M93.8106 324.327C93.8106 324.889 93.6683 325.439 93.4018 325.907C93.1352 326.375 92.7564 326.74 92.3131 326.955C91.8698 327.17 91.3821 327.227 90.9115 327.117C90.441 327.007 90.0087 326.736 89.6695 326.338C89.3302 325.94 89.0992 325.434 89.0056 324.882C88.912 324.33 88.96 323.758 89.1436 323.238C89.3272 322.718 89.6382 322.274 90.0371 321.961C90.436 321.649 90.905 321.482 91.3848 321.482C92.0282 321.482 92.6452 321.782 93.1001 322.315C93.555 322.849 93.8106 323.572 93.8106 324.327Z" fill="#72A5D0"/>
<path opacity="0.5" d="M93.8106 324.327C93.8106 324.889 93.6683 325.439 93.4018 325.907C93.1352 326.375 92.7564 326.74 92.3131 326.955C91.8698 327.17 91.3821 327.227 90.9115 327.117C90.441 327.007 90.0087 326.736 89.6695 326.338C89.3302 325.94 89.0992 325.434 89.0056 324.882C88.912 324.33 88.96 323.758 89.1436 323.238C89.3272 322.718 89.6382 322.274 90.0371 321.961C90.436 321.649 90.905 321.482 91.3848 321.482C92.0282 321.482 92.6452 321.782 93.1001 322.315C93.555 322.849 93.8106 323.572 93.8106 324.327Z" fill="black"/>
<path d="M97.7418 201.565C98.2156 201.565 98.5998 201.114 98.5998 200.558C98.5998 200.002 98.2156 199.552 97.7418 199.552C97.2679 199.552 96.8838 200.002 96.8838 200.558C96.8838 201.114 97.2679 201.565 97.7418 201.565Z" fill="#72A5D0"/>
<path d="M94.2396 201.565H85.02C84.7925 201.565 84.5743 201.459 84.4134 201.27C84.2524 201.081 84.162 200.825 84.162 200.558C84.1641 200.292 84.2551 200.038 84.4156 199.849C84.5761 199.661 84.7931 199.554 85.02 199.552H94.2318C94.4588 199.554 94.6758 199.661 94.8363 199.849C94.9968 200.038 95.0878 200.292 95.0899 200.558C95.0899 200.824 95.0005 201.078 94.8413 201.267C94.6821 201.455 94.4658 201.562 94.2396 201.565Z" fill="#72A5D0"/>
<path opacity="0.5" d="M97.7418 201.565C98.2156 201.565 98.5998 201.114 98.5998 200.558C98.5998 200.002 98.2156 199.552 97.7418 199.552C97.2679 199.552 96.8838 200.002 96.8838 200.558C96.8838 201.114 97.2679 201.565 97.7418 201.565Z" fill="black"/>
<path opacity="0.5" d="M94.2396 201.565H85.02C84.7925 201.565 84.5743 201.459 84.4134 201.27C84.2524 201.081 84.162 200.825 84.162 200.558C84.1641 200.292 84.2551 200.038 84.4156 199.849C84.5761 199.661 84.7931 199.554 85.02 199.552H94.2318C94.4588 199.554 94.6758 199.661 94.8363 199.849C94.9968 200.038 95.0878 200.292 95.0899 200.558C95.0899 200.824 95.0005 201.078 94.8413 201.267C94.6821 201.455 94.4658 201.562 94.2396 201.565Z" fill="black"/>
</svg>
