<svg width="328" height="254" viewBox="0 0 328 254" fill="none" xmlns="http://www.w3.org/2000/svg">
<rect x="1.5" y="1.5" width="325" height="251" rx="47.5" stroke="#5F94C0" stroke-width="3"/>
<rect x="15" y="199" width="287" height="29" rx="14.5" fill="#EBEBEB"/>
<path d="M30.59 218L28.27 211H29.62L31.69 217.33H31.02L33.17 211H34.37L36.46 217.33H35.81L37.93 211H39.17L36.85 218H35.47L33.56 212.29H33.92L31.98 218H30.59Z" fill="#A2A2A2"/>
<path d="M40.054 218V212.66H41.244V214.13L41.104 213.7C41.264 213.34 41.514 213.067 41.854 212.88C42.2006 212.693 42.6306 212.6 43.144 212.6V213.79C43.0906 213.777 43.0406 213.77 42.994 213.77C42.9473 213.763 42.9006 213.76 42.854 213.76C42.3806 213.76 42.004 213.9 41.724 214.18C41.444 214.453 41.304 214.863 41.304 215.41V218H40.054Z" fill="#A2A2A2"/>
<path d="M44.3544 218V212.66H45.6044V218H44.3544ZM44.9844 211.78C44.751 211.78 44.5577 211.707 44.4044 211.56C44.2577 211.413 44.1844 211.237 44.1844 211.03C44.1844 210.817 44.2577 210.64 44.4044 210.5C44.5577 210.353 44.751 210.28 44.9844 210.28C45.2177 210.28 45.4077 210.35 45.5544 210.49C45.7077 210.623 45.7844 210.793 45.7844 211C45.7844 211.22 45.711 211.407 45.5644 211.56C45.4177 211.707 45.2244 211.78 44.9844 211.78Z" fill="#A2A2A2"/>
<path d="M49.405 218.07C48.8183 218.07 48.365 217.92 48.045 217.62C47.725 217.313 47.565 216.863 47.565 216.27V211.48H48.815V216.24C48.815 216.493 48.8783 216.69 49.005 216.83C49.1383 216.97 49.3217 217.04 49.555 217.04C49.835 217.04 50.0683 216.967 50.255 216.82L50.605 217.71C50.4583 217.83 50.2783 217.92 50.065 217.98C49.8517 218.04 49.6317 218.07 49.405 218.07ZM46.685 213.7V212.7H50.245V213.7H46.685Z" fill="#A2A2A2"/>
<path d="M54.1175 218.07C53.5242 218.07 53.0042 217.953 52.5575 217.72C52.1175 217.48 51.7742 217.153 51.5275 216.74C51.2875 216.327 51.1675 215.857 51.1675 215.33C51.1675 214.797 51.2842 214.327 51.5175 213.92C51.7575 213.507 52.0842 213.183 52.4975 212.95C52.9175 212.717 53.3942 212.6 53.9275 212.6C54.4475 212.6 54.9108 212.713 55.3175 212.94C55.7242 213.167 56.0442 213.487 56.2775 213.9C56.5108 214.313 56.6275 214.8 56.6275 215.36C56.6275 215.413 56.6242 215.473 56.6175 215.54C56.6175 215.607 56.6142 215.67 56.6075 215.73H52.1575V214.9H55.9475L55.4575 215.16C55.4642 214.853 55.4008 214.583 55.2675 214.35C55.1342 214.117 54.9508 213.933 54.7175 213.8C54.4908 213.667 54.2275 213.6 53.9275 213.6C53.6208 213.6 53.3508 213.667 53.1175 213.8C52.8908 213.933 52.7108 214.12 52.5775 214.36C52.4508 214.593 52.3875 214.87 52.3875 215.19V215.39C52.3875 215.71 52.4608 215.993 52.6075 216.24C52.7542 216.487 52.9608 216.677 53.2275 216.81C53.4942 216.943 53.8008 217.01 54.1475 217.01C54.4475 217.01 54.7175 216.963 54.9575 216.87C55.1975 216.777 55.4108 216.63 55.5975 216.43L56.2675 217.2C56.0275 217.48 55.7242 217.697 55.3575 217.85C54.9975 217.997 54.5842 218.07 54.1175 218.07Z" fill="#A2A2A2"/>
<path d="M64.1819 218V216.92L64.1119 216.69V214.8C64.1119 214.433 64.0019 214.15 63.7819 213.95C63.5619 213.743 63.2285 213.64 62.7819 213.64C62.4819 213.64 62.1852 213.687 61.8919 213.78C61.6052 213.873 61.3619 214.003 61.1619 214.17L60.6719 213.26C60.9585 213.04 61.2985 212.877 61.6919 212.77C62.0919 212.657 62.5052 212.6 62.9319 212.6C63.7052 212.6 64.3019 212.787 64.7219 213.16C65.1485 213.527 65.3619 214.097 65.3619 214.87V218H64.1819ZM62.5019 218.07C62.1019 218.07 61.7519 218.003 61.4519 217.87C61.1519 217.73 60.9185 217.54 60.7519 217.3C60.5919 217.053 60.5119 216.777 60.5119 216.47C60.5119 216.17 60.5819 215.9 60.7219 215.66C60.8685 215.42 61.1052 215.23 61.4319 215.09C61.7585 214.95 62.1919 214.88 62.7319 214.88H64.2819V215.71H62.8219C62.3952 215.71 62.1085 215.78 61.9619 215.92C61.8152 216.053 61.7419 216.22 61.7419 216.42C61.7419 216.647 61.8319 216.827 62.0119 216.96C62.1919 217.093 62.4419 217.16 62.7619 217.16C63.0685 217.16 63.3419 217.09 63.5819 216.95C63.8285 216.81 64.0052 216.603 64.1119 216.33L64.3219 217.08C64.2019 217.393 63.9852 217.637 63.6719 217.81C63.3652 217.983 62.9752 218.07 62.5019 218.07Z" fill="#A2A2A2"/>
<path d="M72.0398 218.07C71.4531 218.07 70.9998 217.92 70.6798 217.62C70.3598 217.313 70.1998 216.863 70.1998 216.27V211.48H71.4498V216.24C71.4498 216.493 71.5131 216.69 71.6398 216.83C71.7731 216.97 71.9564 217.04 72.1898 217.04C72.4698 217.04 72.7031 216.967 72.8898 216.82L73.2398 217.71C73.0931 217.83 72.9131 217.92 72.6998 217.98C72.4864 218.04 72.2664 218.07 72.0398 218.07ZM69.3198 213.7V212.7H72.8798V213.7H69.3198Z" fill="#A2A2A2"/>
<path d="M76.6423 218.07C76.0956 218.07 75.6089 217.953 75.1823 217.72C74.7556 217.48 74.4189 217.153 74.1723 216.74C73.9256 216.327 73.8023 215.857 73.8023 215.33C73.8023 214.797 73.9256 214.327 74.1723 213.92C74.4189 213.507 74.7556 213.183 75.1823 212.95C75.6089 212.717 76.0956 212.6 76.6423 212.6C77.1956 212.6 77.6856 212.717 78.1123 212.95C78.5456 213.183 78.8823 213.503 79.1223 213.91C79.3689 214.317 79.4923 214.79 79.4923 215.33C79.4923 215.857 79.3689 216.327 79.1223 216.74C78.8823 217.153 78.5456 217.48 78.1123 217.72C77.6856 217.953 77.1956 218.07 76.6423 218.07ZM76.6423 217C76.9489 217 77.2223 216.933 77.4623 216.8C77.7023 216.667 77.8889 216.473 78.0223 216.22C78.1623 215.967 78.2323 215.67 78.2323 215.33C78.2323 214.983 78.1623 214.687 78.0223 214.44C77.8889 214.187 77.7023 213.993 77.4623 213.86C77.2223 213.727 76.9523 213.66 76.6523 213.66C76.3456 213.66 76.0723 213.727 75.8323 213.86C75.5989 213.993 75.4123 214.187 75.2723 214.44C75.1323 214.687 75.0623 214.983 75.0623 215.33C75.0623 215.67 75.1323 215.967 75.2723 216.22C75.4123 216.473 75.5989 216.667 75.8323 216.8C76.0723 216.933 76.3423 217 76.6423 217Z" fill="#A2A2A2"/>
<path d="M83.7976 218.07C83.3642 218.07 82.9676 217.97 82.6076 217.77C82.2542 217.57 81.9709 217.27 81.7576 216.87C81.5509 216.463 81.4476 215.95 81.4476 215.33C81.4476 214.703 81.5476 214.19 81.7476 213.79C81.9542 213.39 82.2342 213.093 82.5876 212.9C82.9409 212.7 83.3442 212.6 83.7976 212.6C84.3242 212.6 84.7876 212.713 85.1876 212.94C85.5942 213.167 85.9142 213.483 86.1476 213.89C86.3876 214.297 86.5076 214.777 86.5076 215.33C86.5076 215.883 86.3876 216.367 86.1476 216.78C85.9142 217.187 85.5942 217.503 85.1876 217.73C84.7876 217.957 84.3242 218.07 83.7976 218.07ZM80.8376 219.94V212.66H82.0276V213.92L81.9876 215.34L82.0876 216.76V219.94H80.8376ZM83.6576 217C83.9576 217 84.2242 216.933 84.4576 216.8C84.6976 216.667 84.8876 216.473 85.0276 216.22C85.1676 215.967 85.2376 215.67 85.2376 215.33C85.2376 214.983 85.1676 214.687 85.0276 214.44C84.8876 214.187 84.6976 213.993 84.4576 213.86C84.2242 213.727 83.9576 213.66 83.6576 213.66C83.3576 213.66 83.0876 213.727 82.8476 213.86C82.6076 213.993 82.4176 214.187 82.2776 214.44C82.1376 214.687 82.0676 214.983 82.0676 215.33C82.0676 215.67 82.1376 215.967 82.2776 216.22C82.4176 216.473 82.6076 216.667 82.8476 216.8C83.0876 216.933 83.3576 217 83.6576 217Z" fill="#A2A2A2"/>
<path d="M87.843 218V212.66H89.093V218H87.843ZM88.473 211.78C88.2397 211.78 88.0464 211.707 87.893 211.56C87.7464 211.413 87.673 211.237 87.673 211.03C87.673 210.817 87.7464 210.64 87.893 210.5C88.0464 210.353 88.2397 210.28 88.473 210.28C88.7064 210.28 88.8964 210.35 89.043 210.49C89.1964 210.623 89.273 210.793 89.273 211C89.273 211.22 89.1997 211.407 89.053 211.56C88.9064 211.707 88.713 211.78 88.473 211.78Z" fill="#A2A2A2"/>
<path d="M93.3337 218.07C92.7737 218.07 92.2737 217.953 91.8337 217.72C91.4003 217.48 91.0603 217.153 90.8137 216.74C90.567 216.327 90.4437 215.857 90.4437 215.33C90.4437 214.797 90.567 214.327 90.8137 213.92C91.0603 213.507 91.4003 213.183 91.8337 212.95C92.2737 212.717 92.7737 212.6 93.3337 212.6C93.8537 212.6 94.3103 212.707 94.7037 212.92C95.1037 213.127 95.407 213.433 95.6137 213.84L94.6537 214.4C94.4937 214.147 94.297 213.96 94.0637 213.84C93.837 213.72 93.5903 213.66 93.3237 213.66C93.017 213.66 92.7403 213.727 92.4937 213.86C92.247 213.993 92.0537 214.187 91.9137 214.44C91.7737 214.687 91.7037 214.983 91.7037 215.33C91.7037 215.677 91.7737 215.977 91.9137 216.23C92.0537 216.477 92.247 216.667 92.4937 216.8C92.7403 216.933 93.017 217 93.3237 217C93.5903 217 93.837 216.94 94.0637 216.82C94.297 216.7 94.4937 216.513 94.6537 216.26L95.6137 216.82C95.407 217.22 95.1037 217.53 94.7037 217.75C94.3103 217.963 93.8537 218.07 93.3337 218.07Z" fill="#A2A2A2"/>
<path d="M103.048 218V216.92L102.978 216.69V214.8C102.978 214.433 102.868 214.15 102.648 213.95C102.428 213.743 102.095 213.64 101.648 213.64C101.348 213.64 101.051 213.687 100.758 213.78C100.471 213.873 100.228 214.003 100.028 214.17L99.5379 213.26C99.8245 213.04 100.165 212.877 100.558 212.77C100.958 212.657 101.371 212.6 101.798 212.6C102.571 212.6 103.168 212.787 103.588 213.16C104.015 213.527 104.228 214.097 104.228 214.87V218H103.048ZM101.368 218.07C100.968 218.07 100.618 218.003 100.318 217.87C100.018 217.73 99.7845 217.54 99.6179 217.3C99.4579 217.053 99.3779 216.777 99.3779 216.47C99.3779 216.17 99.4479 215.9 99.5879 215.66C99.7345 215.42 99.9712 215.23 100.298 215.09C100.625 214.95 101.058 214.88 101.598 214.88H103.148V215.71H101.688C101.261 215.71 100.975 215.78 100.828 215.92C100.681 216.053 100.608 216.22 100.608 216.42C100.608 216.647 100.698 216.827 100.878 216.96C101.058 217.093 101.308 217.16 101.628 217.16C101.935 217.16 102.208 217.09 102.448 216.95C102.695 216.81 102.871 216.603 102.978 216.33L103.188 217.08C103.068 217.393 102.851 217.637 102.538 217.81C102.231 217.983 101.841 218.07 101.368 218.07Z" fill="#A2A2A2"/>
<path d="M109.012 212.6C109.439 212.6 109.819 212.683 110.152 212.85C110.492 213.017 110.759 213.273 110.952 213.62C111.145 213.96 111.242 214.4 111.242 214.94V218H109.992V215.1C109.992 214.627 109.879 214.273 109.652 214.04C109.432 213.807 109.122 213.69 108.722 213.69C108.429 213.69 108.169 213.75 107.942 213.87C107.715 213.99 107.539 214.17 107.412 214.41C107.292 214.643 107.232 214.94 107.232 215.3V218H105.982V212.66H107.172V214.1L106.962 213.66C107.149 213.32 107.419 213.06 107.772 212.88C108.132 212.693 108.545 212.6 109.012 212.6Z" fill="#A2A2A2"/>
<path d="M115.248 218.07C114.734 218.07 114.271 217.957 113.858 217.73C113.451 217.497 113.131 217.177 112.898 216.77C112.664 216.363 112.548 215.883 112.548 215.33C112.548 214.777 112.664 214.297 112.898 213.89C113.131 213.483 113.451 213.167 113.858 212.94C114.271 212.713 114.734 212.6 115.248 212.6C115.694 212.6 116.094 212.7 116.448 212.9C116.801 213.093 117.081 213.39 117.288 213.79C117.494 214.19 117.598 214.703 117.598 215.33C117.598 215.95 117.498 216.463 117.298 216.87C117.098 217.27 116.821 217.57 116.468 217.77C116.114 217.97 115.708 218.07 115.248 218.07ZM115.398 217C115.698 217 115.964 216.933 116.198 216.8C116.438 216.667 116.628 216.473 116.768 216.22C116.914 215.967 116.988 215.67 116.988 215.33C116.988 214.983 116.914 214.687 116.768 214.44C116.628 214.187 116.438 213.993 116.198 213.86C115.964 213.727 115.698 213.66 115.398 213.66C115.098 213.66 114.828 213.727 114.588 213.86C114.354 213.993 114.164 214.187 114.018 214.44C113.878 214.687 113.808 214.983 113.808 215.33C113.808 215.67 113.878 215.967 114.018 216.22C114.164 216.473 114.354 216.667 114.588 216.8C114.828 216.933 115.098 217 115.398 217ZM117.018 218V216.74L117.068 215.32L116.968 213.9V210.58H118.208V218H117.018Z" fill="#A2A2A2"/>
<path d="M126.206 218V216.92L126.136 216.69V214.8C126.136 214.433 126.026 214.15 125.806 213.95C125.586 213.743 125.253 213.64 124.806 213.64C124.506 213.64 124.21 213.687 123.916 213.78C123.63 213.873 123.386 214.003 123.186 214.17L122.696 213.26C122.983 213.04 123.323 212.877 123.716 212.77C124.116 212.657 124.53 212.6 124.956 212.6C125.73 212.6 126.326 212.787 126.746 213.16C127.173 213.527 127.386 214.097 127.386 214.87V218H126.206ZM124.526 218.07C124.126 218.07 123.776 218.003 123.476 217.87C123.176 217.73 122.943 217.54 122.776 217.3C122.616 217.053 122.536 216.777 122.536 216.47C122.536 216.17 122.606 215.9 122.746 215.66C122.893 215.42 123.13 215.23 123.456 215.09C123.783 214.95 124.216 214.88 124.756 214.88H126.306V215.71H124.846C124.42 215.71 124.133 215.78 123.986 215.92C123.84 216.053 123.766 216.22 123.766 216.42C123.766 216.647 123.856 216.827 124.036 216.96C124.216 217.093 124.466 217.16 124.786 217.16C125.093 217.16 125.366 217.09 125.606 216.95C125.853 216.81 126.03 216.603 126.136 216.33L126.346 217.08C126.226 217.393 126.01 217.637 125.696 217.81C125.39 217.983 125 218.07 124.526 218.07Z" fill="#A2A2A2"/>
<path d="M133.704 218.07C133.258 218.07 132.828 218.013 132.414 217.9C132.008 217.78 131.684 217.637 131.444 217.47L131.924 216.52C132.164 216.673 132.451 216.8 132.784 216.9C133.118 217 133.451 217.05 133.784 217.05C134.178 217.05 134.461 216.997 134.634 216.89C134.814 216.783 134.904 216.64 134.904 216.46C134.904 216.313 134.844 216.203 134.724 216.13C134.604 216.05 134.448 215.99 134.254 215.95C134.061 215.91 133.844 215.873 133.604 215.84C133.371 215.807 133.134 215.763 132.894 215.71C132.661 215.65 132.448 215.567 132.254 215.46C132.061 215.347 131.904 215.197 131.784 215.01C131.664 214.823 131.604 214.577 131.604 214.27C131.604 213.93 131.701 213.637 131.894 213.39C132.088 213.137 132.358 212.943 132.704 212.81C133.058 212.67 133.474 212.6 133.954 212.6C134.314 212.6 134.678 212.64 135.044 212.72C135.411 212.8 135.714 212.913 135.954 213.06L135.474 214.01C135.221 213.857 134.964 213.753 134.704 213.7C134.451 213.64 134.198 213.61 133.944 213.61C133.564 213.61 133.281 213.667 133.094 213.78C132.914 213.893 132.824 214.037 132.824 214.21C132.824 214.37 132.884 214.49 133.004 214.57C133.124 214.65 133.281 214.713 133.474 214.76C133.668 214.807 133.881 214.847 134.114 214.88C134.354 214.907 134.591 214.95 134.824 215.01C135.058 215.07 135.271 215.153 135.464 215.26C135.664 215.36 135.824 215.503 135.944 215.69C136.064 215.877 136.124 216.12 136.124 216.42C136.124 216.753 136.024 217.043 135.824 217.29C135.631 217.537 135.354 217.73 134.994 217.87C134.634 218.003 134.204 218.07 133.704 218.07Z" fill="#A2A2A2"/>
<path d="M140.381 212.6C140.808 212.6 141.188 212.683 141.521 212.85C141.861 213.017 142.128 213.273 142.321 213.62C142.514 213.96 142.611 214.4 142.611 214.94V218H141.361V215.1C141.361 214.627 141.248 214.273 141.021 214.04C140.801 213.807 140.491 213.69 140.091 213.69C139.798 213.69 139.538 213.75 139.311 213.87C139.084 213.99 138.908 214.17 138.781 214.41C138.661 214.643 138.601 214.94 138.601 215.3V218H137.351V210.58H138.601V214.1L138.331 213.66C138.518 213.32 138.788 213.06 139.141 212.88C139.501 212.693 139.914 212.6 140.381 212.6Z" fill="#A2A2A2"/>
<path d="M146.756 218.07C146.21 218.07 145.723 217.953 145.296 217.72C144.87 217.48 144.533 217.153 144.286 216.74C144.04 216.327 143.916 215.857 143.916 215.33C143.916 214.797 144.04 214.327 144.286 213.92C144.533 213.507 144.87 213.183 145.296 212.95C145.723 212.717 146.21 212.6 146.756 212.6C147.31 212.6 147.8 212.717 148.226 212.95C148.66 213.183 148.996 213.503 149.236 213.91C149.483 214.317 149.606 214.79 149.606 215.33C149.606 215.857 149.483 216.327 149.236 216.74C148.996 217.153 148.66 217.48 148.226 217.72C147.8 217.953 147.31 218.07 146.756 218.07ZM146.756 217C147.063 217 147.336 216.933 147.576 216.8C147.816 216.667 148.003 216.473 148.136 216.22C148.276 215.967 148.346 215.67 148.346 215.33C148.346 214.983 148.276 214.687 148.136 214.44C148.003 214.187 147.816 213.993 147.576 213.86C147.336 213.727 147.066 213.66 146.766 213.66C146.46 213.66 146.186 213.727 145.946 213.86C145.713 213.993 145.526 214.187 145.386 214.44C145.246 214.687 145.176 214.983 145.176 215.33C145.176 215.67 145.246 215.967 145.386 216.22C145.526 216.473 145.713 216.667 145.946 216.8C146.186 216.933 146.456 217 146.756 217Z" fill="#A2A2A2"/>
<path d="M150.952 218V212.66H152.142V214.13L152.002 213.7C152.162 213.34 152.412 213.067 152.752 212.88C153.098 212.693 153.528 212.6 154.042 212.6V213.79C153.988 213.777 153.938 213.77 153.892 213.77C153.845 213.763 153.798 213.76 153.752 213.76C153.278 213.76 152.902 213.9 152.622 214.18C152.342 214.453 152.202 214.863 152.202 215.41V218H150.952Z" fill="#A2A2A2"/>
<path d="M157.457 218.07C156.871 218.07 156.417 217.92 156.097 217.62C155.777 217.313 155.617 216.863 155.617 216.27V211.48H156.867V216.24C156.867 216.493 156.931 216.69 157.057 216.83C157.191 216.97 157.374 217.04 157.607 217.04C157.887 217.04 158.121 216.967 158.307 216.82L158.657 217.71C158.511 217.83 158.331 217.92 158.117 217.98C157.904 218.04 157.684 218.07 157.457 218.07ZM154.737 213.7V212.7H158.297V213.7H154.737Z" fill="#A2A2A2"/>
<path d="M165.009 218.07C164.496 218.07 164.033 217.957 163.619 217.73C163.213 217.497 162.893 217.177 162.659 216.77C162.426 216.363 162.309 215.883 162.309 215.33C162.309 214.777 162.426 214.297 162.659 213.89C162.893 213.483 163.213 213.167 163.619 212.94C164.033 212.713 164.496 212.6 165.009 212.6C165.456 212.6 165.856 212.7 166.209 212.9C166.563 213.093 166.843 213.39 167.049 213.79C167.256 214.19 167.359 214.703 167.359 215.33C167.359 215.95 167.259 216.463 167.059 216.87C166.859 217.27 166.583 217.57 166.229 217.77C165.876 217.97 165.469 218.07 165.009 218.07ZM165.159 217C165.459 217 165.726 216.933 165.959 216.8C166.199 216.667 166.389 216.473 166.529 216.22C166.676 215.967 166.749 215.67 166.749 215.33C166.749 214.983 166.676 214.687 166.529 214.44C166.389 214.187 166.199 213.993 165.959 213.86C165.726 213.727 165.459 213.66 165.159 213.66C164.859 213.66 164.589 213.727 164.349 213.86C164.116 213.993 163.926 214.187 163.779 214.44C163.639 214.687 163.569 214.983 163.569 215.33C163.569 215.67 163.639 215.967 163.779 216.22C163.926 216.473 164.116 216.667 164.349 216.8C164.589 216.933 164.859 217 165.159 217ZM166.779 218V216.74L166.829 215.32L166.729 213.9V210.58H167.969V218H166.779Z" fill="#A2A2A2"/>
<path d="M172.275 218.07C171.681 218.07 171.161 217.953 170.715 217.72C170.275 217.48 169.931 217.153 169.685 216.74C169.445 216.327 169.325 215.857 169.325 215.33C169.325 214.797 169.441 214.327 169.675 213.92C169.915 213.507 170.241 213.183 170.655 212.95C171.075 212.717 171.551 212.6 172.085 212.6C172.605 212.6 173.068 212.713 173.475 212.94C173.881 213.167 174.201 213.487 174.435 213.9C174.668 214.313 174.785 214.8 174.785 215.36C174.785 215.413 174.781 215.473 174.775 215.54C174.775 215.607 174.771 215.67 174.765 215.73H170.315V214.9H174.105L173.615 215.16C173.621 214.853 173.558 214.583 173.425 214.35C173.291 214.117 173.108 213.933 172.875 213.8C172.648 213.667 172.385 213.6 172.085 213.6C171.778 213.6 171.508 213.667 171.275 213.8C171.048 213.933 170.868 214.12 170.735 214.36C170.608 214.593 170.545 214.87 170.545 215.19V215.39C170.545 215.71 170.618 215.993 170.765 216.24C170.911 216.487 171.118 216.677 171.385 216.81C171.651 216.943 171.958 217.01 172.305 217.01C172.605 217.01 172.875 216.963 173.115 216.87C173.355 216.777 173.568 216.63 173.755 216.43L174.425 217.2C174.185 217.48 173.881 217.697 173.515 217.85C173.155 217.997 172.741 218.07 172.275 218.07Z" fill="#A2A2A2"/>
<path d="M177.785 218.07C177.339 218.07 176.909 218.013 176.495 217.9C176.089 217.78 175.765 217.637 175.525 217.47L176.005 216.52C176.245 216.673 176.532 216.8 176.865 216.9C177.199 217 177.532 217.05 177.865 217.05C178.259 217.05 178.542 216.997 178.715 216.89C178.895 216.783 178.985 216.64 178.985 216.46C178.985 216.313 178.925 216.203 178.805 216.13C178.685 216.05 178.529 215.99 178.335 215.95C178.142 215.91 177.925 215.873 177.685 215.84C177.452 215.807 177.215 215.763 176.975 215.71C176.742 215.65 176.529 215.567 176.335 215.46C176.142 215.347 175.985 215.197 175.865 215.01C175.745 214.823 175.685 214.577 175.685 214.27C175.685 213.93 175.782 213.637 175.975 213.39C176.169 213.137 176.439 212.943 176.785 212.81C177.139 212.67 177.555 212.6 178.035 212.6C178.395 212.6 178.759 212.64 179.125 212.72C179.492 212.8 179.795 212.913 180.035 213.06L179.555 214.01C179.302 213.857 179.045 213.753 178.785 213.7C178.532 213.64 178.279 213.61 178.025 213.61C177.645 213.61 177.362 213.667 177.175 213.78C176.995 213.893 176.905 214.037 176.905 214.21C176.905 214.37 176.965 214.49 177.085 214.57C177.205 214.65 177.362 214.713 177.555 214.76C177.749 214.807 177.962 214.847 178.195 214.88C178.435 214.907 178.672 214.95 178.905 215.01C179.139 215.07 179.352 215.153 179.545 215.26C179.745 215.36 179.905 215.503 180.025 215.69C180.145 215.877 180.205 216.12 180.205 216.42C180.205 216.753 180.105 217.043 179.905 217.29C179.712 217.537 179.435 217.73 179.075 217.87C178.715 218.003 178.285 218.07 177.785 218.07Z" fill="#A2A2A2"/>
<path d="M183.882 218.07C183.322 218.07 182.822 217.953 182.382 217.72C181.948 217.48 181.608 217.153 181.362 216.74C181.115 216.327 180.992 215.857 180.992 215.33C180.992 214.797 181.115 214.327 181.362 213.92C181.608 213.507 181.948 213.183 182.382 212.95C182.822 212.717 183.322 212.6 183.882 212.6C184.402 212.6 184.858 212.707 185.252 212.92C185.652 213.127 185.955 213.433 186.162 213.84L185.202 214.4C185.042 214.147 184.845 213.96 184.612 213.84C184.385 213.72 184.138 213.66 183.872 213.66C183.565 213.66 183.288 213.727 183.042 213.86C182.795 213.993 182.602 214.187 182.462 214.44C182.322 214.687 182.252 214.983 182.252 215.33C182.252 215.677 182.322 215.977 182.462 216.23C182.602 216.477 182.795 216.667 183.042 216.8C183.288 216.933 183.565 217 183.872 217C184.138 217 184.385 216.94 184.612 216.82C184.845 216.7 185.042 216.513 185.202 216.26L186.162 216.82C185.955 217.22 185.652 217.53 185.252 217.75C184.858 217.963 184.402 218.07 183.882 218.07Z" fill="#A2A2A2"/>
<path d="M187.392 218V212.66H188.582V214.13L188.442 213.7C188.602 213.34 188.852 213.067 189.192 212.88C189.539 212.693 189.969 212.6 190.482 212.6V213.79C190.429 213.777 190.379 213.77 190.332 213.77C190.286 213.763 190.239 213.76 190.192 213.76C189.719 213.76 189.342 213.9 189.062 214.18C188.782 214.453 188.642 214.863 188.642 215.41V218H187.392Z" fill="#A2A2A2"/>
<path d="M191.693 218V212.66H192.943V218H191.693ZM192.323 211.78C192.089 211.78 191.896 211.707 191.743 211.56C191.596 211.413 191.523 211.237 191.523 211.03C191.523 210.817 191.596 210.64 191.743 210.5C191.896 210.353 192.089 210.28 192.323 210.28C192.556 210.28 192.746 210.35 192.893 210.49C193.046 210.623 193.123 210.793 193.123 211C193.123 211.22 193.049 211.407 192.903 211.56C192.756 211.707 192.563 211.78 192.323 211.78Z" fill="#A2A2A2"/>
<path d="M197.693 218.07C197.26 218.07 196.863 217.97 196.503 217.77C196.15 217.57 195.867 217.27 195.653 216.87C195.447 216.463 195.343 215.95 195.343 215.33C195.343 214.703 195.443 214.19 195.643 213.79C195.85 213.39 196.13 213.093 196.483 212.9C196.837 212.7 197.24 212.6 197.693 212.6C198.22 212.6 198.683 212.713 199.083 212.94C199.49 213.167 199.81 213.483 200.043 213.89C200.283 214.297 200.403 214.777 200.403 215.33C200.403 215.883 200.283 216.367 200.043 216.78C199.81 217.187 199.49 217.503 199.083 217.73C198.683 217.957 198.22 218.07 197.693 218.07ZM194.733 219.94V212.66H195.923V213.92L195.883 215.34L195.983 216.76V219.94H194.733ZM197.553 217C197.853 217 198.12 216.933 198.353 216.8C198.593 216.667 198.783 216.473 198.923 216.22C199.063 215.967 199.133 215.67 199.133 215.33C199.133 214.983 199.063 214.687 198.923 214.44C198.783 214.187 198.593 213.993 198.353 213.86C198.12 213.727 197.853 213.66 197.553 213.66C197.253 213.66 196.983 213.727 196.743 213.86C196.503 213.993 196.313 214.187 196.173 214.44C196.033 214.687 195.963 214.983 195.963 215.33C195.963 215.67 196.033 215.967 196.173 216.22C196.313 216.473 196.503 216.667 196.743 216.8C196.983 216.933 197.253 217 197.553 217Z" fill="#A2A2A2"/>
<path d="M203.749 218.07C203.162 218.07 202.709 217.92 202.389 217.62C202.069 217.313 201.909 216.863 201.909 216.27V211.48H203.159V216.24C203.159 216.493 203.222 216.69 203.349 216.83C203.482 216.97 203.665 217.04 203.899 217.04C204.179 217.04 204.412 216.967 204.599 216.82L204.949 217.71C204.802 217.83 204.622 217.92 204.409 217.98C204.195 218.04 203.975 218.07 203.749 218.07ZM201.029 213.7V212.7H204.589V213.7H201.029Z" fill="#A2A2A2"/>
<path d="M206.127 218V212.66H207.377V218H206.127ZM206.757 211.78C206.524 211.78 206.33 211.707 206.177 211.56C206.03 211.413 205.957 211.237 205.957 211.03C205.957 210.817 206.03 210.64 206.177 210.5C206.33 210.353 206.524 210.28 206.757 210.28C206.99 210.28 207.18 210.35 207.327 210.49C207.48 210.623 207.557 210.793 207.557 211C207.557 211.22 207.484 211.407 207.337 211.56C207.19 211.707 206.997 211.78 206.757 211.78Z" fill="#A2A2A2"/>
<path d="M211.568 218.07C211.021 218.07 210.534 217.953 210.108 217.72C209.681 217.48 209.344 217.153 209.098 216.74C208.851 216.327 208.728 215.857 208.728 215.33C208.728 214.797 208.851 214.327 209.098 213.92C209.344 213.507 209.681 213.183 210.108 212.95C210.534 212.717 211.021 212.6 211.568 212.6C212.121 212.6 212.611 212.717 213.038 212.95C213.471 213.183 213.808 213.503 214.048 213.91C214.294 214.317 214.418 214.79 214.418 215.33C214.418 215.857 214.294 216.327 214.048 216.74C213.808 217.153 213.471 217.48 213.038 217.72C212.611 217.953 212.121 218.07 211.568 218.07ZM211.568 217C211.874 217 212.148 216.933 212.388 216.8C212.628 216.667 212.814 216.473 212.948 216.22C213.088 215.967 213.158 215.67 213.158 215.33C213.158 214.983 213.088 214.687 212.948 214.44C212.814 214.187 212.628 213.993 212.388 213.86C212.148 213.727 211.878 213.66 211.578 213.66C211.271 213.66 210.998 213.727 210.758 213.86C210.524 213.993 210.338 214.187 210.198 214.44C210.058 214.687 209.988 214.983 209.988 215.33C209.988 215.67 210.058 215.967 210.198 216.22C210.338 216.473 210.524 216.667 210.758 216.8C210.998 216.933 211.268 217 211.568 217Z" fill="#A2A2A2"/>
<path d="M218.793 212.6C219.22 212.6 219.6 212.683 219.933 212.85C220.273 213.017 220.54 213.273 220.733 213.62C220.926 213.96 221.023 214.4 221.023 214.94V218H219.773V215.1C219.773 214.627 219.66 214.273 219.433 214.04C219.213 213.807 218.903 213.69 218.503 213.69C218.21 213.69 217.95 213.75 217.723 213.87C217.496 213.99 217.32 214.17 217.193 214.41C217.073 214.643 217.013 214.94 217.013 215.3V218H215.763V212.66H216.953V214.1L216.743 213.66C216.93 213.32 217.2 213.06 217.553 212.88C217.913 212.693 218.326 212.6 218.793 212.6Z" fill="#A2A2A2"/>
<path d="M223.159 218.07C222.932 218.07 222.739 217.993 222.579 217.84C222.419 217.68 222.339 217.48 222.339 217.24C222.339 216.987 222.419 216.787 222.579 216.64C222.739 216.487 222.932 216.41 223.159 216.41C223.385 216.41 223.579 216.487 223.739 216.64C223.899 216.787 223.979 216.987 223.979 217.24C223.979 217.48 223.899 217.68 223.739 217.84C223.579 217.993 223.385 218.07 223.159 218.07Z" fill="#A2A2A2"/>
<path d="M225.75 218.07C225.523 218.07 225.33 217.993 225.17 217.84C225.01 217.68 224.93 217.48 224.93 217.24C224.93 216.987 225.01 216.787 225.17 216.64C225.33 216.487 225.523 216.41 225.75 216.41C225.977 216.41 226.17 216.487 226.33 216.64C226.49 216.787 226.57 216.987 226.57 217.24C226.57 217.48 226.49 217.68 226.33 217.84C226.17 217.993 225.977 218.07 225.75 218.07Z" fill="#A2A2A2"/>
<path d="M228.341 218.07C228.115 218.07 227.921 217.993 227.761 217.84C227.601 217.68 227.521 217.48 227.521 217.24C227.521 216.987 227.601 216.787 227.761 216.64C227.921 216.487 228.115 216.41 228.341 216.41C228.568 216.41 228.761 216.487 228.921 216.64C229.081 216.787 229.161 216.987 229.161 217.24C229.161 217.48 229.081 217.68 228.921 217.84C228.761 217.993 228.568 218.07 228.341 218.07Z" fill="#A2A2A2"/>
<circle cx="41.8588" cy="41.8588" r="18.8588" fill="#5F94C0"/>
<g clip-path="url(#clip0_13_1956)">
<path d="M35.4108 41.5491L35.7721 40.7163H34.1776L33.6461 43.0948H34.9441L35.3625 42.1669L35.4108 41.5491Z" fill="white"/>
<path d="M34.1776 40.7163H35.7721L38.0695 35.4377L40.3602 40.7142H43.2044L38.0695 29.8015L29.8015 47.3754H33.0169L34.9441 43.0948H33.6461L34.1776 40.7163Z" fill="white"/>
<path d="M38.791 43.0948V40.7163H35.7722L35.4109 41.5491L35.3625 42.1669L34.9442 43.0948" fill="white"/>
<path d="M42.5906 43.0948H41.1816L43.1232 47.3754H46.3385L44.3245 43.0948H42.5906Z" fill="white"/>
<path d="M51.1737 30.7294H48.2965V47.3754H51.1737V30.7294Z" fill="white"/>
<path d="M40.3602 40.7142H38.791V40.7164H40.3613L40.3602 40.7142Z" fill="white"/>
<path d="M33.0784 49.7161H33.522L32.5974 52.0611L31.899 50.4863L31.2006 52.0611L30.2759 49.7161H30.7196L31.2566 51.2089L31.9001 49.6049L32.5502 51.2089L33.0806 49.7161H33.0784Z" fill="white"/>
<path d="M36.1225 49.7161V51.9433H35.7403V49.7161H36.1225ZM35.9676 49.7161H36.4398C36.6034 49.7161 36.7462 49.7452 36.8681 49.8025C36.99 49.8597 37.0844 49.9397 37.1514 50.0423C37.2184 50.1449 37.2513 50.2669 37.2513 50.4063C37.2513 50.5456 37.2184 50.6687 37.1514 50.7724C37.0844 50.8761 36.99 50.9571 36.8681 51.0144C36.7462 51.0716 36.6034 51.1008 36.4398 51.1008H35.9676V50.7919H36.4233C36.5101 50.7919 36.5859 50.7768 36.6518 50.7476C36.7176 50.7184 36.7682 50.6752 36.8055 50.6191C36.8428 50.5629 36.8604 50.4959 36.8604 50.4171C36.8604 50.3382 36.8417 50.2691 36.8055 50.214C36.7693 50.1589 36.7176 50.1168 36.6518 50.0866C36.5859 50.0574 36.5101 50.0423 36.4233 50.0423H35.9676V49.7182V49.7161ZM36.621 50.8805L37.3875 51.9433H36.9285L36.207 50.8805H36.621Z" fill="white"/>
<path d="M39.9912 49.7161V51.9433H39.6058V49.7161H39.9912Z" fill="white"/>
<path d="M42.2106 49.7161H43.7886V50.0628H43.1902V51.9433H42.8047V50.0628H42.2095V49.7161H42.2106Z" fill="white"/>
<path d="M46.3836 49.7161V51.9433H46.008V49.7161H46.3836ZM46.2441 49.7161H47.3862V50.0466H46.2441V49.7161ZM46.2441 50.5877H47.3214V50.9118H46.2441V50.5877ZM46.2441 51.6128H47.3862V51.9433H46.2441V51.6128Z" fill="white"/>
<path d="M50.1777 49.7161V51.9433H49.7955V49.7161H50.1777ZM50.0228 49.7161H50.495C50.6586 49.7161 50.8014 49.7452 50.9233 49.8025C51.0452 49.8597 51.1396 49.9397 51.2066 50.0423C51.2736 50.1449 51.3066 50.2669 51.3066 50.4063C51.3066 50.5456 51.2736 50.6687 51.2066 50.7724C51.1396 50.8761 51.0452 50.9571 50.9233 51.0144C50.8014 51.0716 50.6586 51.1008 50.495 51.1008H50.0228V50.7919H50.4785C50.5653 50.7919 50.6411 50.7768 50.707 50.7476C50.7729 50.7184 50.8245 50.6752 50.8607 50.6191C50.8969 50.5629 50.9156 50.4959 50.9156 50.4171C50.9156 50.3382 50.8969 50.2691 50.8607 50.214C50.8245 50.1589 50.7729 50.1168 50.707 50.0866C50.6411 50.0574 50.5653 50.0423 50.4785 50.0423H50.0228V49.7182V49.7161ZM50.6762 50.8805L51.4427 51.9433H50.9837L50.2622 50.8805H50.6762Z" fill="white"/>
</g>
<rect x="69.8321" y="25.3053" width="235" height="41" rx="12" fill="#5F94C0"/>
<line x1="90.3295" y1="35.8027" x2="284.329" y2="34.7975" stroke="white" stroke-linecap="round"/>
<line x1="90.3321" y1="45.8053" x2="284.332" y2="45.8053" stroke="white" stroke-linecap="round"/>
<line x1="90.3321" y1="55.8053" x2="284.332" y2="55.8053" stroke="white" stroke-linecap="round"/>
<defs>
<clipPath id="clip0_13_1956">
<rect width="21.6412" height="22.2595" fill="white" transform="translate(29.8015 29.8015)"/>
</clipPath>
</defs>
</svg>
