<svg width="459" height="406" viewBox="0 0 459 406" fill="none" xmlns="http://www.w3.org/2000/svg">
<path d="M339.006 365.769H317.95V366.041H339.006V365.769Z" fill="#E6E6E6"/>
<path d="M138.404 371.49H69.9053V371.762H138.404V371.49Z" fill="#E6E6E6"/>
<path d="M216.768 307.581H6.75782C5.11262 307.578 3.53579 306.922 2.37347 305.758C1.21116 304.594 0.558347 303.016 0.55835 301.371V6.15597C0.572671 4.5202 1.2318 2.95615 2.39257 1.80352C3.55334 0.650899 5.122 0.00280215 6.75782 0H216.768C218.415 0 219.994 0.654303 221.159 1.81897C222.324 2.98364 222.978 4.56326 222.978 6.21035V301.371C222.978 303.018 222.324 304.597 221.159 305.762C219.994 306.927 218.415 307.581 216.768 307.581ZM6.75782 0.217526C5.18474 0.220407 3.67706 0.847332 2.56574 1.96069C1.45442 3.07406 0.830254 4.58288 0.830256 6.15597V301.371C0.830254 302.944 1.45442 304.452 2.56574 305.566C3.67706 306.679 5.18474 307.306 6.75782 307.309H216.768C218.342 307.306 219.851 306.679 220.964 305.566C222.077 304.453 222.703 302.945 222.706 301.371V6.15597C222.703 4.58188 222.077 3.07308 220.964 1.96003C219.851 0.846979 218.342 0.220401 216.768 0.217526H6.75782Z" fill="#E6E6E6"/>
<path d="M452.032 307.581H242.011C240.365 307.578 238.787 306.923 237.623 305.759C236.459 304.595 235.804 303.017 235.801 301.371V6.15597C235.818 4.51921 236.48 2.95517 237.642 1.80284C238.805 0.650519 240.375 0.00277159 242.011 0H452.032C453.666 0.00566055 455.232 0.655022 456.39 1.80734C457.549 2.95966 458.207 4.52208 458.221 6.15597V301.371C458.221 303.014 457.57 304.59 456.41 305.754C455.25 306.918 453.676 307.575 452.032 307.581ZM242.011 0.217526C240.437 0.220401 238.929 0.846979 237.816 1.96003C236.703 3.07308 236.076 4.58188 236.073 6.15597V301.371C236.076 302.945 236.703 304.453 237.816 305.566C238.929 306.679 240.437 307.306 242.011 307.309H452.032C453.606 307.306 455.115 306.679 456.228 305.566C457.341 304.453 457.968 302.945 457.971 301.371V6.15597C457.968 4.58188 457.341 3.07308 456.228 1.96003C455.115 0.846979 453.606 0.220401 452.032 0.217526H242.011Z" fill="#E6E6E6"/>
<path d="M416.913 33.2379H269.322V174.151H416.913V33.2379Z" fill="#E0E0E0"/>
<path d="M420.186 33.2379H272.596V174.151H420.186V33.2379Z" fill="#F5F5F5"/>
<path d="M414.302 167.538V39.8506L278.49 39.8506V167.538H414.302Z" fill="white"/>
<path d="M414.302 167.538V39.8506H411.823V167.538H414.302Z" fill="#E0E0E0"/>
<path d="M417.75 127.851H275.032V136.726H417.75V127.851Z" fill="#F5F5F5"/>
<path d="M234.442 287.405H205.315V352H234.442V287.405Z" fill="#E6E6E6"/>
<path d="M339.169 352H210.916V356.089H339.169V352Z" fill="#E6E6E6"/>
<path d="M234.442 352H344.749V287.405H234.442V352Z" fill="#FAFAFA"/>
<path d="M245.894 316.543H333.296V295.356H245.894V316.543Z" fill="#E6E6E6"/>
<path d="M245.894 344.038H333.296V322.851H245.894V344.038Z" fill="#E6E6E6"/>
<path d="M302.701 304.492H276.5C275.791 304.492 275.217 305.067 275.217 305.775V306.113C275.217 306.821 275.791 307.396 276.5 307.396H302.701C303.41 307.396 303.984 306.821 303.984 306.113V305.775C303.984 305.067 303.41 304.492 302.701 304.492Z" fill="#FAFAFA"/>
<path d="M302.701 331.998H276.5C275.791 331.998 275.217 332.573 275.217 333.281V333.619C275.217 334.327 275.791 334.902 276.5 334.902H302.701C303.41 334.902 303.984 334.327 303.984 333.619V333.281C303.984 332.573 303.41 331.998 302.701 331.998Z" fill="#FAFAFA"/>
<path d="M56.5493 219.07H26.8353V347.921H56.5493V219.07Z" fill="#E6E6E6"/>
<path d="M179.07 347.921H32.5454V356.089H179.07V347.921Z" fill="#E6E6E6"/>
<path d="M56.5493 347.921H184.77L184.77 219.07L56.5493 219.07L56.5493 347.921Z" fill="#FAFAFA"/>
<path d="M68.2305 277.182H173.089V234.916H68.2305V277.182Z" fill="#E6E6E6"/>
<path d="M68.2305 332.063H173.089V289.798H68.2305V332.063Z" fill="#E6E6E6"/>
<path d="M132.433 258.953H108.886C108.119 258.95 107.385 258.644 106.843 258.103C106.301 257.561 105.996 256.826 105.993 256.06C105.993 255.292 106.297 254.555 106.84 254.01C107.382 253.466 108.118 253.159 108.886 253.156H132.433C133.201 253.159 133.937 253.466 134.479 254.01C135.022 254.555 135.326 255.292 135.326 256.06C135.323 256.826 135.018 257.561 134.476 258.103C133.934 258.644 133.199 258.95 132.433 258.953Z" fill="#FAFAFA"/>
<path d="M132.433 313.824H108.886C108.119 313.821 107.385 313.515 106.843 312.973C106.301 312.431 105.996 311.697 105.993 310.931C105.996 310.164 106.301 309.43 106.843 308.888C107.385 308.346 108.119 308.04 108.886 308.038H132.433C133.199 308.04 133.934 308.346 134.476 308.888C135.018 309.43 135.323 310.164 135.326 310.931C135.326 311.698 135.021 312.434 134.479 312.976C133.936 313.519 133.2 313.824 132.433 313.824Z" fill="#FAFAFA"/>
<path d="M301.603 277.16C301.603 277.16 279.72 239.43 310.075 209.401C310.075 209.401 318.004 214.556 317.884 221.506C317.765 228.456 309.401 230.207 311.195 236.004C312.99 241.801 320.886 247.479 315.709 252.319C310.532 257.158 316.536 261.368 316.188 267.241C315.84 273.114 301.603 277.16 301.603 277.16Z" fill="#FAFAFA"/>
<path d="M269.605 266.382C269.605 266.382 270.355 287.405 299.047 287.405C327.738 287.405 328.478 266.382 328.478 266.382H269.605Z" fill="#E6E6E6"/>
<path d="M303.256 280.608C303.256 280.608 312.12 237.897 273.89 218.972C273.89 218.972 268.006 226.379 270.312 232.926C272.617 239.474 281.101 238.506 281.188 244.575C281.275 250.644 275.597 258.529 282.036 261.433C288.475 264.337 284.092 270.297 286.278 275.757C288.464 281.217 303.256 280.608 303.256 280.608Z" fill="#E6E6E6"/>
<path d="M128.724 98.8C128.724 98.8 129.475 111.438 158.155 111.438C186.836 111.438 187.598 98.8 187.598 98.8H128.724Z" fill="#F0F0F0"/>
<path d="M50.9372 120.64L46.2278 152.061H50.9372L79.8246 120.64H50.9372Z" fill="#F5F5F5"/>
<path d="M46.2278 120.64V152.061L75.1152 120.64H46.2278Z" fill="#E0E0E0"/>
<path d="M164.235 120.64L159.515 152.061H164.235L193.123 120.64H164.235Z" fill="#F5F5F5"/>
<path d="M159.515 120.64V152.061L188.413 120.64H159.515Z" fill="#E0E0E0"/>
<path d="M25.0083 121.238H56.4298V111.438H25.0083V121.238Z" fill="#E0E0E0"/>
<path d="M212.656 111.438H56.4406V121.238H212.656V111.438Z" fill="#F5F5F5"/>
<path d="M88.5365 71.1743C96.6611 72.2619 101.686 54.6532 83.7509 39.7092C84.7189 57.0025 74.3865 69.2274 88.5365 71.1743Z" fill="#E0E0E0"/>
<path d="M94.5075 94.2973C106.276 86.0422 98.2163 57.2092 61.7808 59.2974C77.5514 80.4844 73.9731 108.676 94.5075 94.2973Z" fill="#E0E0E0"/>
<path d="M90.3527 94.1015C82.5218 85.6724 93.6156 64.4637 121.818 72.2076C105.917 86.1727 103.992 108.763 90.3527 94.1015Z" fill="#E0E0E0"/>
<path d="M100.392 81.8112C103.1 78.5484 106.297 74.8069 105.525 70.935C104.753 67.063 102.806 64.0938 104.35 59.9173C106.199 54.9142 105.841 48.9431 102.719 49.4435C99.5976 49.9438 96.0954 53.6091 96.1933 58.449C96.2912 63.2889 93.1806 64.6485 90.2983 67.15C87.4161 69.6516 86.2959 73.2842 85.7738 76.9387C84.8711 82.6161 77.5079 81.5393 75.5501 86.4771C73.538 91.2409 77.5622 97.5927 84.001 99.0501C90.4397 100.508 95.0295 101.421 99.4235 96.3963C103.883 90.9691 96.3782 86.5315 100.392 81.8112Z" fill="#F5F5F5"/>
<path d="M78.2258 111.438H102.425L104.253 95.3523H76.3986L78.2258 111.438Z" fill="#E6E6E6"/>
<path d="M74.604 98.2236H106.058V94.678H74.604V98.2236Z" fill="#E6E6E6"/>
<path d="M156.796 201.733H130.519V219.059H156.796V201.733Z" fill="#F5F5F5"/>
<path d="M110.789 219.07H130.519V201.744H110.789V219.07Z" fill="#E0E0E0"/>
<path d="M103.089 192.51H91.821V219.07H103.089V192.51Z" fill="#F5F5F5"/>
<path d="M83.3593 219.07H91.821V192.51H83.3593V219.07Z" fill="#E0E0E0"/>
<path d="M230.907 405.206C347.373 405.206 441.787 399.694 441.787 392.894C441.787 386.095 347.373 380.582 230.907 380.582C114.441 380.582 20.0269 386.095 20.0269 392.894C20.0269 399.694 114.441 405.206 230.907 405.206Z" fill="#F5F5F5"/>
<path d="M129.953 192.314C131.206 192.865 132.532 193.232 133.89 193.402C136.683 193.742 139.505 193.087 141.863 191.553C145.593 189.138 147.856 184.907 147.497 181.014C147.478 180.823 147.388 180.647 147.244 180.52C147.101 180.393 146.916 180.325 146.724 180.329C143.348 180.304 140.009 181.032 136.948 182.457C133.887 183.883 131.182 185.972 129.029 188.573C128.006 184.222 127.104 179.622 126.451 174.88C128.261 176.265 130.388 177.178 132.64 177.533C133.572 177.646 134.516 177.606 135.435 177.414C140.297 176.413 144.136 171.203 147.638 165.711C147.703 165.612 147.746 165.501 147.764 165.385C147.783 165.269 147.777 165.15 147.747 165.037C147.718 164.927 147.663 164.825 147.587 164.74C147.512 164.655 147.417 164.589 147.312 164.547C138.448 160.849 129.051 168.843 126.049 171.725C125.592 167.732 125.349 163.716 125.32 159.696C127.217 160.3 129.164 160.729 131.139 160.98C135.913 161.534 139.927 160.708 142.798 158.489C146.202 155.879 147.779 151.539 147.355 145.96C147.346 145.853 147.315 145.749 147.264 145.655C147.213 145.561 147.142 145.478 147.057 145.413C146.972 145.347 146.875 145.3 146.771 145.274C146.667 145.249 146.558 145.245 146.453 145.263C136.359 146.732 128.605 153.192 125.374 156.303C125.374 155.585 125.374 154.867 125.45 154.128C125.463 153.95 125.413 153.773 125.309 153.627C125.22 152.263 124.829 150.935 124.163 149.74C123.497 148.545 122.573 147.514 121.459 146.721C118.925 145.079 115.379 144.861 110.909 146.057C110.777 146.095 110.655 146.16 110.55 146.248C110.445 146.336 110.36 146.446 110.3 146.569C110.241 146.685 110.21 146.813 110.21 146.944C110.21 147.074 110.241 147.203 110.3 147.319C110.485 147.634 114.389 154.226 121.274 155.041C122.019 155.107 122.769 155.107 123.515 155.041C123.427 157.021 123.395 159.011 123.427 161.001C121.031 158.947 118.214 157.44 115.174 156.587C112.135 155.734 108.946 155.556 105.83 156.064C105.583 156.103 105.362 156.236 105.21 156.433C105.138 156.528 105.087 156.638 105.061 156.754C105.035 156.87 105.033 156.991 105.057 157.108C106.428 163.84 109.745 168.376 113.933 169.224C114.117 169.224 114.313 169.289 114.52 169.322C116.695 169.572 119.806 168.93 123.591 165.33C123.857 169.93 124.377 174.513 125.146 179.056C121.492 176.696 113.106 172.378 105.645 176.576C105.456 176.676 105.31 176.843 105.236 177.043C105.162 177.244 105.164 177.465 105.242 177.664C108.277 183.798 111.583 186.996 115.368 187.453H115.466C118.62 187.79 121.992 186.224 125.809 182.71C126.669 187.148 127.691 191.411 128.779 195.37C125.255 192.423 120.752 192.292 114.868 194.935C114.739 194.995 114.625 195.082 114.535 195.191C114.445 195.301 114.38 195.429 114.346 195.566C114.312 195.697 114.313 195.834 114.349 195.964C114.385 196.094 114.456 196.212 114.552 196.306C114.803 196.556 119.077 200.656 124.341 201.254C126.352 201.507 128.393 201.155 130.203 200.243C132.361 207.485 134.991 214.577 138.078 221.473C138.14 221.603 138.235 221.715 138.353 221.797C138.471 221.879 138.609 221.929 138.752 221.941C138.946 221.96 139.141 221.926 139.318 221.843C139.541 221.735 139.715 221.545 139.804 221.313C139.893 221.08 139.89 220.823 139.796 220.593C135.733 211.457 132.441 201.998 129.953 192.314Z" fill="#72A5D0"/>
<g opacity="0.6">
<path d="M129.953 192.314C131.206 192.865 132.532 193.232 133.89 193.402C136.683 193.742 139.505 193.087 141.863 191.553C145.593 189.138 147.856 184.907 147.497 181.014C147.478 180.823 147.388 180.647 147.244 180.52C147.101 180.393 146.916 180.325 146.724 180.329C143.348 180.304 140.009 181.032 136.948 182.457C133.887 183.883 131.182 185.972 129.029 188.573C128.006 184.222 127.104 179.622 126.451 174.88C128.261 176.265 130.388 177.178 132.64 177.533C133.572 177.646 134.516 177.606 135.435 177.414C140.297 176.413 144.136 171.203 147.638 165.711C147.703 165.612 147.746 165.501 147.764 165.385C147.783 165.269 147.777 165.15 147.747 165.037C147.718 164.927 147.663 164.825 147.587 164.74C147.512 164.655 147.417 164.589 147.312 164.547C138.448 160.849 129.051 168.843 126.049 171.725C125.592 167.732 125.349 163.716 125.32 159.696C127.217 160.3 129.164 160.729 131.139 160.98C135.913 161.534 139.927 160.708 142.798 158.489C146.202 155.879 147.779 151.539 147.355 145.96C147.346 145.853 147.315 145.749 147.264 145.655C147.213 145.561 147.142 145.478 147.057 145.413C146.972 145.347 146.875 145.3 146.771 145.274C146.667 145.249 146.558 145.245 146.453 145.263C136.359 146.732 128.605 153.192 125.374 156.303C125.374 155.585 125.374 154.867 125.45 154.128C125.463 153.95 125.413 153.773 125.309 153.627C125.22 152.263 124.829 150.935 124.163 149.74C123.497 148.545 122.573 147.514 121.459 146.721C118.925 145.079 115.379 144.861 110.909 146.057C110.777 146.095 110.655 146.16 110.55 146.248C110.445 146.336 110.36 146.446 110.3 146.569C110.241 146.685 110.21 146.813 110.21 146.944C110.21 147.074 110.241 147.203 110.3 147.319C110.485 147.634 114.389 154.226 121.274 155.041C122.019 155.107 122.769 155.107 123.515 155.041C123.427 157.021 123.395 159.011 123.427 161.001C121.031 158.947 118.214 157.44 115.174 156.587C112.135 155.734 108.946 155.556 105.83 156.064C105.583 156.103 105.362 156.236 105.21 156.433C105.138 156.528 105.087 156.638 105.061 156.754C105.035 156.87 105.033 156.991 105.057 157.108C106.428 163.84 109.745 168.376 113.933 169.224C114.117 169.224 114.313 169.289 114.52 169.322C116.695 169.572 119.806 168.93 123.591 165.33C123.857 169.93 124.377 174.513 125.146 179.056C121.492 176.696 113.106 172.378 105.645 176.576C105.456 176.676 105.31 176.843 105.236 177.043C105.162 177.244 105.164 177.465 105.242 177.664C108.277 183.798 111.583 186.996 115.368 187.453H115.466C118.62 187.79 121.992 186.224 125.809 182.71C126.669 187.148 127.691 191.411 128.779 195.37C125.255 192.423 120.752 192.292 114.868 194.935C114.739 194.995 114.625 195.082 114.535 195.191C114.445 195.301 114.38 195.429 114.346 195.566C114.312 195.697 114.313 195.834 114.349 195.964C114.385 196.094 114.456 196.212 114.552 196.306C114.803 196.556 119.077 200.656 124.341 201.254C126.352 201.507 128.393 201.155 130.203 200.243C132.361 207.485 134.991 214.577 138.078 221.473C138.14 221.603 138.235 221.715 138.353 221.797C138.471 221.879 138.609 221.929 138.752 221.941C138.946 221.96 139.141 221.926 139.318 221.843C139.541 221.735 139.715 221.545 139.804 221.313C139.893 221.08 139.89 220.823 139.796 220.593C135.733 211.457 132.441 201.998 129.953 192.314Z" fill="black"/>
</g>
<path d="M413.465 166.766H150.477C146.158 166.766 142.657 170.267 142.657 174.586V336.555C142.657 340.874 146.158 344.375 150.477 344.375H413.465C417.784 344.375 421.285 340.874 421.285 336.555V174.586C421.285 170.267 417.784 166.766 413.465 166.766Z" fill="#72A5D0"/>
<path opacity="0.6" d="M413.465 166.766H150.477C146.158 166.766 142.657 170.267 142.657 174.586V336.555C142.657 340.874 146.158 344.375 150.477 344.375H413.465C417.784 344.375 421.285 340.874 421.285 336.555V174.586C421.285 170.267 417.784 166.766 413.465 166.766Z" fill="black"/>
<path d="M317.612 392.894H252.551C258.924 368.858 255.107 342.961 241.109 318.936H306.171C320.168 342.961 323.986 368.858 317.612 392.894Z" fill="#72A5D0"/>
<path d="M314.219 392.894H249.146C255.52 368.858 251.713 342.961 237.704 318.936H302.777C316.829 342.961 320.593 368.858 314.219 392.894Z" fill="#72A5D0"/>
<path d="M316.438 353.479H250.658C248.399 341.301 244.014 329.615 237.704 318.957H303.484C309.785 329.62 314.169 341.303 316.438 353.479Z" fill="#72A5D0"/>
<g opacity="0.4">
<path d="M317.612 392.894H252.551C258.924 368.858 255.107 342.961 241.109 318.936H306.171C320.168 342.961 323.986 368.858 317.612 392.894Z" fill="black"/>
<path d="M314.219 392.894H249.146C255.52 368.858 251.713 342.961 237.704 318.936H302.777C316.829 342.961 320.593 368.858 314.219 392.894Z" fill="black"/>
<path d="M316.438 353.479H250.658C248.399 341.301 244.014 329.616 237.704 318.958H303.484C309.785 329.62 314.169 341.304 316.438 353.479Z" fill="black"/>
</g>
<path d="M314.219 392.894H249.146C255.52 368.858 251.713 342.961 237.704 318.936H302.777C316.829 342.961 320.593 368.858 314.219 392.894Z" fill="#72A5D0"/>
<path opacity="0.2" d="M314.219 392.894H249.146C255.52 368.858 251.713 342.961 237.704 318.936H302.777C316.829 342.961 320.593 368.858 314.219 392.894Z" fill="black"/>
<path opacity="0.2" d="M315.742 353.479H250.593C248.353 341.313 244.01 329.632 237.759 318.957H302.908C309.159 329.632 313.502 341.313 315.742 353.479Z" fill="black"/>
<path d="M409.767 166.766H146.779C142.46 166.766 138.959 170.267 138.959 174.586V336.555C138.959 340.874 142.46 344.375 146.779 344.375H409.767C414.086 344.375 417.587 340.874 417.587 336.555V174.586C417.587 170.267 414.086 166.766 409.767 166.766Z" fill="#72A5D0"/>
<path opacity="0.3" d="M409.767 166.766H146.779C142.46 166.766 138.959 170.267 138.959 174.586V336.555C138.959 340.874 142.46 344.375 146.779 344.375H409.767C414.086 344.375 417.587 340.874 417.587 336.555V174.586C417.587 170.267 414.086 166.766 409.767 166.766Z" fill="black"/>
<path d="M302.146 387.75H227.861C226.497 387.75 225.189 388.292 224.224 389.257C223.259 390.221 222.717 391.53 222.717 392.894H307.291C307.291 391.53 306.749 390.221 305.784 389.257C304.819 388.292 303.511 387.75 302.146 387.75Z" fill="#72A5D0"/>
<path opacity="0.3" d="M302.146 387.75H227.861C226.497 387.75 225.189 388.292 224.224 389.257C223.259 390.221 222.717 391.53 222.717 392.894H307.291C307.291 391.53 306.749 390.221 305.784 389.257C304.819 388.292 303.511 387.75 302.146 387.75Z" fill="black"/>
<path d="M417.587 175.76H138.959V318.925H417.587V175.76Z" fill="#72A5D0"/>
<path opacity="0.84" d="M417.489 175.76H138.861V318.925H417.489V175.76Z" fill="#FAFAFA"/>
<path opacity="0.23" d="M377.095 186.822H189.381C187.675 186.822 186.292 188.205 186.292 189.911V299.717C186.292 301.423 187.675 302.806 189.381 302.806H377.095C378.801 302.806 380.184 301.423 380.184 299.717V189.911C380.184 188.205 378.801 186.822 377.095 186.822Z" fill="#72A5D0"/>
<path opacity="0.67" d="M379.368 194.805V299.717C379.368 300.537 379.042 301.322 378.463 301.902C377.884 302.481 377.098 302.806 376.279 302.806H188.565C187.747 302.803 186.963 302.477 186.385 301.898C185.806 301.32 185.479 300.536 185.477 299.717V194.805H379.368Z" fill="#FAFAFA"/>
<path opacity="0.41" d="M378.802 198.916H186.042V298.706H378.802V198.916Z" fill="white"/>
<path opacity="0.19" d="M339.441 267.806C334.375 267.806 329.423 266.304 325.211 263.49C320.999 260.675 317.716 256.675 315.777 251.995C313.839 247.314 313.331 242.164 314.32 237.196C315.308 232.227 317.747 227.663 321.33 224.081C324.912 220.499 329.476 218.06 334.444 217.071C339.413 216.083 344.563 216.59 349.243 218.529C353.923 220.468 357.924 223.75 360.738 227.963C363.552 232.175 365.055 237.127 365.055 242.193C365.046 248.983 362.345 255.493 357.543 260.295C352.741 265.096 346.232 267.798 339.441 267.806ZM339.441 216.851C334.429 216.851 329.529 218.337 325.362 221.122C321.195 223.907 317.946 227.864 316.028 232.495C314.11 237.126 313.609 242.221 314.586 247.137C315.564 252.053 317.978 256.568 321.522 260.112C325.066 263.656 329.581 266.07 334.497 267.048C339.413 268.025 344.508 267.524 349.139 265.605C353.77 263.687 357.727 260.439 360.512 256.272C363.297 252.104 364.783 247.205 364.783 242.193C364.777 235.474 362.105 229.031 357.354 224.28C352.603 219.529 346.16 216.857 339.441 216.851Z" fill="#72A5D0"/>
<path opacity="0.19" d="M296.382 267.806C291.316 267.806 286.364 266.304 282.152 263.49C277.94 260.675 274.657 256.675 272.718 251.995C270.779 247.314 270.272 242.164 271.26 237.196C272.249 232.227 274.688 227.663 278.27 224.081C281.852 220.499 286.416 218.06 291.385 217.071C296.353 216.083 301.503 216.59 306.184 218.529C310.864 220.468 314.864 223.75 317.679 227.963C320.493 232.175 321.995 237.127 321.995 242.193C321.984 248.982 319.282 255.491 314.481 260.292C309.68 265.093 303.172 267.795 296.382 267.806ZM296.382 216.851C291.37 216.851 286.47 218.337 282.303 221.122C278.135 223.907 274.887 227.864 272.969 232.495C271.051 237.126 270.549 242.221 271.527 247.137C272.505 252.053 274.918 256.568 278.463 260.112C282.007 263.656 286.522 266.07 291.438 267.048C296.354 268.025 301.449 267.524 306.08 265.605C310.71 263.687 314.668 260.439 317.453 256.272C320.237 252.104 321.724 247.205 321.724 242.193C321.715 235.474 319.042 229.034 314.292 224.283C309.541 219.532 303.1 216.86 296.382 216.851Z" fill="#72A5D0"/>
<path opacity="0.19" d="M364.924 282.12H213.744C213.726 282.12 213.708 282.116 213.691 282.109C213.675 282.101 213.66 282.091 213.648 282.078C213.635 282.064 213.626 282.049 213.62 282.031C213.614 282.014 213.612 281.996 213.614 281.978V277.769C213.612 277.751 213.614 277.733 213.62 277.716C213.626 277.699 213.635 277.683 213.648 277.67C213.66 277.656 213.675 277.646 213.691 277.638C213.708 277.631 213.726 277.628 213.744 277.628H364.924C364.942 277.628 364.96 277.631 364.977 277.638C364.993 277.646 365.008 277.656 365.021 277.67C365.033 277.683 365.042 277.699 365.048 277.716C365.054 277.733 365.056 277.751 365.055 277.769V281.978C365.056 281.996 365.054 282.014 365.048 282.031C365.042 282.049 365.033 282.064 365.021 282.078C365.008 282.091 364.993 282.101 364.977 282.109C364.96 282.116 364.942 282.12 364.924 282.12ZM213.842 281.848H364.783V277.9H213.842V281.848Z" fill="#72A5D0"/>
<path opacity="0.19" d="M373.386 289.472H191.491C191.473 289.472 191.455 289.468 191.439 289.461C191.422 289.454 191.407 289.443 191.395 289.43C191.383 289.417 191.373 289.401 191.367 289.384C191.361 289.367 191.359 289.349 191.361 289.33V208.281C191.359 208.263 191.361 208.244 191.367 208.227C191.373 208.21 191.383 208.194 191.395 208.181C191.407 208.168 191.422 208.157 191.439 208.15C191.455 208.143 191.473 208.139 191.491 208.139H373.386C373.404 208.139 373.422 208.143 373.438 208.15C373.455 208.157 373.47 208.168 373.482 208.181C373.495 208.194 373.504 208.21 373.51 208.227C373.516 208.244 373.518 208.263 373.516 208.281V289.309C373.521 289.328 373.522 289.349 373.518 289.369C373.513 289.389 373.505 289.407 373.492 289.423C373.479 289.439 373.463 289.451 373.445 289.46C373.426 289.468 373.406 289.473 373.386 289.472ZM191.665 289.2H373.299V208.411H191.633L191.665 289.2Z" fill="#72A5D0"/>
<path d="M370.96 190.835C370.958 191.16 371.053 191.479 371.232 191.75C371.411 192.022 371.667 192.234 371.967 192.36C372.267 192.486 372.597 192.52 372.917 192.458C373.236 192.396 373.529 192.24 373.76 192.011C373.991 191.782 374.148 191.489 374.213 191.17C374.277 190.851 374.245 190.521 374.121 190.22C373.997 189.919 373.787 189.662 373.516 189.481C373.246 189.3 372.928 189.204 372.603 189.204C372.388 189.202 372.174 189.243 371.975 189.325C371.776 189.406 371.595 189.526 371.442 189.678C371.29 189.829 371.168 190.01 371.086 190.208C371.003 190.407 370.96 190.62 370.96 190.835Z" fill="white"/>
<path d="M366.784 192.477C367.691 192.477 368.426 191.742 368.426 190.835C368.426 189.928 367.691 189.193 366.784 189.193C365.877 189.193 365.142 189.928 365.142 190.835C365.142 191.742 365.877 192.477 366.784 192.477Z" fill="white"/>
<path d="M360.965 192.477C361.872 192.477 362.607 191.742 362.607 190.835C362.607 189.928 361.872 189.193 360.965 189.193C360.058 189.193 359.323 189.928 359.323 190.835C359.323 191.742 360.058 192.477 360.965 192.477Z" fill="white"/>
<path d="M379.368 194.598H185.477V195.012H379.368V194.598Z" fill="#72A5D0"/>
<path opacity="0.47" d="M213.429 175.76L187.837 318.925H213.168L238.759 175.76H213.429Z" fill="#FAFAFA"/>
<path opacity="0.47" d="M244.937 175.76L219.356 318.925H232.016L257.608 175.76H244.937Z" fill="#FAFAFA"/>
<path opacity="0.4" d="M386.503 175.76L360.911 318.925H367.252L392.833 175.76H386.503Z" fill="white"/>
<path opacity="0.4" d="M375.354 175.76L349.763 318.925H356.103L381.684 175.76H375.354Z" fill="white"/>
<path d="M319.842 387.75H306.54C305.176 387.75 303.867 388.292 302.903 389.257C301.938 390.221 301.396 391.53 301.396 392.894H324.976C324.977 392.219 324.845 391.551 324.588 390.926C324.331 390.302 323.953 389.735 323.476 389.257C322.999 388.779 322.433 388.4 321.809 388.142C321.186 387.883 320.517 387.75 319.842 387.75Z" fill="#72A5D0"/>
<path opacity="0.4" d="M319.842 387.75H306.54C305.176 387.75 303.867 388.292 302.903 389.257C301.938 390.221 301.396 391.53 301.396 392.894H324.976C324.977 392.219 324.845 391.551 324.588 390.926C324.331 390.302 323.953 389.735 323.476 389.257C322.999 388.779 322.433 388.4 321.809 388.142C321.186 387.883 320.517 387.75 319.842 387.75Z" fill="black"/>
<path d="M283.602 331.976C283.602 333.03 283.29 334.061 282.704 334.937C282.119 335.814 281.286 336.497 280.312 336.9C279.339 337.303 278.267 337.409 277.233 337.203C276.199 336.998 275.25 336.49 274.505 335.745C273.759 334.999 273.252 334.05 273.046 333.016C272.84 331.982 272.946 330.911 273.349 329.937C273.753 328.963 274.436 328.131 275.312 327.545C276.189 326.959 277.219 326.647 278.273 326.647C279.686 326.647 281.042 327.208 282.041 328.208C283.041 329.207 283.602 330.563 283.602 331.976Z" fill="#72A5D0"/>
<path opacity="0.5" d="M283.602 331.976C283.602 333.03 283.29 334.061 282.704 334.937C282.119 335.814 281.286 336.497 280.312 336.9C279.339 337.303 278.267 337.409 277.233 337.203C276.199 336.998 275.25 336.49 274.505 335.745C273.759 334.999 273.252 334.05 273.046 333.016C272.84 331.982 272.946 330.911 273.349 329.937C273.753 328.963 274.436 328.131 275.312 327.545C276.189 326.959 277.219 326.647 278.273 326.647C279.686 326.647 281.042 327.208 282.041 328.208C283.041 329.207 283.602 330.563 283.602 331.976Z" fill="black"/>
<path d="M232.734 374.513C231.983 348.476 232.049 189.693 233.561 176.652L235.616 173.814C235.616 173.814 234.67 176.337 234.442 220.962C234.213 265.588 233.909 367.89 234.159 374.513H232.734Z" fill="#72A5D0"/>
<path d="M244.948 277.943C253.649 263.456 263.177 253.156 270.072 247.489C276.968 241.823 258.891 278.617 251.822 292.311C244.752 306.004 236.04 321.144 233.234 333.934C232.69 307.918 236.236 292.43 244.948 277.943Z" fill="#72A5D0"/>
<path d="M233.408 178.48C235.192 162.013 232.777 146.797 241.74 127.513C250.702 108.23 257.521 93.0899 266.168 86.053C268.245 84.3563 261.143 117.877 252.888 136.758C247.069 150.082 245.198 159.598 239.02 168.582C237.574 170.67 233.408 178.48 233.408 178.48Z" fill="#72A5D0"/>
<path d="M233.365 266.338C235.17 246.01 236.802 226.433 248.472 197.513C251.311 190.465 277.62 141.217 284.483 135.888C287.844 133.267 276.087 165.994 264.601 193.532C255.998 214.197 252.431 220.114 242.849 244.085C239.097 253.58 233.365 266.338 233.365 266.338Z" fill="#72A5D0"/>
<path d="M218.051 166.026C208.262 152.768 198.8 143.806 191.85 139.118C184.9 134.431 203.814 167.027 212.907 181.253C221.999 195.479 230.232 207.824 233.996 220.157C232.19 194.196 227.84 179.295 218.051 166.026Z" fill="#72A5D0"/>
<path d="M233.365 302.36C231.516 288.221 227.709 271.613 222.271 259.301C216.833 246.989 208.458 228.108 201.802 221.702C200.203 220.157 208.763 256.887 214.266 266.653C219.769 276.42 223.794 285.633 227.252 291.169C228.405 292.963 233.365 302.36 233.365 302.36Z" fill="#72A5D0"/>
<path opacity="0.5" d="M232.734 374.513C231.983 348.476 232.049 189.693 233.561 176.652L235.616 173.814C235.616 173.814 234.67 176.337 234.442 220.962C234.213 265.588 233.909 367.89 234.159 374.513H232.734Z" fill="white"/>
<path opacity="0.5" d="M244.948 277.943C253.649 263.456 263.177 253.156 270.072 247.489C276.968 241.823 258.891 278.617 251.822 292.311C244.752 306.004 236.04 321.144 233.234 333.934C232.69 307.918 236.236 292.43 244.948 277.943Z" fill="white"/>
<path opacity="0.5" d="M233.408 178.48C235.192 162.013 232.777 146.797 241.74 127.513C250.702 108.23 257.521 93.0899 266.168 86.053C268.245 84.3563 261.143 117.877 252.888 136.758C247.069 150.082 245.198 159.598 239.02 168.582C237.574 170.67 233.408 178.48 233.408 178.48Z" fill="white"/>
<path opacity="0.5" d="M233.365 266.338C235.17 246.01 236.802 226.433 248.472 197.513C251.311 190.465 277.62 141.217 284.483 135.888C287.844 133.267 276.087 165.994 264.601 193.532C255.998 214.197 252.431 220.114 242.849 244.085C239.097 253.58 233.365 266.338 233.365 266.338Z" fill="white"/>
<path opacity="0.5" d="M218.051 166.026C208.262 152.768 198.8 143.806 191.85 139.118C184.9 134.431 203.814 167.027 212.907 181.253C221.999 195.479 230.232 207.824 233.996 220.157C232.19 194.196 227.84 179.295 218.051 166.026Z" fill="white"/>
<path opacity="0.5" d="M233.365 302.36C231.516 288.221 227.709 271.613 222.271 259.301C216.833 246.989 208.458 228.108 201.802 221.702C200.203 220.157 208.763 256.887 214.266 266.653C219.769 276.42 223.794 285.633 227.252 291.169C228.405 292.963 233.365 302.36 233.365 302.36Z" fill="white"/>
<path d="M254.073 392.894H212.852L209.742 369.206H257.184L254.073 392.894Z" fill="#263238"/>
<path d="M260.251 371.968H206.664L205.13 363.974H261.785L260.251 371.968Z" fill="#263238"/>
<path d="M209.1 192.042H86.4699C82.2712 192.042 78.8674 195.446 78.8674 199.645V385.292C78.8674 389.491 82.2712 392.894 86.4699 392.894H209.1C213.299 392.894 216.702 389.491 216.702 385.292V199.645C216.702 195.446 213.299 192.042 209.1 192.042Z" fill="#72A5D0"/>
<path opacity="0.6" d="M209.1 192.042H86.4699C82.2712 192.042 78.8674 195.446 78.8674 199.645V385.292C78.8674 389.491 82.2712 392.894 86.4699 392.894H209.1C213.299 392.894 216.702 389.491 216.702 385.292V199.645C216.702 195.446 213.299 192.042 209.1 192.042Z" fill="black"/>
<path d="M205.456 192.042H82.8263C78.6276 192.042 75.2238 195.446 75.2238 199.645V385.292C75.2238 389.491 78.6276 392.894 82.8263 392.894H205.456C209.655 392.894 213.059 389.491 213.059 385.292V199.645C213.059 195.446 209.655 192.042 205.456 192.042Z" fill="#72A5D0"/>
<path opacity="0.3" d="M205.456 192.042H82.8263C78.6276 192.042 75.2238 195.446 75.2238 199.645V385.292C75.2238 389.491 78.6276 392.894 82.8263 392.894H205.456C209.655 392.894 213.059 389.491 213.059 385.292V199.645C213.059 195.446 209.655 192.042 205.456 192.042Z" fill="black"/>
<path d="M213.059 200.765H75.2239V375.112H213.059V200.765Z" fill="#FAFAFA"/>
<path opacity="0.1" d="M213.059 200.765H75.2239V375.112H213.059V200.765Z" fill="#72A5D0"/>
<path opacity="0.48" d="M124.091 201.2L92.5498 375.547H116.641L148.182 201.2H124.091Z" fill="#FAFAFA"/>
<path opacity="0.48" d="M155.339 200.765L123.797 375.122H135.837L167.379 200.765H155.339Z" fill="#FAFAFA"/>
<path d="M144.136 389.077C146.995 389.077 149.313 386.759 149.313 383.9C149.313 381.04 146.995 378.722 144.136 378.722C141.277 378.722 138.959 381.04 138.959 383.9C138.959 386.759 141.277 389.077 144.136 389.077Z" fill="#72A5D0"/>
<path opacity="0.5" d="M144.136 389.077C146.995 389.077 149.313 386.759 149.313 383.9C149.313 381.04 146.995 378.722 144.136 378.722C141.277 378.722 138.959 381.04 138.959 383.9C138.959 386.759 141.277 389.077 144.136 389.077Z" fill="black"/>
<path d="M145.332 196.056C145.332 196.292 145.262 196.524 145.131 196.72C144.999 196.917 144.812 197.07 144.594 197.161C144.375 197.252 144.135 197.275 143.903 197.229C143.67 197.183 143.457 197.069 143.29 196.902C143.123 196.734 143.009 196.521 142.963 196.289C142.916 196.057 142.94 195.816 143.031 195.598C143.121 195.379 143.275 195.192 143.471 195.061C143.668 194.929 143.899 194.859 144.136 194.859C144.453 194.859 144.758 194.985 144.982 195.21C145.206 195.434 145.332 195.738 145.332 196.056Z" fill="#72A5D0"/>
<path opacity="0.5" d="M145.332 196.056C145.332 196.292 145.262 196.524 145.131 196.72C144.999 196.917 144.812 197.07 144.594 197.161C144.375 197.252 144.135 197.275 143.903 197.229C143.67 197.183 143.457 197.069 143.29 196.902C143.123 196.734 143.009 196.521 142.963 196.289C142.916 196.057 142.94 195.816 143.031 195.598C143.121 195.379 143.275 195.192 143.471 195.061C143.668 194.929 143.899 194.859 144.136 194.859C144.453 194.859 144.758 194.985 144.982 195.21C145.206 195.434 145.332 195.738 145.332 196.056Z" fill="black"/>
<path d="M316.296 162.056L324.595 160.501C324.728 160.479 324.854 160.428 324.965 160.351C325.075 160.275 325.168 160.175 325.235 160.058C325.303 159.942 325.344 159.812 325.355 159.678C325.367 159.544 325.349 159.409 325.302 159.283L318.776 139.956C318.674 139.677 318.478 139.442 318.223 139.292C317.967 139.141 317.667 139.083 317.373 139.129L309.085 140.674C308.951 140.695 308.824 140.747 308.712 140.824C308.6 140.901 308.507 141.002 308.44 141.12C308.372 141.238 308.331 141.369 308.321 141.504C308.31 141.64 308.33 141.776 308.378 141.903L314.904 161.23C315.002 161.509 315.196 161.745 315.45 161.896C315.705 162.047 316.004 162.104 316.296 162.056Z" fill="#72A5D0"/>
<path opacity="0.6" d="M316.296 162.056L324.595 160.501C324.728 160.479 324.854 160.428 324.965 160.351C325.075 160.275 325.168 160.175 325.235 160.058C325.303 159.942 325.344 159.812 325.355 159.678C325.367 159.544 325.349 159.409 325.302 159.283L318.776 139.956C318.674 139.677 318.478 139.442 318.223 139.292C317.967 139.141 317.667 139.083 317.373 139.129L309.085 140.674C308.951 140.695 308.824 140.747 308.712 140.824C308.6 140.901 308.507 141.002 308.44 141.12C308.372 141.238 308.331 141.369 308.321 141.504C308.31 141.64 308.33 141.776 308.378 141.903L314.904 161.23C315.002 161.509 315.196 161.745 315.45 161.896C315.705 162.047 316.004 162.104 316.296 162.056Z" fill="black"/>
<path d="M317.319 161.904L325.606 160.36C325.741 160.338 325.868 160.287 325.98 160.209C326.091 160.132 326.185 160.031 326.252 159.913C326.32 159.796 326.361 159.664 326.371 159.529C326.382 159.393 326.362 159.257 326.313 159.131L319.788 139.803C319.685 139.525 319.49 139.29 319.234 139.139C318.978 138.988 318.678 138.931 318.385 138.977L310.097 140.532C309.963 140.552 309.836 140.602 309.724 140.678C309.612 140.755 309.519 140.855 309.451 140.972C309.383 141.089 309.343 141.219 309.332 141.354C309.321 141.489 309.341 141.624 309.39 141.75L315.916 161.077C316.018 161.356 316.213 161.591 316.469 161.742C316.725 161.893 317.025 161.95 317.319 161.904Z" fill="#72A5D0"/>
<path opacity="0.3" d="M317.319 161.904L325.606 160.36C325.741 160.338 325.868 160.287 325.98 160.209C326.091 160.132 326.185 160.031 326.252 159.913C326.32 159.796 326.361 159.664 326.371 159.529C326.382 159.393 326.362 159.257 326.313 159.131L319.788 139.803C319.685 139.525 319.49 139.29 319.234 139.139C318.978 138.988 318.678 138.931 318.385 138.977L310.097 140.532C309.963 140.552 309.836 140.602 309.724 140.678C309.612 140.755 309.519 140.855 309.451 140.972C309.383 141.089 309.343 141.219 309.332 141.354C309.321 141.489 309.341 141.624 309.39 141.75L315.916 161.077C316.018 161.356 316.213 161.591 316.469 161.742C316.725 161.893 317.025 161.95 317.319 161.904Z" fill="black"/>
<path d="M315.47 159.762L325.868 157.815L320.016 140.478L309.607 142.425L315.47 159.762Z" fill="#FAFAFA"/>
<path opacity="0.14" d="M315.47 159.762L325.868 157.815L320.016 140.478L309.607 142.425L315.47 159.762Z" fill="#72A5D0"/>
<path d="M309.607 149.919L310.423 148.026L318.254 156.825L311.478 157.347L309.607 149.919Z" fill="#E58A7B"/>
<path d="M175.818 81.6808C185.087 81.6808 192.601 74.1672 192.601 64.8987C192.601 55.6302 185.087 48.1166 175.818 48.1166C166.55 48.1166 159.036 55.6302 159.036 64.8987C159.036 74.1672 166.55 81.6808 175.818 81.6808Z" fill="#72A5D0"/>
<path d="M175.818 84.8349C174.667 84.8357 173.517 84.7375 172.382 84.5412L172.566 83.4536C174.726 83.8222 176.933 83.8222 179.092 83.4536L179.277 84.5412C178.135 84.7364 176.978 84.8346 175.818 84.8349ZM165.888 82.1811C163.879 81.0251 162.086 79.5271 160.592 77.7544L161.429 77.0475C162.838 78.729 164.532 80.1499 166.432 81.2457L165.888 82.1811ZM185.77 82.1811L185.226 81.2457C187.127 80.1499 188.82 78.729 190.229 77.0475L191.056 77.7436C189.563 79.4983 187.774 80.9781 185.77 82.1158V82.1811ZM157.122 71.7834C156.328 69.6015 155.923 67.2969 155.926 64.9748H157.013C156.997 67.1646 157.365 69.3403 158.101 71.4027L157.122 71.7834ZM194.515 71.7834L193.492 71.4136C194.229 69.3512 194.597 67.1755 194.58 64.9857H195.32H195.668C195.673 67.2724 195.283 69.5427 194.515 71.6964V71.7834ZM158.123 58.5905L157.1 58.2207C157.891 56.0369 159.058 54.0086 160.548 52.2278L161.375 52.9239C159.978 54.5832 158.878 56.4706 158.123 58.5034V58.5905ZM193.471 58.4817C192.721 56.4274 191.616 54.5206 190.208 52.8478L191.045 52.1408C192.541 53.9113 193.719 55.9279 194.526 58.101L193.471 58.4817ZM166.367 48.6931L165.823 47.7577C167.838 46.5793 170.049 45.7726 172.349 45.3758L172.534 46.4634C170.368 46.8194 168.28 47.5519 166.367 48.6278V48.6931ZM185.161 48.6931C183.261 47.611 181.184 46.8745 179.027 46.5178L179.212 45.4302C181.507 45.8215 183.716 46.613 185.738 47.7686L185.161 48.6931Z" fill="#72A5D0"/>
<path d="M306.377 149.755H303.114V150.843H306.377V149.755Z" fill="#72A5D0"/>
<path d="M296.578 150.843H290.052V149.755H296.578V150.843ZM283.439 150.093C281.279 149.496 279.224 148.568 277.348 147.341L277.947 146.438C279.727 147.596 281.675 148.473 283.722 149.038L283.439 150.093ZM272.378 142.892C270.949 141.171 269.797 139.237 268.963 137.161L269.974 136.758C270.778 138.727 271.878 140.561 273.237 142.196L272.378 142.892ZM267.44 130.657C267.44 130.102 267.44 129.569 267.44 128.982C267.438 127.305 267.627 125.634 268.006 124L269.093 124.251C268.736 125.802 268.557 127.389 268.56 128.982C268.56 129.515 268.56 130.069 268.56 130.581L267.44 130.657ZM271.377 118.366L270.442 117.812C271.585 115.887 273.016 114.149 274.684 112.656L275.412 113.472C273.828 114.878 272.467 116.517 271.377 118.334V118.366ZM280.731 110.003L280.285 109.013C282.323 108.092 284.491 107.494 286.713 107.24L286.843 108.328C284.734 108.561 282.673 109.115 280.731 109.97V110.003ZM307.095 108.175H306.377V107.088H307.095C308.988 107.087 310.872 106.83 312.696 106.326L312.99 107.414C311.067 107.923 309.084 108.168 307.095 108.143V108.175ZM299.841 108.175H293.315V107.088H299.841V108.175ZM319.07 104.608L318.472 103.705C320.252 102.54 321.844 101.11 323.192 99.4635L324.04 100.149C322.62 101.871 320.944 103.364 319.07 104.575V104.608ZM327.434 94.406L326.422 94.0036C327.205 92.0241 327.686 89.9378 327.847 87.815L328.935 87.902C328.762 90.1222 328.256 92.3037 327.434 94.3734V94.406ZM327.347 81.4959C326.859 79.4241 326.055 77.4396 324.965 75.6119L325.9 75.0572C327.047 76.979 327.891 79.0665 328.402 81.2458L327.347 81.4959ZM320.919 70.7284C319.33 69.3174 317.537 68.155 315.6 67.2806L316.035 66.2909C318.077 67.203 319.967 68.4246 321.637 69.9127L320.919 70.7284ZM309.477 65.6057C308.69 65.5185 307.898 65.475 307.106 65.4752H303.006V64.3875H307.095C307.931 64.3789 308.767 64.4261 309.597 64.5289L309.477 65.6057ZM296.425 65.4752H289.9V64.3875H296.425V65.4752ZM283.374 65.4752H276.848V64.3875H283.374V65.4752ZM270.322 65.4752H263.797V64.3875H270.322V65.4752ZM257.271 65.4752H250.745V64.3875H257.271V65.4752ZM244.219 65.4752H237.694V64.3875H244.219V65.4752ZM231.168 65.4752H224.642V64.3875H231.168V65.4752ZM218.116 65.4752H211.591V64.3875H218.116V65.4752Z" fill="#72A5D0"/>
<path d="M204.869 64.3549H201.606V65.4425H204.869V64.3549Z" fill="#72A5D0"/>
<path d="M176.275 88.337H175.362V91.067H176.275V88.337Z" fill="#72A5D0"/>
<path d="M62.3247 268.948H61.4219V263.51H62.3247V268.948ZM62.3247 258.072H61.4219V252.634H62.3247V258.072ZM161.592 255.277C160.528 255.276 159.467 255.159 158.427 254.929L158.623 254.048C160.355 254.418 162.14 254.462 163.887 254.178L164.029 255.07C163.215 255.188 162.393 255.239 161.571 255.222L161.592 255.277ZM105.536 255.277L105.482 254.363C107.247 254.254 108.975 253.807 110.572 253.047L110.963 253.863C109.249 254.651 107.399 255.102 105.514 255.19L105.536 255.277ZM99.9566 254.505C98.167 253.91 96.509 252.976 95.0731 251.753L95.6604 251.057C97.0062 252.206 98.5609 253.085 100.239 253.645L99.9566 254.505ZM169.26 253.08L168.782 252.308C170.287 251.379 171.601 250.172 172.654 248.751L173.393 249.295C172.267 250.797 170.864 252.071 169.26 253.047V253.08ZM153.261 252.677C151.707 251.614 150.37 250.263 149.324 248.697L150.085 248.186C151.066 249.659 152.321 250.929 153.783 251.927L153.261 252.677ZM115.433 250.502L114.77 249.893C115.963 248.585 116.893 247.06 117.511 245.401L118.37 245.717C117.7 247.463 116.704 249.065 115.433 250.437V250.502ZM91.571 247.413C90.6903 245.744 90.1435 243.919 89.9613 242.04L90.864 241.953C91.0368 243.714 91.5503 245.424 92.3758 246.989L91.571 247.413ZM62.3247 247.087H61.4219V241.649H62.3247V247.087ZM175.829 244.205L174.948 243.976C175.234 242.846 175.38 241.684 175.383 240.518V238.658H176.297V240.518C176.287 241.762 176.123 243.001 175.808 244.205H175.829ZM147.16 243.487C146.96 242.51 146.858 241.515 146.855 240.518V237.951H147.769V240.518C147.77 241.453 147.865 242.386 148.051 243.302L147.16 243.487ZM119.273 240.137H118.37V234.699H119.273V240.137ZM90.7879 236.472H89.8743V231.034H90.7879V236.472ZM62.3247 236.156H61.4219V230.718H62.3247V236.156ZM176.297 233.198H175.383V227.76H176.297V233.198ZM147.801 232.48H146.888V228.63C146.892 228.11 146.862 227.591 146.801 227.075L147.703 226.966C147.768 227.518 147.801 228.074 147.801 228.63V232.48ZM119.305 229.217H118.403V228.641C118.4 226.955 118.687 225.281 119.251 223.692L120.11 223.997C119.576 225.487 119.304 227.058 119.305 228.641V229.217ZM89.5915 225.672C89.2113 223.941 88.4984 222.301 87.4924 220.843L88.2428 220.331C89.2952 221.889 90.0341 223.636 90.4181 225.476L89.5915 225.672ZM62.7162 225.367L61.8352 225.15C62.2816 223.317 63.0794 221.588 64.1845 220.06L64.9132 220.592C63.8781 222.025 63.1252 223.642 62.6945 225.356L62.7162 225.367ZM176.297 222.267H175.383V216.829H176.297V222.267ZM145.224 222.072C144.381 220.515 143.247 219.134 141.885 218.004L142.461 217.308C143.919 218.515 145.13 219.992 146.028 221.658L145.224 222.072ZM122.797 219.483L122.112 218.874C123.365 217.463 124.879 216.307 126.571 215.47L126.973 216.285C125.379 217.064 123.953 218.146 122.775 219.472L122.797 219.483ZM83.7509 217.156C82.2807 216.173 80.6331 215.485 78.9001 215.133L79.085 214.241C80.9322 214.623 82.6871 215.362 84.2512 216.416L83.7509 217.156ZM68.7417 216.992L68.2631 216.22C69.852 215.202 71.626 214.507 73.4837 214.175L73.6469 215.078C71.8961 215.385 70.2224 216.032 68.7199 216.982L68.7417 216.992ZM137.262 215.491C135.918 215.065 134.517 214.849 133.107 214.85C132.705 214.85 132.39 214.85 132.02 214.85L131.955 213.936C132.324 213.936 132.705 213.936 133.042 213.936C134.547 213.936 136.043 214.163 137.48 214.611L137.262 215.491ZM176.297 211.337H175.383V205.899H176.297V211.337ZM176.297 200.406H175.383V194.968H176.297V200.406ZM176.297 189.475H175.383V184.037H176.297V189.475ZM176.297 178.599H175.383V173.161H176.297V178.599ZM176.297 167.669H175.383V162.23H176.297V167.669ZM176.297 156.727H175.383V151.289H176.297V156.727ZM176.297 145.851H175.383V140.413H176.297V145.851ZM176.297 134.92H175.383V129.482H176.297V134.92ZM176.297 123.989H175.383V118.551H176.297V123.989ZM176.297 113.113H175.383V107.675H176.297V113.113ZM176.297 102.183H175.383V96.7444H176.297V102.183Z" fill="#72A5D0"/>
<path d="M62.3137 274.528H61.4001V277.258H62.3137V274.528Z" fill="#72A5D0"/>
<path d="M173.763 73.0777C173.331 73.0738 172.918 72.9022 172.61 72.5991L166.911 66.9C166.608 66.5927 166.438 66.1785 166.438 65.7471C166.438 65.3156 166.608 64.9015 166.911 64.5942C167.062 64.4416 167.241 64.3205 167.439 64.2378C167.637 64.1551 167.849 64.1125 168.064 64.1125C168.278 64.1125 168.491 64.1551 168.688 64.2378C168.886 64.3205 169.066 64.4416 169.217 64.5942L173.763 69.1405L182.41 60.4938C182.719 60.2057 183.128 60.0488 183.551 60.0562C183.973 60.0637 184.376 60.2349 184.675 60.5338C184.974 60.8327 185.145 61.236 185.153 61.6586C185.16 62.0813 185.003 62.4903 184.715 62.7996L174.927 72.5882C174.775 72.7435 174.594 72.8669 174.394 72.9509C174.194 73.035 173.98 73.0781 173.763 73.0777Z" fill="white"/>
<path d="M378.28 105.619C377.193 111.058 374.822 121.934 378.606 125.577C378.606 125.577 377.127 131.016 367.089 131.016C356.038 131.016 361.803 125.577 361.803 125.577C367.839 124.142 367.676 119.672 366.632 115.473L378.28 105.619Z" fill="#E58A7B"/>
<path d="M356.288 127.437C356.288 126.621 357.528 125.784 359.334 125.131C360.302 124.773 361.248 123.413 362.716 123.163C363.804 122.978 365.207 123.913 366.599 123.815C367.763 123.728 368.981 122.597 370.33 122.586C371.678 122.576 372.766 123.674 374.093 123.75C374.919 123.75 375.746 122.75 376.442 122.815C377.138 122.88 377.889 124.066 378.552 124.185C379.433 124.337 380.423 123.456 381.021 123.652C381.978 123.957 382.109 125.251 382.533 125.599C383.751 126.589 384.708 127.524 383.621 127.698C380.934 128.122 380.825 126.611 378.106 126.611C375.387 126.611 375.387 127.698 372.668 127.644C369.949 127.589 369.96 126.556 367.23 126.556C364.5 126.556 364.554 127.307 361.792 127.589C359.965 127.896 358.096 127.844 356.288 127.437Z" fill="#72A5D0"/>
<g opacity="0.6">
<path d="M356.288 127.437C356.288 126.621 357.528 125.784 359.334 125.131C360.302 124.773 361.248 123.413 362.716 123.163C363.804 122.978 365.207 123.913 366.599 123.815C367.763 123.728 368.981 122.597 370.33 122.586C371.678 122.576 372.766 123.674 374.093 123.75C374.919 123.75 375.746 122.75 376.442 122.815C377.138 122.88 377.889 124.066 378.552 124.185C379.433 124.337 380.423 123.456 381.021 123.652C381.978 123.957 382.109 125.251 382.533 125.599C383.751 126.589 384.708 127.524 383.621 127.698C380.934 128.122 380.825 126.611 378.106 126.611C375.387 126.611 375.387 127.698 372.668 127.644C369.949 127.589 369.96 126.556 367.23 126.556C364.5 126.556 364.554 127.307 361.792 127.589C359.965 127.896 358.096 127.844 356.288 127.437Z" fill="black"/>
</g>
<path d="M398.032 137.291C399.445 140.282 400.555 143.143 401.675 146.123C402.795 149.103 403.698 152.105 404.568 155.139C405.449 158.204 406.175 161.311 406.743 164.449C407.004 166.026 407.276 167.603 407.45 169.224C407.559 170.018 407.657 170.823 407.711 171.638L407.896 174.14C407.944 176.208 407.574 178.265 406.809 180.187C406.184 181.8 405.438 183.363 404.579 184.864C402.958 187.658 401.141 190.333 399.141 192.869C395.269 197.783 391.021 202.391 386.437 206.649L383.044 203.517C384.839 201.146 386.677 198.709 388.395 196.251C390.114 193.793 391.832 191.335 393.387 188.823C394.946 186.373 396.356 183.83 397.607 181.21C398.183 180.011 398.67 178.771 399.065 177.501C399.384 176.559 399.531 175.568 399.5 174.575L399.228 172.519C399.152 171.812 399.032 171.105 398.891 170.344C398.662 168.93 398.347 167.505 398.032 166.092C397.716 164.678 397.357 163.264 396.944 161.85C396.531 160.436 396.161 159.022 395.726 157.619C394.867 154.813 393.877 152.018 392.854 149.255C391.832 146.492 390.679 143.686 389.592 141.109L398.032 137.291Z" fill="#E58A7B"/>
<path d="M394.323 127.655C398.108 128.481 402.143 142.098 402.143 142.098L387.242 151.604C387.242 151.604 382.565 140.728 384.371 135.986C386.263 131.092 389.853 126.676 394.323 127.655Z" fill="#72A5D0"/>
<path opacity="0.6" d="M394.323 127.655C398.108 128.481 402.143 142.098 402.143 142.098L387.242 151.604C387.242 151.604 382.565 140.728 384.371 135.986C386.263 131.092 389.853 126.676 394.323 127.655Z" fill="white"/>
<path opacity="0.28" d="M392.3 132.288L387.21 151.517V151.604L393.17 147.798L392.3 132.288Z" fill="#72A5D0"/>
<path d="M346.402 127.916C346.402 127.916 342.051 129.449 350.752 182.895H387.732C387.112 167.843 387.09 158.554 394.257 127.655C389.075 126.585 383.823 125.891 378.541 125.577C372.947 125.185 367.332 125.185 361.737 125.577C354.592 126.241 346.402 127.916 346.402 127.916Z" fill="#72A5D0"/>
<path opacity="0.6" d="M346.402 127.916C346.402 127.916 342.051 129.449 350.752 182.895H387.732C387.112 167.843 387.09 158.554 394.257 127.655C389.075 126.585 383.823 125.891 378.541 125.577C372.947 125.185 367.332 125.185 361.737 125.577C354.592 126.241 346.402 127.916 346.402 127.916Z" fill="white"/>
<path d="M384.806 202.299L375.996 199.645L379.672 208.15C379.672 208.15 385.491 208.716 387.59 205.562L384.806 202.299Z" fill="#E58A7B"/>
<path d="M368.861 202.451L372.32 209.401L379.672 208.172L375.996 199.667L368.861 202.451Z" fill="#E58A7B"/>
<path d="M408.114 387.989H399.01L396.074 366.889H405.188L408.114 387.989Z" fill="#E58A7B"/>
<path d="M366.719 387.989H357.615L357.006 366.889H366.11L366.719 387.989Z" fill="#E58A7B"/>
<path d="M357.006 366.9L357.322 377.765H366.436L366.121 366.9H357.006Z" fill="#CF6F64"/>
<path d="M405.188 366.9H396.074L397.586 377.765H406.7L405.188 366.9Z" fill="#CF6F64"/>
<path d="M360.53 182.895C360.53 182.895 365.816 245.434 371.309 280.673C375.735 309.136 395.389 375.666 395.389 375.666H407.809C407.809 375.666 397.575 311.409 395.323 283.218C389.635 211.978 399.609 199.373 387.764 182.852L360.53 182.895Z" fill="#72A5D0"/>
<path opacity="0.6" d="M360.53 182.895C360.53 182.895 365.816 245.434 371.309 280.673C375.735 309.136 395.389 375.666 395.389 375.666H407.809C407.809 375.666 397.575 311.409 395.323 283.218C389.635 211.978 399.609 199.373 387.764 182.852L360.53 182.895Z" fill="black"/>
<path opacity="0.4" d="M371.82 207.497C371.82 207.497 366.73 223.355 366.806 246.228C367.687 253.961 368.622 261.64 369.579 268.753C372.494 262.118 377.856 242.78 371.82 207.497Z" fill="black"/>
<path d="M350.763 182.895C350.763 182.895 343.574 253.08 344.172 280.858C344.792 309.756 355.386 375.666 355.386 375.666H367.698C367.698 375.666 365.751 311.496 366.838 283.066C368.024 252.123 377.856 182.895 377.856 182.895H350.763Z" fill="#72A5D0"/>
<path opacity="0.6" d="M350.763 182.895C350.763 182.895 343.574 253.08 344.172 280.858C344.792 309.756 355.386 375.666 355.386 375.666H367.698C367.698 375.666 365.751 311.496 366.838 283.066C368.024 252.123 377.856 182.895 377.856 182.895H350.763Z" fill="black"/>
<path d="M395.323 388.522C394.706 388.574 394.091 388.409 393.583 388.054C393.432 387.908 393.319 387.725 393.257 387.524C393.194 387.322 393.183 387.108 393.224 386.902C393.237 386.771 393.284 386.646 393.36 386.539C393.437 386.432 393.54 386.347 393.659 386.292C394.747 385.825 397.488 387.598 397.792 387.804C397.828 387.827 397.856 387.86 397.874 387.898C397.891 387.937 397.897 387.98 397.89 388.022C397.884 388.064 397.865 388.104 397.836 388.135C397.807 388.166 397.769 388.187 397.727 388.196C396.94 388.392 396.134 388.502 395.323 388.522ZM394.105 386.64C394.011 386.635 393.918 386.654 393.833 386.695C393.768 386.695 393.681 386.782 393.659 386.967C393.625 387.102 393.626 387.243 393.665 387.377C393.703 387.511 393.776 387.632 393.877 387.728C394.334 388.152 395.53 388.207 397.14 387.891C396.227 387.267 395.193 386.841 394.105 386.64Z" fill="#72A5D0"/>
<path d="M397.673 388.207C397.641 388.216 397.607 388.216 397.575 388.207C396.705 387.717 395.051 385.749 395.247 384.726C395.282 384.557 395.372 384.405 395.505 384.294C395.637 384.184 395.803 384.121 395.976 384.117C396.14 384.093 396.308 384.107 396.467 384.158C396.625 384.209 396.77 384.295 396.889 384.411C397.879 385.281 397.89 387.913 397.89 388.022C397.891 388.06 397.881 388.097 397.862 388.129C397.842 388.162 397.815 388.189 397.781 388.207C397.746 388.218 397.708 388.218 397.673 388.207ZM396.128 384.509H396.03C395.758 384.509 395.693 384.661 395.671 384.759C395.552 385.39 396.585 386.869 397.444 387.554C397.47 386.537 397.177 385.537 396.607 384.694C396.477 384.573 396.305 384.507 396.128 384.509Z" fill="#72A5D0"/>
<path d="M353.874 388.522C353.107 388.583 352.342 388.388 351.699 387.967C351.549 387.833 351.435 387.663 351.369 387.472C351.302 387.282 351.285 387.078 351.318 386.88C351.322 386.761 351.358 386.645 351.421 386.544C351.484 386.443 351.572 386.36 351.677 386.303C352.764 385.694 356.43 387.554 356.832 387.761C356.874 387.781 356.908 387.814 356.93 387.855C356.951 387.896 356.959 387.943 356.952 387.989C356.945 388.033 356.925 388.074 356.894 388.105C356.862 388.136 356.822 388.157 356.778 388.163C355.823 388.374 354.851 388.494 353.874 388.522ZM352.253 386.641C352.115 386.633 351.977 386.659 351.851 386.717C351.809 386.741 351.774 386.776 351.749 386.818C351.724 386.86 351.71 386.907 351.709 386.956C351.692 387.082 351.706 387.21 351.75 387.329C351.793 387.449 351.865 387.556 351.96 387.641C352.514 388.141 354.015 388.228 356.027 387.891C354.85 387.263 353.573 386.84 352.253 386.641Z" fill="#72A5D0"/>
<path d="M356.702 388.207H356.615C355.527 387.717 353.352 385.749 353.548 384.715C353.548 384.476 353.765 384.172 354.363 384.106C354.578 384.085 354.795 384.108 355.001 384.173C355.206 384.239 355.397 384.346 355.56 384.487C356.702 385.433 356.908 387.891 356.919 387.989C356.922 388.026 356.915 388.064 356.9 388.098C356.885 388.132 356.862 388.162 356.832 388.185C356.792 388.206 356.746 388.214 356.702 388.207ZM354.526 384.509H354.396C354.004 384.509 353.972 384.705 353.961 384.759C353.863 385.379 355.32 386.934 356.43 387.587C356.339 386.554 355.932 385.575 355.266 384.781C355.062 384.608 354.805 384.511 354.537 384.509H354.526Z" fill="#72A5D0"/>
<path d="M356.386 96.0375C356.316 96.0449 356.245 96.0359 356.179 96.0114C356.113 95.9869 356.054 95.9474 356.006 95.8961C355.656 95.4793 355.213 95.1522 354.711 94.9422C354.21 94.7322 353.665 94.6453 353.123 94.6888C353.009 94.7043 352.894 94.6741 352.802 94.6048C352.711 94.5356 352.65 94.4328 352.634 94.319C352.621 94.2072 352.651 94.0946 352.717 94.0038C352.784 93.913 352.882 93.8508 352.993 93.8296C353.676 93.7723 354.364 93.8774 354.999 94.1364C355.634 94.3954 356.199 94.8008 356.647 95.3196C356.725 95.4022 356.767 95.5111 356.767 95.6242C356.767 95.7372 356.725 95.8461 356.647 95.9287C356.573 95.9898 356.482 96.0277 356.386 96.0375Z" fill="#263238"/>
<path d="M354.494 101.443C354.085 103.195 353.438 104.882 352.569 106.457C352.977 106.67 353.428 106.791 353.888 106.811C354.348 106.832 354.807 106.752 355.233 106.577L354.494 101.443Z" fill="#DF5753"/>
<path d="M354.972 100.062C355.07 100.79 354.777 101.432 354.298 101.497C353.819 101.563 353.352 101.03 353.21 100.312C353.069 99.5941 353.406 98.9306 353.885 98.8653C354.363 98.8001 354.896 99.3765 354.972 100.062Z" fill="#263238"/>
<path d="M354.135 98.9741L352.319 98.7239C352.319 98.7239 353.406 99.8986 354.135 98.9741Z" fill="#263238"/>
<path d="M398.401 386.934H408.636C408.811 386.93 408.982 386.991 409.114 387.106C409.247 387.22 409.332 387.38 409.354 387.554L410.528 395.657C410.55 395.862 410.528 396.07 410.464 396.266C410.399 396.462 410.295 396.642 410.156 396.795C410.018 396.948 409.848 397.07 409.66 397.153C409.471 397.236 409.266 397.279 409.06 397.277C405.493 397.212 403.774 397.006 399.271 397.006C396.509 397.006 392.463 397.288 388.634 397.288C384.806 397.288 384.61 393.503 386.198 393.166C393.344 391.633 394.464 389.512 396.879 387.489C397.305 387.13 397.844 386.934 398.401 386.934Z" fill="#263238"/>
<path d="M357.3 386.934H367.534C367.71 386.932 367.881 386.994 368.015 387.108C368.149 387.222 368.237 387.38 368.263 387.554L369.427 395.657C369.448 395.861 369.426 396.068 369.363 396.263C369.299 396.458 369.196 396.638 369.058 396.791C368.921 396.944 368.753 397.066 368.566 397.15C368.378 397.234 368.175 397.277 367.97 397.277C364.402 397.212 362.684 397.006 358.181 397.006C355.407 397.006 349.687 397.288 345.858 397.288C342.03 397.288 341.834 393.503 343.422 393.166C350.557 391.633 353.374 389.512 355.777 387.489C356.205 387.133 356.743 386.937 357.3 386.934Z" fill="#263238"/>
<path opacity="0.28" d="M345.336 136.552V136.769C345.445 142.849 346.282 153.084 348.805 170.29L353.961 150.093L345.336 136.552Z" fill="#72A5D0"/>
<path d="M352.656 139.673C351.633 144.839 350.48 149.897 349.11 154.976C347.74 160.055 346.347 165.102 344.542 170.203L343.835 172.106L343.063 174.02C342.889 174.474 342.682 174.914 342.443 175.336C342.144 175.9 341.778 176.425 341.355 176.903C340.369 177.988 339.075 178.747 337.646 179.078C336.451 179.35 335.209 179.35 334.014 179.078C333.102 178.89 332.216 178.598 331.371 178.208C329.969 177.551 328.642 176.745 327.412 175.804C325.214 174.112 323.169 172.23 321.299 170.181C320.364 169.202 319.494 168.18 318.646 167.147C317.797 166.113 316.982 165.08 316.177 163.938L319.624 160.882C323.282 164.184 327.231 167.148 331.425 169.735C332.331 170.262 333.285 170.699 334.275 171.04C335.112 171.356 335.863 171.269 335.569 171.214C335.392 171.238 335.224 171.306 335.08 171.41L335.232 170.942L335.808 169.224L336.352 167.451C337.766 162.676 338.973 157.662 340.17 152.746L343.574 137.781L352.656 139.673Z" fill="#E58A7B"/>
<path d="M316.459 164.395L311.478 157.347L318.254 156.825C318.254 156.825 322.083 161.241 320.734 164.786L316.459 164.395Z" fill="#E58A7B"/>
<path d="M316.046 155.531L317.482 154.65L318.145 151.311L319.244 152.681L320.059 160.523L316.046 155.531Z" fill="#E58A7B"/>
<path d="M379.063 94.1015C379.803 103.107 380.303 106.903 376.453 112.145C370.656 120.009 359.421 118.943 356.016 110.329C352.938 102.574 352.253 89.1419 360.497 84.3346C362.307 83.2645 364.361 82.6753 366.463 82.6231C368.565 82.5708 370.645 83.0573 372.506 84.0363C374.367 85.0152 375.947 86.454 377.094 88.2158C378.242 89.9776 378.92 92.0038 379.063 94.1015Z" fill="#E58A7B"/>
<path d="M358.931 83.3231C357.089 84.0975 355.58 85.498 354.671 87.2772C353.761 89.0564 353.51 91.0999 353.961 93.0465C353.961 93.0465 361.041 89.9902 361.324 101.334C361.531 109.524 355.886 120.574 355.886 120.574C355.886 120.574 369.014 123.293 387.906 117.507C395.943 115.049 392.322 66.802 358.931 83.3231Z" fill="#263238"/>
<path d="M358.257 88.337C356.974 91.4259 357.311 97.5384 362.368 96.8858C367.426 96.2332 365.946 91.1322 365.946 91.1322L358.257 88.337Z" fill="#263238"/>
<path d="M363.891 100.54C363.944 102.289 363.307 103.988 362.118 105.271C360.53 106.946 358.54 105.815 357.996 103.684C357.496 101.78 357.724 98.5934 359.801 97.7016C360.259 97.5148 360.757 97.4453 361.248 97.4994C361.74 97.5536 362.21 97.7296 362.616 98.0116C363.022 98.2936 363.352 98.6726 363.574 99.1142C363.797 99.5558 363.906 100.046 363.891 100.54Z" fill="#E58A7B"/>
<path d="M408.734 376.069H394.54L393.028 371.12L409.223 371.501L408.734 376.069Z" fill="#72A5D0"/>
<path d="M383.283 184.897H384.262C384.469 184.897 384.621 184.799 384.599 184.668L384.132 180.318C384.132 180.198 383.947 180.089 383.74 180.089H382.739C382.544 180.089 382.391 180.198 382.402 180.318L382.87 184.668C382.913 184.82 383.087 184.897 383.283 184.897Z" fill="#72A5D0"/>
<path d="M358.964 184.897H359.965C360.16 184.897 360.313 184.799 360.302 184.668L359.834 180.318C359.834 180.198 359.638 180.089 359.442 180.089H358.442C358.235 180.089 358.083 180.198 358.105 180.318L358.572 184.668C358.583 184.82 358.757 184.897 358.964 184.897Z" fill="#72A5D0"/>
<path d="M368.644 376.069H354.439L353.417 371.838L369.177 371.12L368.644 376.069Z" fill="#72A5D0"/>
<path d="M388.319 180.731L389.983 183.994C390.114 184.255 389.809 184.516 389.385 184.516H350.546C350.209 184.516 349.937 184.353 349.915 184.146L349.578 180.883C349.578 180.655 349.85 180.459 350.209 180.459H387.677C387.799 180.443 387.922 180.459 388.035 180.507C388.148 180.555 388.246 180.632 388.319 180.731Z" fill="#72A5D0"/>
<path opacity="0.1" d="M388.319 180.731L389.983 183.994C390.114 184.255 389.809 184.516 389.385 184.516H350.546C350.209 184.516 349.937 184.353 349.915 184.146L349.578 180.883C349.578 180.655 349.85 180.459 350.209 180.459H387.677C387.799 180.443 387.922 180.459 388.035 180.507C388.148 180.555 388.246 180.632 388.319 180.731Z" fill="black"/>
<path opacity="0.6" d="M383.283 184.897H384.262C384.469 184.897 384.621 184.799 384.599 184.668L384.132 180.318C384.132 180.198 383.947 180.089 383.74 180.089H382.739C382.544 180.089 382.391 180.198 382.402 180.318L382.87 184.668C382.913 184.82 383.087 184.897 383.283 184.897Z" fill="black"/>
<path opacity="0.6" d="M358.964 184.897H359.965C360.16 184.897 360.313 184.799 360.302 184.668L359.834 180.318C359.834 180.198 359.638 180.089 359.442 180.089H358.442C358.235 180.089 358.083 180.198 358.105 180.318L358.572 184.668C358.583 184.82 358.757 184.897 358.964 184.897Z" fill="black"/>
<path d="M346.402 127.916C342.65 128.873 340.028 144.328 340.028 144.328L354.516 154.171C354.516 154.171 360.334 135.769 357.409 131.603C354.396 127.339 351.883 126.524 346.402 127.916Z" fill="#72A5D0"/>
<path opacity="0.6" d="M346.402 127.916C342.65 128.873 340.028 144.328 340.028 144.328L354.516 154.171C354.516 154.171 360.334 135.769 357.409 131.603C354.396 127.339 351.883 126.524 346.402 127.916Z" fill="white"/>
<path d="M140.917 327.191C140.922 327.155 140.922 327.118 140.917 327.082C141.221 325.331 141.482 323.569 141.7 321.785C144.778 325.211 147.453 326.081 149.367 326.081C149.57 326.093 149.774 326.093 149.976 326.081C153.729 325.712 156.894 322.035 158.46 316.293C158.491 316.179 158.497 316.06 158.478 315.944C158.46 315.828 158.416 315.717 158.351 315.618C158.216 315.412 158.012 315.262 157.775 315.194C155.116 314.467 152.33 314.339 149.616 314.818C146.902 315.298 144.328 316.373 142.08 317.968C142.211 316.293 142.287 314.618 142.309 312.932C142.916 313.038 143.531 313.093 144.147 313.095C150.346 313.095 154.186 307.581 154.37 307.309C154.44 307.204 154.482 307.084 154.493 306.958C154.505 306.833 154.485 306.707 154.436 306.591C154.385 306.464 154.309 306.35 154.212 306.254C154.114 306.159 153.998 306.084 153.87 306.036C149.998 304.579 146.855 304.449 144.538 305.667C143.064 306.468 141.931 307.779 141.352 309.354C139.713 305.784 137.232 302.667 134.12 300.27C131.009 297.873 127.362 296.269 123.493 295.595C123.382 295.569 123.267 295.569 123.156 295.596C123.046 295.623 122.943 295.676 122.857 295.751C122.771 295.825 122.704 295.919 122.662 296.024C122.619 296.129 122.602 296.243 122.612 296.357C123.003 301.98 124.047 308.843 128.681 312.127C130.535 313.397 132.743 314.048 134.989 313.987C136.91 313.945 138.817 313.642 140.655 313.084C140.559 317.092 140.196 321.089 139.568 325.048C136.99 322.122 130.432 315.618 121.481 313.378C121.381 313.347 121.276 313.338 121.173 313.352C121.069 313.365 120.97 313.402 120.882 313.457C120.794 313.513 120.72 313.588 120.663 313.675C120.607 313.763 120.57 313.862 120.556 313.965C119.893 318.805 121.046 322.732 123.873 325.32C126.223 327.495 129.594 328.583 133.662 328.583C135.467 328.566 137.266 328.377 139.035 328.017C138.426 331.335 137.675 334.543 136.86 337.676C134.043 335.435 125.896 329.768 118.131 332.129C118.028 332.162 117.935 332.219 117.857 332.294C117.78 332.37 117.721 332.462 117.685 332.564C117.648 332.672 117.634 332.788 117.646 332.902C117.657 333.017 117.692 333.128 117.75 333.227C120.621 338.578 123.493 341.547 126.766 342.581C127.619 342.846 128.506 342.981 129.399 342.983C131.708 342.887 133.954 342.202 135.924 340.993C134.695 345.104 133.347 348.932 132.02 352.348C129.801 350.276 127.099 348.792 124.16 348.032C121.221 347.272 118.139 347.26 115.194 347.997C115.101 348.017 115.013 348.056 114.935 348.112C114.858 348.167 114.792 348.237 114.742 348.319C114.692 348.4 114.66 348.49 114.646 348.585C114.632 348.679 114.637 348.775 114.661 348.867C115.117 350.631 115.977 352.263 117.174 353.636C118.371 355.008 119.872 356.083 121.557 356.774C122.788 357.284 124.107 357.546 125.44 357.546C127.202 357.533 128.932 357.069 130.464 356.198C128.73 360.435 126.773 364.577 124.602 368.608C124.51 368.809 124.495 369.037 124.562 369.248C124.628 369.459 124.77 369.638 124.961 369.75C125.103 369.842 125.27 369.892 125.44 369.891C125.566 369.895 125.692 369.865 125.803 369.803C125.914 369.742 126.006 369.652 126.07 369.543C128.703 364.608 131.045 359.524 133.086 354.316C133.128 354.233 133.161 354.146 133.183 354.055C133.59 353.033 133.992 351.978 134.391 350.89C137.012 353.914 140.199 355.589 143.396 355.589C143.744 355.589 144.082 355.589 144.43 355.589C146.202 355.412 147.876 354.689 149.22 353.52C150.565 352.351 151.513 350.794 151.934 349.063C151.965 348.868 151.933 348.668 151.843 348.492C151.753 348.316 151.61 348.174 151.434 348.084C149.036 346.74 146.354 345.983 143.607 345.875C140.86 345.767 138.127 346.312 135.631 347.464C136.49 344.973 137.327 342.331 138.1 339.59C138.168 339.478 138.206 339.351 138.208 339.22C138.415 338.448 138.632 337.676 138.828 336.882C141.972 340.297 144.875 341.972 147.671 341.972C151.064 341.972 154.196 339.459 157.209 334.358C157.291 334.168 157.304 333.956 157.246 333.758C157.189 333.56 157.064 333.387 156.894 333.271C150.575 328.92 143.016 331.889 139.644 333.63C140.123 331.592 140.543 329.518 140.906 327.408L140.917 327.191Z" fill="#72A5D0"/>
<path opacity="0.3" d="M140.917 327.191C140.922 327.155 140.922 327.118 140.917 327.082C141.221 325.331 141.482 323.569 141.7 321.785C144.778 325.211 147.453 326.081 149.367 326.081C149.57 326.093 149.774 326.093 149.976 326.081C153.729 325.712 156.894 322.035 158.46 316.293C158.491 316.179 158.497 316.06 158.478 315.944C158.46 315.828 158.416 315.717 158.351 315.618C158.216 315.412 158.012 315.262 157.775 315.194C155.116 314.467 152.33 314.339 149.616 314.818C146.902 315.298 144.328 316.373 142.08 317.968C142.211 316.293 142.287 314.618 142.309 312.932C142.916 313.038 143.531 313.093 144.147 313.095C150.346 313.095 154.186 307.581 154.37 307.309C154.44 307.204 154.482 307.084 154.493 306.958C154.505 306.833 154.485 306.707 154.436 306.591C154.385 306.464 154.309 306.35 154.212 306.254C154.114 306.159 153.998 306.084 153.87 306.036C149.998 304.579 146.855 304.449 144.538 305.667C143.064 306.468 141.931 307.779 141.352 309.354C139.713 305.784 137.232 302.667 134.12 300.27C131.009 297.873 127.362 296.269 123.493 295.595C123.382 295.569 123.267 295.569 123.156 295.596C123.046 295.623 122.943 295.676 122.857 295.751C122.771 295.825 122.704 295.919 122.662 296.024C122.619 296.129 122.602 296.243 122.612 296.357C123.003 301.98 124.047 308.843 128.681 312.127C130.535 313.397 132.743 314.048 134.989 313.987C136.91 313.945 138.817 313.642 140.655 313.084C140.559 317.092 140.196 321.089 139.568 325.048C136.99 322.122 130.432 315.618 121.481 313.378C121.381 313.347 121.276 313.338 121.173 313.352C121.069 313.365 120.97 313.402 120.882 313.457C120.794 313.513 120.72 313.588 120.663 313.675C120.607 313.763 120.57 313.862 120.556 313.965C119.893 318.805 121.046 322.732 123.873 325.32C126.223 327.495 129.594 328.583 133.662 328.583C135.467 328.566 137.266 328.377 139.035 328.017C138.426 331.335 137.675 334.543 136.86 337.676C134.043 335.435 125.896 329.768 118.131 332.129C118.028 332.162 117.935 332.219 117.857 332.294C117.78 332.37 117.721 332.462 117.685 332.564C117.648 332.672 117.634 332.788 117.646 332.902C117.657 333.017 117.692 333.128 117.75 333.227C120.621 338.578 123.493 341.547 126.766 342.581C127.619 342.846 128.506 342.981 129.399 342.983C131.708 342.887 133.954 342.202 135.924 340.993C134.695 345.104 133.347 348.932 132.02 352.348C129.801 350.276 127.099 348.792 124.16 348.032C121.221 347.272 118.139 347.26 115.194 347.997C115.101 348.017 115.013 348.056 114.935 348.112C114.858 348.167 114.792 348.237 114.742 348.319C114.692 348.4 114.66 348.49 114.646 348.585C114.632 348.679 114.637 348.775 114.661 348.867C115.117 350.631 115.977 352.263 117.174 353.636C118.371 355.008 119.872 356.083 121.557 356.774C122.788 357.284 124.107 357.546 125.44 357.546C127.202 357.533 128.932 357.069 130.464 356.198C128.73 360.435 126.773 364.577 124.602 368.608C124.51 368.809 124.495 369.037 124.562 369.248C124.628 369.459 124.77 369.638 124.961 369.75C125.103 369.842 125.27 369.892 125.44 369.891C125.566 369.895 125.692 369.865 125.803 369.803C125.914 369.742 126.006 369.652 126.07 369.543C128.703 364.608 131.045 359.524 133.086 354.316C133.128 354.233 133.161 354.146 133.183 354.055C133.59 353.033 133.992 351.978 134.391 350.89C137.012 353.914 140.199 355.589 143.396 355.589C143.744 355.589 144.082 355.589 144.43 355.589C146.202 355.412 147.876 354.689 149.22 353.52C150.565 352.351 151.513 350.794 151.934 349.063C151.965 348.868 151.933 348.668 151.843 348.492C151.753 348.316 151.61 348.174 151.434 348.084C149.036 346.74 146.354 345.983 143.607 345.875C140.86 345.767 138.127 346.312 135.631 347.464C136.49 344.973 137.327 342.331 138.1 339.59C138.168 339.478 138.206 339.351 138.208 339.22C138.415 338.448 138.632 337.676 138.828 336.882C141.972 340.297 144.875 341.972 147.671 341.972C151.064 341.972 154.196 339.459 157.209 334.358C157.291 334.168 157.304 333.956 157.246 333.758C157.189 333.56 157.064 333.387 156.894 333.271C150.575 328.92 143.016 331.889 139.644 333.63C140.123 331.592 140.543 329.518 140.906 327.408L140.917 327.191Z" fill="black"/>
<path d="M101.479 349.237C102.652 349.605 103.872 349.799 105.101 349.813C106.661 349.806 108.202 349.466 109.62 348.815C111.038 348.164 112.301 347.219 113.325 346.041C114.348 344.863 115.108 343.48 115.554 341.985C116.001 340.49 116.122 338.917 115.912 337.371C115.875 337.202 115.777 337.053 115.636 336.952C115.496 336.851 115.322 336.807 115.151 336.827C112.144 337.16 109.249 338.157 106.676 339.746C104.103 341.336 101.915 343.478 100.272 346.018C98.9015 342.254 97.6181 338.252 96.5413 334.108C98.2989 335.147 100.287 335.734 102.327 335.816C103.166 335.818 104 335.686 104.796 335.424C109.027 334.021 111.931 328.974 114.444 323.721C114.489 323.626 114.513 323.522 114.513 323.417C114.513 323.311 114.489 323.207 114.444 323.112C114.407 323.018 114.348 322.933 114.272 322.865C114.197 322.797 114.107 322.747 114.009 322.721C105.732 320.36 98.2054 328.452 95.8344 331.345C95.0039 327.837 94.3649 324.286 93.9201 320.708C95.6734 321.044 97.4536 321.219 99.2386 321.231C103.589 321.231 107.026 320.078 109.354 317.805C112.116 315.118 113.062 311.094 112.105 306.178C112.087 306.083 112.048 305.993 111.993 305.914C111.937 305.835 111.865 305.768 111.782 305.719C111.699 305.67 111.606 305.639 111.51 305.628C111.414 305.617 111.316 305.626 111.224 305.656C102.393 308.005 96.1606 314.574 93.6156 317.685C93.6156 317.043 93.5068 316.402 93.4633 315.76C93.4502 315.599 93.3853 315.446 93.2784 315.325C93.058 314.12 92.5704 312.979 91.8514 311.987C91.1324 310.996 90.2004 310.177 89.1237 309.593C86.7092 308.397 83.5224 308.571 79.6722 310.104C79.5583 310.148 79.4554 310.217 79.3709 310.306C79.2863 310.394 79.2221 310.5 79.1828 310.615C79.1438 310.727 79.1324 310.847 79.1494 310.964C79.1665 311.082 79.2115 311.193 79.2807 311.29C79.4764 311.551 83.6312 317.011 89.8524 317.011C90.5242 317.009 91.1942 316.943 91.8536 316.815C91.9842 318.584 92.1691 320.357 92.4083 322.133C90.0643 320.54 87.4005 319.478 84.6032 319.021C81.8059 318.565 78.9426 318.725 76.2136 319.49C76.106 319.517 76.0051 319.565 75.9171 319.633C75.8292 319.7 75.7561 319.785 75.7024 319.882C75.6478 319.974 75.6129 320.077 75.5998 320.184C75.5867 320.291 75.5957 320.399 75.6263 320.502C77.5514 326.353 80.9774 330.04 84.8058 330.356C84.9797 330.367 85.154 330.367 85.3279 330.356C87.2856 330.356 89.9938 329.464 92.9413 325.853C93.6619 329.922 94.6059 333.949 95.7691 337.915C92.2669 336.196 84.349 333.238 78.1495 337.741C78.062 337.796 77.9862 337.868 77.9267 337.953C77.8672 338.038 77.8251 338.133 77.8029 338.235C77.7806 338.336 77.7786 338.44 77.7971 338.542C77.8155 338.644 77.854 338.741 77.9103 338.828C81.2493 343.973 84.5339 346.442 87.9491 346.442H88.0361C90.8748 346.442 93.7352 344.669 96.7371 341.134C97.9661 345.006 99.3148 348.682 100.696 352.097C97.2591 349.846 93.2349 350.205 88.2754 353.185C88.1679 353.254 88.0763 353.344 88.0069 353.451C87.9375 353.558 87.8918 353.679 87.8729 353.805C87.8596 353.924 87.8766 354.044 87.9222 354.154C87.9679 354.264 88.0407 354.361 88.134 354.436C88.3841 354.632 92.615 357.818 97.3462 357.818C99.1628 357.836 100.943 357.309 102.458 356.307C105.135 362.529 108.219 368.567 111.692 374.383C111.761 374.492 111.858 374.582 111.972 374.643C112.087 374.704 112.215 374.734 112.345 374.731C112.52 374.733 112.691 374.679 112.834 374.579C113.025 374.461 113.163 374.274 113.218 374.057C113.273 373.839 113.24 373.609 113.128 373.415C108.575 365.696 104.679 357.608 101.479 349.237Z" fill="#72A5D0"/>
<path opacity="0.5" d="M101.479 349.237C102.652 349.605 103.872 349.799 105.101 349.813C106.661 349.806 108.202 349.466 109.62 348.815C111.038 348.164 112.301 347.219 113.325 346.041C114.348 344.863 115.108 343.48 115.554 341.985C116.001 340.49 116.122 338.917 115.912 337.371C115.875 337.202 115.777 337.053 115.636 336.952C115.496 336.851 115.322 336.807 115.151 336.827C112.144 337.16 109.249 338.157 106.676 339.746C104.103 341.336 101.915 343.478 100.272 346.018C98.9015 342.254 97.6181 338.252 96.5413 334.108C98.2989 335.147 100.287 335.734 102.327 335.816C103.166 335.818 104 335.686 104.796 335.424C109.027 334.021 111.931 328.974 114.444 323.721C114.489 323.626 114.513 323.522 114.513 323.417C114.513 323.311 114.489 323.207 114.444 323.112C114.407 323.018 114.348 322.933 114.272 322.865C114.197 322.797 114.107 322.747 114.009 322.721C105.732 320.36 98.2054 328.452 95.8344 331.345C95.0039 327.837 94.3649 324.286 93.9201 320.708C95.6734 321.044 97.4536 321.219 99.2386 321.231C103.589 321.231 107.026 320.078 109.354 317.805C112.116 315.118 113.062 311.094 112.105 306.178C112.087 306.083 112.048 305.993 111.993 305.914C111.937 305.835 111.865 305.768 111.782 305.719C111.699 305.67 111.606 305.639 111.51 305.628C111.414 305.617 111.316 305.626 111.224 305.656C102.393 308.005 96.1606 314.574 93.6156 317.685C93.6156 317.043 93.5068 316.402 93.4633 315.76C93.4502 315.599 93.3853 315.446 93.2784 315.325C93.058 314.12 92.5704 312.979 91.8514 311.987C91.1324 310.996 90.2004 310.177 89.1237 309.593C86.7092 308.397 83.5224 308.571 79.6722 310.104C79.5583 310.148 79.4554 310.217 79.3709 310.306C79.2863 310.394 79.2221 310.5 79.1828 310.615C79.1438 310.727 79.1324 310.847 79.1494 310.964C79.1665 311.082 79.2115 311.193 79.2807 311.29C79.4764 311.551 83.6312 317.011 89.8524 317.011C90.5242 317.009 91.1942 316.943 91.8536 316.815C91.9842 318.584 92.1691 320.357 92.4083 322.133C90.0643 320.54 87.4005 319.478 84.6032 319.021C81.8059 318.565 78.9426 318.725 76.2136 319.49C76.106 319.517 76.0051 319.565 75.9171 319.633C75.8292 319.7 75.7561 319.785 75.7024 319.882C75.6478 319.974 75.6129 320.077 75.5998 320.184C75.5867 320.291 75.5957 320.399 75.6263 320.502C77.5514 326.353 80.9774 330.04 84.8058 330.356C84.9797 330.367 85.154 330.367 85.3279 330.356C87.2856 330.356 89.9938 329.464 92.9413 325.853C93.6619 329.922 94.6059 333.949 95.7691 337.915C92.2669 336.196 84.349 333.238 78.1495 337.741C78.062 337.796 77.9862 337.868 77.9267 337.953C77.8672 338.038 77.8251 338.133 77.8029 338.235C77.7806 338.336 77.7786 338.44 77.7971 338.542C77.8155 338.644 77.854 338.741 77.9103 338.828C81.2493 343.973 84.5339 346.442 87.9491 346.442H88.0361C90.8748 346.442 93.7352 344.669 96.7371 341.134C97.9661 345.006 99.3148 348.682 100.696 352.097C97.2591 349.846 93.2349 350.205 88.2754 353.185C88.1679 353.254 88.0763 353.344 88.0069 353.451C87.9375 353.558 87.8918 353.679 87.8729 353.805C87.8596 353.924 87.8766 354.044 87.9222 354.154C87.9679 354.264 88.0407 354.361 88.134 354.436C88.3841 354.632 92.615 357.818 97.3462 357.818C99.1628 357.836 100.943 357.309 102.458 356.307C105.135 362.529 108.219 368.567 111.692 374.383C111.761 374.492 111.858 374.582 111.972 374.643C112.087 374.704 112.215 374.734 112.345 374.731C112.52 374.733 112.691 374.679 112.834 374.579C113.025 374.461 113.163 374.274 113.218 374.057C113.273 373.839 113.24 373.609 113.128 373.415C108.575 365.696 104.679 357.608 101.479 349.237Z" fill="white"/>
<path d="M131.389 392.894H105.482L103.524 366.106H133.347L131.389 392.894Z" fill="#263238"/>
<path d="M135.272 364.301H101.588V368.836H135.272V364.301Z" fill="#263238"/>
<path d="M119.969 234.46H60.1601C55.9614 234.46 52.5576 237.863 52.5576 242.062V385.292C52.5576 389.49 55.9614 392.894 60.1601 392.894H119.969C124.167 392.894 127.571 389.49 127.571 385.292V242.062C127.571 237.863 124.167 234.46 119.969 234.46Z" fill="#72A5D0"/>
<path opacity="0.6" d="M119.969 234.46H60.1601C55.9614 234.46 52.5576 237.863 52.5576 242.062V385.292C52.5576 389.49 55.9614 392.894 60.1601 392.894H119.969C124.167 392.894 127.571 389.49 127.571 385.292V242.062C127.571 237.863 124.167 234.46 119.969 234.46Z" fill="black"/>
<path d="M116.325 234.46H56.5166C52.3178 234.46 48.9141 237.863 48.9141 242.062V385.292C48.9141 389.491 52.3178 392.894 56.5166 392.894H116.325C120.524 392.894 123.928 389.491 123.928 385.292V242.062C123.928 237.863 120.524 234.46 116.325 234.46Z" fill="#72A5D0"/>
<path opacity="0.3" d="M116.325 234.46H56.5166C52.3178 234.46 48.9141 237.863 48.9141 242.062V385.292C48.9141 389.491 52.3178 392.894 56.5166 392.894H116.325C120.524 392.894 123.928 389.491 123.928 385.292V242.062C123.928 237.863 120.524 234.46 116.325 234.46Z" fill="black"/>
<path d="M123.928 243.182H48.9141V379.332H123.928V243.182Z" fill="#FAFAFA"/>
<path opacity="0.18" d="M123.971 242.9H48.9576V379.049H123.971V242.9Z" fill="#72A5D0"/>
<path opacity="0.4" d="M76.1375 243.193L51.8073 379.342H75.8982L100.239 243.193H76.1375Z" fill="white"/>
<path opacity="0.4" d="M106.112 243.193L81.7822 379.342H93.8331L118.163 243.193H106.112Z" fill="white"/>
<path d="M89.8089 385.64C89.8089 386.309 89.6105 386.963 89.2389 387.519C88.8672 388.075 88.3389 388.509 87.7208 388.765C87.1028 389.021 86.4227 389.088 85.7665 388.957C85.1104 388.827 84.5077 388.505 84.0346 388.032C83.5616 387.559 83.2394 386.956 83.1089 386.3C82.9784 385.644 83.0454 384.963 83.3014 384.345C83.5574 383.727 83.9909 383.199 84.5472 382.827C85.1034 382.456 85.7574 382.257 86.4264 382.257C87.3235 382.257 88.1839 382.614 88.8182 383.248C89.4526 383.882 89.8089 384.743 89.8089 385.64Z" fill="#72A5D0"/>
<path opacity="0.5" d="M89.8089 385.64C89.8089 386.309 89.6105 386.963 89.2389 387.519C88.8672 388.075 88.3389 388.509 87.7208 388.765C87.1028 389.021 86.4227 389.088 85.7665 388.957C85.1104 388.827 84.5077 388.505 84.0346 388.032C83.5616 387.559 83.2394 386.956 83.1089 386.3C82.9784 385.644 83.0454 384.963 83.3014 384.345C83.5574 383.727 83.9909 383.199 84.5472 382.827C85.1034 382.456 85.7574 382.257 86.4264 382.257C87.3235 382.257 88.1839 382.614 88.8182 383.248C89.4526 383.882 89.8089 384.743 89.8089 385.64Z" fill="black"/>
<path d="M95.2905 239.669C95.9513 239.669 96.4869 239.134 96.4869 238.473C96.4869 237.812 95.9513 237.277 95.2905 237.277C94.6298 237.277 94.0941 237.812 94.0941 238.473C94.0941 239.134 94.6298 239.669 95.2905 239.669Z" fill="#72A5D0"/>
<path d="M90.4072 239.669H77.5514C77.2341 239.669 76.9298 239.543 76.7055 239.319C76.4811 239.095 76.355 238.79 76.355 238.473C76.3579 238.157 76.4848 237.854 76.7086 237.63C76.9323 237.406 77.235 237.279 77.5514 237.277H90.3963C90.7127 237.279 91.0154 237.406 91.2391 237.63C91.4629 237.854 91.5899 238.157 91.5927 238.473C91.5927 238.788 91.4682 239.091 91.2461 239.315C91.0241 239.539 90.7226 239.667 90.4072 239.669Z" fill="#72A5D0"/>
<path opacity="0.5" d="M95.2905 239.669C95.9513 239.669 96.4869 239.134 96.4869 238.473C96.4869 237.812 95.9513 237.277 95.2905 237.277C94.6298 237.277 94.0941 237.812 94.0941 238.473C94.0941 239.134 94.6298 239.669 95.2905 239.669Z" fill="black"/>
<path opacity="0.5" d="M90.4072 239.669H77.5514C77.2341 239.669 76.9298 239.543 76.7055 239.319C76.4811 239.095 76.355 238.79 76.355 238.473C76.3579 238.157 76.4848 237.854 76.7086 237.63C76.9323 237.406 77.235 237.279 77.5514 237.277H90.3963C90.7127 237.279 91.0154 237.406 91.2391 237.63C91.4629 237.854 91.5899 238.157 91.5927 238.473C91.5927 238.788 91.4682 239.091 91.2461 239.315C91.0241 239.539 90.7226 239.667 90.4072 239.669Z" fill="black"/>
</svg>
