<svg width="332" height="293" viewBox="0 0 332 293" fill="none" xmlns="http://www.w3.org/2000/svg">
<path d="M205.084 258.388H122.221C125.775 245.343 126.856 231.778 125.412 218.356C123.598 200.989 117.676 183.547 107.653 166.8H190.508C200.531 183.531 206.453 200.989 208.274 218.356C209.718 231.778 208.637 245.343 205.084 258.388Z" fill="#E0E0E0"/>
<path d="M203.271 258.388H120.408C123.962 245.343 125.043 231.778 123.598 218.356C121.785 200.989 115.863 183.547 105.84 166.8H188.695C198.718 183.531 204.64 200.989 206.461 218.356C207.905 231.778 206.824 245.343 203.271 258.388Z" fill="#F5F5F5"/>
<path d="M206.461 218.356H123.598C121.785 200.989 115.863 183.547 105.84 166.8H188.695C198.718 183.531 204.64 200.989 206.461 218.356Z" fill="#E0E0E0"/>
<path d="M285.651 41.7874H29.8876C25.5037 41.7874 21.9499 45.2431 21.9499 49.5061V202.806C21.9499 207.069 25.5037 210.524 29.8876 210.524H285.651C290.035 210.524 293.588 207.069 293.588 202.806V49.5061C293.588 45.2431 290.035 41.7874 285.651 41.7874Z" fill="#E0E0E0"/>
<path d="M284.234 41.7874H28.4713C24.0874 41.7874 20.5336 45.2431 20.5336 49.5061V202.806C20.5336 207.069 24.0874 210.524 28.4713 210.524H284.234C288.618 210.524 292.172 207.069 292.172 202.806V49.5061C292.172 45.2431 288.618 41.7874 284.234 41.7874Z" fill="#EBEBEB"/>
<path d="M292.172 50.6562H20.5336V184.175H292.172V50.6562Z" fill="white"/>
<path d="M193.683 252.031H99.1007C97.3628 252.031 95.6962 252.702 94.4674 253.897C93.2386 255.092 92.5482 256.713 92.5482 258.403H200.236C200.236 256.713 199.545 255.092 198.316 253.897C197.088 252.702 195.421 252.031 193.683 252.031Z" fill="#F5F5F5"/>
<path d="M216.22 252.031H199.286C197.548 252.031 195.882 252.702 194.653 253.897C193.424 255.092 192.734 256.713 192.734 258.403H222.772C222.772 256.713 222.082 255.092 220.853 253.897C219.624 252.702 217.958 252.031 216.22 252.031Z" fill="#E0E0E0"/>
<path d="M116.634 147.852L276.764 147.852C278.633 147.852 280.149 146.378 280.149 144.56V27.4095C280.149 25.5915 278.633 24.1177 276.764 24.1177L116.634 24.1177C114.764 24.1177 113.248 25.5915 113.248 27.4095L113.248 144.56C113.248 146.378 114.764 147.852 116.634 147.852Z" fill="#E0E0E0"/>
<path d="M115.739 147.852L275.869 147.852C277.738 147.852 279.254 146.378 279.254 144.56V27.4095C279.254 25.5915 277.738 24.1177 275.869 24.1177L115.739 24.1177C113.869 24.1177 112.353 25.5915 112.353 27.4095L112.353 144.56C112.353 146.378 113.869 147.852 115.739 147.852Z" fill="#EBEBEB"/>
<path d="M279.254 32.6309V144.575C279.252 145.447 278.895 146.283 278.26 146.9C277.626 147.517 276.766 147.865 275.869 147.867H115.739C114.841 147.865 113.982 147.517 113.347 146.9C112.713 146.283 112.356 145.447 112.353 144.575V32.6309H279.254Z" fill="#F0F0F0"/>
<path d="M278.631 37.0049H112.984V143.47H278.631V37.0049Z" fill="white"/>
<path d="M270.025 28.3928C270.025 28.7386 270.13 29.0765 270.327 29.364C270.525 29.6515 270.806 29.8755 271.134 30.0078C271.463 30.1401 271.824 30.1748 272.173 30.1073C272.522 30.0399 272.842 29.8734 273.093 29.6289C273.345 29.3844 273.516 29.073 273.585 28.7339C273.655 28.3948 273.619 28.0433 273.483 27.7239C273.347 27.4045 273.117 27.1315 272.821 26.9394C272.525 26.7473 272.178 26.6448 271.822 26.6448C271.345 26.6448 270.888 26.8289 270.551 27.1568C270.214 27.4846 270.025 27.9292 270.025 28.3928Z" fill="white"/>
<path d="M263.643 28.3928C263.643 28.7386 263.749 29.0765 263.946 29.364C264.144 29.6515 264.424 29.8755 264.753 30.0078C265.081 30.1401 265.443 30.1748 265.792 30.1073C266.14 30.0399 266.461 29.8734 266.712 29.6289C266.963 29.3844 267.135 29.073 267.204 28.7339C267.273 28.3948 267.238 28.0433 267.102 27.7239C266.966 27.4045 266.735 27.1315 266.44 26.9394C266.144 26.7473 265.796 26.6448 265.441 26.6448C264.964 26.6448 264.507 26.8289 264.17 27.1568C263.833 27.4846 263.643 27.9292 263.643 28.3928Z" fill="white"/>
<path d="M257.27 28.3928C257.27 28.7386 257.375 29.0765 257.573 29.364C257.77 29.6515 258.051 29.8755 258.38 30.0078C258.708 30.1401 259.069 30.1748 259.418 30.1073C259.767 30.0399 260.087 29.8734 260.339 29.6289C260.59 29.3844 260.761 29.073 260.831 28.7339C260.9 28.3948 260.864 28.0433 260.728 27.7239C260.592 27.4045 260.362 27.1315 260.066 26.9394C259.771 26.7473 259.423 26.6448 259.067 26.6448C258.591 26.6448 258.133 26.8289 257.796 27.1568C257.459 27.4846 257.27 27.9292 257.27 28.3928Z" fill="white"/>
<path d="M112.353 32.8428L279.254 32.8428V32.4039L112.353 32.4039V32.8428Z" fill="#E0E0E0"/>
<path d="M100.463 163.569L260.593 163.569C262.462 163.569 263.978 162.095 263.978 160.277V43.1268C263.978 41.3088 262.462 39.835 260.593 39.835L100.463 39.835C98.593 39.835 97.0774 41.3088 97.0774 43.1268L97.0774 160.277C97.0774 162.095 98.593 163.569 100.463 163.569Z" fill="#E0E0E0"/>
<path d="M99.5676 163.569L259.698 163.569C261.567 163.569 263.083 162.095 263.083 160.277V43.1268C263.083 41.3088 261.567 39.835 259.698 39.835L99.5676 39.835C97.698 39.835 96.1824 41.3088 96.1824 43.1268L96.1824 160.277C96.1824 162.095 97.698 163.569 99.5676 163.569Z" fill="#EBEBEB"/>
<path d="M263.083 48.356V160.277C263.081 161.151 262.723 161.988 262.086 162.605C261.45 163.222 260.589 163.569 259.69 163.569H99.5676C98.6704 163.567 97.8106 163.22 97.1762 162.603C96.5418 161.986 96.1845 161.15 96.1824 160.277V48.356H263.083Z" fill="#F0F0F0"/>
<path d="M262.453 52.7295H96.805V159.195H262.453V52.7295Z" fill="white"/>
<path d="M255.651 45.8662C256.644 45.8662 257.449 45.0836 257.449 44.1182C257.449 43.1527 256.644 42.3701 255.651 42.3701C254.658 42.3701 253.854 43.1527 253.854 44.1182C253.854 45.0836 254.658 45.8662 255.651 45.8662Z" fill="white"/>
<path d="M247.464 44.1182C247.463 44.4657 247.568 44.8059 247.765 45.0956C247.962 45.3853 248.244 45.6115 248.574 45.7456C248.903 45.8796 249.267 45.9154 249.617 45.8486C249.968 45.7817 250.291 45.6151 250.544 45.3698C250.797 45.1246 250.97 44.8118 251.04 44.471C251.11 44.1303 251.075 43.7769 250.939 43.4557C250.802 43.1344 250.571 42.8598 250.274 42.6665C249.977 42.4733 249.627 42.3701 249.27 42.3701C248.792 42.3701 248.334 42.554 247.996 42.8816C247.658 43.2093 247.467 43.6539 247.464 44.1182Z" fill="white"/>
<path d="M242.889 45.8662C243.881 45.8662 244.686 45.0836 244.686 44.1182C244.686 43.1527 243.881 42.3701 242.889 42.3701C241.896 42.3701 241.091 43.1527 241.091 44.1182C241.091 45.0836 241.896 45.8662 242.889 45.8662Z" fill="white"/>
<path d="M96.1824 48.5676L263.083 48.5676V48.1287L96.1824 48.1287V48.5676Z" fill="#E0E0E0"/>
<path d="M234.009 103.953C227.963 103.953 225.037 97.96 222.196 92.171C219.449 86.556 216.858 81.2513 211.792 81.2513C206.726 81.2513 204.134 86.5484 201.387 92.171C198.555 97.96 195.621 103.953 189.574 103.953C183.528 103.953 180.602 97.96 177.769 92.171C175.022 86.556 172.423 81.2513 167.364 81.2513C162.306 81.2513 159.707 86.5484 156.96 92.171C154.127 97.96 151.193 103.953 145.155 103.953C139.116 103.953 136.174 97.96 133.342 92.171C130.594 86.556 128.003 81.2513 122.937 81.2513C117.871 81.2513 115.279 86.5484 112.532 92.171C109.7 97.96 106.774 103.953 100.727 103.953C94.6805 103.953 91.7545 97.96 88.9141 92.171C86.1748 86.556 83.5756 81.2513 78.5173 81.2513C73.459 81.2513 70.8598 86.5484 68.1128 92.171C65.2801 97.96 62.3541 103.953 56.3075 103.953C50.2609 103.953 47.3349 97.96 44.5022 92.171C41.7552 86.556 39.156 81.2513 34.0977 81.2513V79.7378C40.1443 79.7378 43.0703 85.7311 45.903 91.5202C48.65 97.1351 51.2492 102.44 56.3075 102.44C61.3658 102.44 63.965 97.1427 66.712 91.5202C69.5447 85.7311 72.4707 79.7378 78.5173 79.7378C84.5639 79.7378 87.49 85.7311 90.3226 91.5202C93.0697 97.1351 95.6611 102.44 100.727 102.44C105.793 102.44 108.385 97.1427 111.132 91.5202C113.964 85.7311 116.89 79.7378 122.937 79.7378C128.984 79.7378 131.91 85.7311 134.75 91.5202C137.497 97.1351 140.088 102.44 145.155 102.44C150.221 102.44 152.804 97.1427 155.551 91.5202C158.392 85.7311 161.318 79.7378 167.364 79.7378C173.411 79.7378 176.337 85.7311 179.177 91.5202C181.925 97.1351 184.516 102.44 189.574 102.44C194.633 102.44 197.24 97.1427 199.987 91.5202C202.819 85.7311 205.745 79.7378 211.792 79.7378C217.838 79.7378 220.772 85.7311 223.605 91.5202C226.352 97.1351 228.951 102.44 234.009 102.44V103.953Z" fill="#FAFAFA"/>
<path d="M234.009 138.77C227.963 138.77 225.037 132.785 222.196 126.988C219.449 121.373 216.858 116.068 211.792 116.068C206.726 116.068 204.134 121.366 201.387 126.988C198.555 132.785 195.621 138.77 189.574 138.77C183.528 138.77 180.602 132.785 177.769 126.988C175.022 121.373 172.423 116.068 167.364 116.068C162.306 116.068 159.707 121.366 156.96 126.988C154.127 132.785 151.193 138.77 145.155 138.77C139.116 138.77 136.174 132.785 133.342 126.988C130.594 121.373 128.003 116.068 122.937 116.068C117.871 116.068 115.279 121.366 112.532 126.988C109.7 132.785 106.774 138.77 100.727 138.77C94.6805 138.77 91.7545 132.785 88.9141 126.988C86.1748 121.373 83.5756 116.068 78.5173 116.068C73.459 116.068 70.8598 121.366 68.1128 126.988C65.2801 132.785 62.3541 138.77 56.3075 138.77C50.2609 138.77 47.3349 132.785 44.5022 126.988C41.7552 121.373 39.156 116.068 34.0977 116.068V114.555C40.1443 114.555 43.0703 120.548 45.903 126.337C48.65 131.952 51.2492 137.257 56.3075 137.257C61.3658 137.257 63.965 131.96 66.712 126.337C69.5447 120.548 72.4707 114.555 78.5173 114.555C84.5639 114.555 87.49 120.548 90.3226 126.337C93.0697 131.952 95.6611 137.257 100.727 137.257C105.793 137.257 108.385 131.96 111.132 126.337C113.964 120.548 116.89 114.555 122.937 114.555C128.984 114.555 131.91 120.548 134.75 126.337C137.497 131.952 140.088 137.257 145.155 137.257C150.221 137.257 152.804 131.96 155.551 126.337C158.392 120.548 161.318 114.555 167.364 114.555C173.411 114.555 176.337 120.548 179.177 126.337C181.925 131.952 184.516 137.257 189.574 137.257C194.633 137.257 197.24 131.96 199.987 126.337C202.819 120.548 205.745 114.555 211.792 114.555C217.838 114.555 220.772 120.548 223.605 126.337C226.352 131.952 228.951 137.257 234.009 137.257V138.77Z" fill="#FAFAFA"/>
<path d="M159.217 292.561C242.548 292.561 310.102 288.726 310.102 283.995C310.102 279.264 242.548 275.429 159.217 275.429C75.8851 275.429 8.33148 279.264 8.33148 283.995C8.33148 288.726 75.8851 292.561 159.217 292.561Z" fill="#F5F5F5"/>
<path d="M208.243 52.2075H166.765C165.304 52.2078 163.876 52.6361 162.669 53.4365C161.461 54.2369 160.529 55.3723 159.995 56.695L156.298 65.7758H218.718L215.021 56.695C214.486 55.3711 213.553 54.2348 212.344 53.4343C211.135 52.6338 209.706 52.2063 208.243 52.2075Z" fill="#90CAF9"/>
<path opacity="0.4" d="M208.243 52.2075H166.765C165.304 52.2078 163.876 52.6361 162.669 53.4365C161.461 54.2369 160.529 55.3723 159.995 56.695L156.298 65.7758H218.718L215.021 56.695C214.486 55.3711 213.553 54.2348 212.344 53.4343C211.135 52.6338 209.706 52.2063 208.243 52.2075Z" fill="white"/>
<path d="M90.4861 52.2075H49.008C47.5455 52.2074 46.1168 52.6353 44.9079 53.4357C43.699 54.236 42.7658 55.3717 42.2299 56.695L38.5334 65.7758H100.961L97.2642 56.695C96.7283 55.3717 95.7951 54.236 94.5862 53.4357C93.3773 52.6353 91.9486 52.2074 90.4861 52.2075Z" fill="#90CAF9"/>
<path opacity="0.2" d="M90.4861 52.2075H49.008C47.5455 52.2074 46.1168 52.6353 44.9079 53.4357C43.699 54.236 42.7658 55.3717 42.2299 56.695L38.5334 65.7758H100.961L97.2642 56.695C96.7283 55.3717 95.7951 54.236 94.5862 53.4357C93.3773 52.6353 91.9486 52.2074 90.4861 52.2075Z" fill="black"/>
<path d="M281.184 64.7769H159.435L156.151 56.695C155.614 55.3723 154.68 54.2372 153.472 53.437C152.263 52.6367 150.835 52.2084 149.372 52.2075H107.894C106.432 52.2063 105.002 52.6338 103.793 53.4343C102.584 54.2348 101.651 55.3711 101.116 56.695L97.8323 64.7769H37.2494C34.9953 64.7888 32.8369 65.6649 31.243 67.2149C29.6491 68.7648 28.7482 70.8636 28.7359 73.0556V231.001C28.7482 233.193 29.6491 235.292 31.243 236.842C32.8369 238.392 34.9953 239.268 37.2494 239.28H281.184C283.438 239.268 285.596 238.392 287.19 236.842C288.784 235.292 289.685 233.193 289.697 231.001V73.0556C289.685 70.8636 288.784 68.7648 287.19 67.2149C285.596 65.6649 283.438 64.7888 281.184 64.7769Z" fill="#90CAF9"/>
<path d="M284.25 231.16V88.6366C284.25 87.0777 282.95 85.814 281.347 85.814L37.0938 85.814C35.4907 85.814 34.191 87.0777 34.191 88.6366V231.16C34.191 232.719 35.4907 233.983 37.0938 233.983L281.347 233.983C282.95 233.983 284.25 232.719 284.25 231.16Z" fill="white"/>
<path d="M161.909 124.998H120.143V137.037H161.909V124.998Z" fill="#90CAF9"/>
<path d="M198.29 124.998H168.975V137.037H198.29V124.998Z" fill="#90CAF9"/>
<path d="M26.7904 116.364H26.0122V131.021H26.7904V116.364Z" fill="#90CAF9"/>
<path d="M26.7904 136.583H26.0122V141.964H26.7904V136.583Z" fill="#90CAF9"/>
<path d="M69.7548 90.7402H56.4865V93.6158H69.7548V90.7402Z" fill="#90CAF9"/>
<path d="M52.8056 90.7402H39.5373V93.6158H52.8056V90.7402Z" fill="#90CAF9"/>
<path d="M223.418 170.818H95.0152V147.844H223.418V170.818ZM95.7934 170.062H222.64V148.6H95.7934V170.062Z" fill="#90CAF9"/>
<path d="M100.206 153.587H99.4276V165.082H100.206V153.587Z" fill="#90CAF9"/>
<path d="M192.508 178.136H125.925V181.011H192.508V178.136Z" fill="#90CAF9"/>
<path d="M209.084 163.712C208.139 163.713 207.209 163.488 206.375 163.055C205.542 162.623 204.831 161.997 204.306 161.234C203.78 160.471 203.457 159.593 203.363 158.679C203.27 157.765 203.41 156.843 203.771 155.994C204.132 155.145 204.703 154.396 205.433 153.813C206.162 153.229 207.029 152.83 207.955 152.651C208.882 152.471 209.839 152.517 210.743 152.783C211.647 153.049 212.47 153.528 213.138 154.178C213.941 154.958 214.489 155.953 214.711 157.036C214.933 158.119 214.82 159.241 214.386 160.262C213.952 161.282 213.216 162.155 212.273 162.769C211.329 163.383 210.219 163.711 209.084 163.712ZM209.084 154.056C208.115 154.055 207.176 154.38 206.426 154.977C205.676 155.573 205.162 156.404 204.972 157.328C204.782 158.251 204.927 159.21 205.382 160.042C205.837 160.873 206.575 161.525 207.47 161.887C208.364 162.249 209.36 162.297 210.287 162.025C211.215 161.753 212.016 161.176 212.555 160.394C213.095 159.611 213.338 158.671 213.244 157.733C213.15 156.796 212.725 155.919 212.041 155.252C211.257 154.488 210.193 154.058 209.084 154.056Z" fill="#90CAF9"/>
<path d="M216.523 166.118C216.421 166.119 216.319 166.1 216.225 166.062C216.13 166.025 216.043 165.969 215.971 165.899L212.041 162.077C211.894 161.935 211.812 161.742 211.812 161.54C211.812 161.339 211.894 161.145 212.041 161.003C212.187 160.86 212.386 160.78 212.593 160.78C212.801 160.78 212.999 160.86 213.146 161.003L217.076 164.832C217.221 164.974 217.302 165.165 217.302 165.365C217.302 165.565 217.221 165.757 217.076 165.899C217.003 165.969 216.917 166.025 216.822 166.062C216.727 166.1 216.626 166.119 216.523 166.118Z" fill="#90CAF9"/>
<path opacity="0.6" d="M223.418 170.818H95.0152V147.844H223.418V170.818ZM95.7934 170.062H222.64V148.6H95.7934V170.062Z" fill="white"/>
<path opacity="0.6" d="M100.206 153.587H99.4276V165.082H100.206V153.587Z" fill="white"/>
<path opacity="0.6" d="M192.508 178.136H125.925V181.011H192.508V178.136Z" fill="white"/>
<path opacity="0.6" d="M69.7548 90.7402H56.4865V93.6158H69.7548V90.7402Z" fill="white"/>
<path opacity="0.6" d="M52.8056 90.7402H39.5373V93.6158H52.8056V90.7402Z" fill="white"/>
<g opacity="0.6">
<path d="M209.084 163.712C208.139 163.713 207.209 163.488 206.375 163.055C205.542 162.623 204.831 161.997 204.306 161.234C203.78 160.471 203.457 159.593 203.363 158.679C203.27 157.765 203.41 156.843 203.771 155.994C204.132 155.145 204.703 154.396 205.433 153.813C206.162 153.229 207.029 152.83 207.955 152.651C208.882 152.471 209.839 152.517 210.743 152.783C211.647 153.049 212.47 153.528 213.138 154.178C213.941 154.958 214.489 155.953 214.711 157.036C214.933 158.119 214.82 159.241 214.386 160.262C213.952 161.282 213.216 162.155 212.273 162.769C211.329 163.383 210.219 163.711 209.084 163.712ZM209.084 154.056C208.115 154.055 207.176 154.38 206.426 154.977C205.676 155.573 205.162 156.404 204.972 157.328C204.782 158.251 204.927 159.21 205.382 160.042C205.837 160.873 206.575 161.525 207.47 161.887C208.364 162.249 209.36 162.297 210.287 162.025C211.215 161.753 212.016 161.176 212.555 160.394C213.095 159.611 213.338 158.671 213.244 157.733C213.15 156.796 212.725 155.919 212.041 155.252C211.257 154.488 210.193 154.058 209.084 154.056Z" fill="white"/>
<path d="M216.523 166.118C216.421 166.119 216.319 166.1 216.225 166.062C216.13 166.025 216.044 165.969 215.971 165.899L212.041 162.077C211.894 161.935 211.812 161.742 211.812 161.54C211.812 161.339 211.894 161.145 212.041 161.003C212.187 160.86 212.386 160.78 212.593 160.78C212.801 160.78 212.999 160.86 213.146 161.003L217.076 164.832C217.221 164.974 217.302 165.165 217.302 165.365C217.302 165.565 217.221 165.757 217.076 165.899C217.003 165.969 216.917 166.025 216.822 166.062C216.727 166.1 216.626 166.119 216.523 166.118Z" fill="white"/>
</g>
<path d="M250.546 81.0613C249.768 84.845 248.212 92.4123 250.896 94.9474C250.896 94.9474 249.846 98.7311 242.655 98.7311C234.749 98.7311 238.881 94.9474 238.881 94.9474C243.192 93.9485 243.083 90.8383 242.328 87.9097L250.546 81.0613Z" fill="#E4897B"/>
<path d="M238.43 96.1809C237.363 96.3323 238.352 93.9637 238.795 93.714C239.815 93.1237 252.803 91.9357 252.655 93.2675C252.567 94.0562 252.211 94.7939 251.643 95.3637C251.044 95.7647 247.776 94.7204 238.43 96.1809Z" fill="#90CAF9"/>
<path opacity="0.6" d="M238.43 96.1809C237.363 96.3323 238.352 93.9637 238.795 93.714C239.815 93.1237 252.803 91.9357 252.655 93.2675C252.567 94.0562 252.211 94.7939 251.643 95.3637C251.044 95.7647 247.776 94.7204 238.43 96.1809Z" fill="white"/>
<path d="M265.052 103.763C265.456 105.277 265.9 106.942 266.382 108.531C266.865 110.12 267.324 111.755 267.83 113.359C268.336 114.963 268.849 116.583 269.386 118.179L270.165 120.586L270.367 121.183L270.445 121.395C270.457 121.439 270.472 121.482 270.491 121.524C270.586 121.741 270.706 121.947 270.849 122.137C271.712 123.216 272.766 124.136 273.962 124.854C275.335 125.733 276.768 126.522 278.25 127.215C281.336 128.658 284.5 129.939 287.729 131.051L286.95 134.177C283.339 133.644 279.785 132.788 276.336 131.619C274.552 131.013 272.817 130.28 271.145 129.424C269.252 128.477 267.557 127.194 266.149 125.641C265.74 125.161 265.383 124.641 265.083 124.089C264.997 123.946 264.927 123.794 264.849 123.635L264.686 123.249L264.421 122.644C264.071 121.842 263.721 121.04 263.394 120.222C262.741 118.595 262.087 116.968 261.511 115.311C260.935 113.654 260.359 111.997 259.838 110.317L259.106 107.774C258.865 106.904 258.663 106.087 258.453 105.133L265.052 103.763Z" fill="#E4897B"/>
<path d="M267.744 106.442L261.2 111.512L257.27 114.539C257.27 114.539 256.857 113.472 256.359 111.944C255.41 108.992 254.173 104.316 255.029 102.167C256.375 98.7614 258.92 95.689 262.141 96.3701C264.849 96.9679 267.744 106.442 267.744 106.442Z" fill="#90CAF9"/>
<path opacity="0.2" d="M267.744 106.442L261.2 111.512L257.27 114.539C257.27 114.539 256.857 113.472 256.359 111.944C255.41 108.992 254.173 104.316 255.029 102.167C256.375 98.7614 258.92 95.689 262.141 96.3701C264.849 96.9679 267.744 106.442 267.744 106.442Z" fill="white"/>
<path opacity="0.1" d="M261.2 111.512L257.27 114.539C257.27 114.539 256.857 113.472 256.359 111.944L258.694 100.706L261.2 111.512Z" fill="black"/>
<path d="M227.862 96.5745C227.862 96.5745 224.749 97.634 230.974 134.828H257.433C256.99 124.354 256.974 117.892 262.102 96.3853C258.395 95.6415 254.637 95.1609 250.857 94.9475C246.858 94.6672 242.842 94.6672 238.842 94.9475C233.714 95.3864 227.862 96.5745 227.862 96.5745Z" fill="#90CAF9"/>
<path opacity="0.2" d="M227.862 96.5745C227.862 96.5745 224.749 97.634 230.974 134.828H257.433C256.99 124.354 256.974 117.892 262.102 96.3853C258.395 95.6415 254.637 95.1609 250.857 94.9475C246.858 94.6672 242.842 94.6672 238.842 94.9475C233.714 95.3864 227.862 96.5745 227.862 96.5745Z" fill="white"/>
<path d="M291.721 135.713L289.697 139.724L288.359 135.493L291.316 131.536L291.721 135.713Z" fill="#E4897B"/>
<path d="M215.768 277.48L209.418 276.05L212.391 261.649L218.741 263.079L215.768 277.48Z" fill="#E4897B"/>
<path d="M258.702 277.525H252.18L252.694 262.845H259.215L258.702 277.525Z" fill="#E4897B"/>
<path d="M212.391 261.656L210.796 269.368L217.208 270.503L218.749 263.087L212.391 261.656Z" fill="#CE6F64"/>
<path d="M259.215 262.845H252.694L252.437 270.412H258.959L259.215 262.845Z" fill="#CE6F64"/>
<path d="M230.974 134.827C230.974 134.827 223.628 183.637 221.045 202.812C218.36 222.752 210.516 267.46 210.516 267.46L219.224 268.754C219.224 268.754 233.006 226.112 236.842 206.702C241.029 185.551 250.359 134.812 250.359 134.812L230.974 134.827Z" fill="#90CAF9"/>
<path opacity="0.7" d="M230.974 134.827C230.974 134.827 223.628 183.637 221.045 202.812C218.36 222.752 210.516 267.46 210.516 267.46L219.224 268.754C219.224 268.754 233.006 226.112 236.842 206.702C241.029 185.551 250.359 134.812 250.359 134.812L230.974 134.827Z" fill="black"/>
<path d="M237.963 134.828C237.963 134.828 241.753 178.332 245.675 202.851C248.842 222.654 251.348 268.951 251.348 268.951H260.235C260.235 268.951 264.468 224.244 262.857 204.629C258.787 155.07 265.931 146.292 257.449 134.805L237.963 134.828Z" fill="#90CAF9"/>
<path opacity="0.7" d="M237.963 134.828C237.963 134.828 241.753 178.332 245.675 202.851C248.842 222.654 251.348 268.951 251.348 268.951H260.235C260.235 268.951 264.468 224.244 262.857 204.629C258.787 155.07 265.931 146.292 257.449 134.805L237.963 134.828Z" fill="black"/>
<path d="M286.725 130.824L291.316 131.536L288.398 135.494C288.398 135.494 283.9 133.912 284.079 131.286L286.725 130.824Z" fill="#E4897B"/>
<path d="M249.441 277.896C248.998 277.934 248.557 277.816 248.196 277.563C248.087 277.463 248.006 277.337 247.961 277.198C247.916 277.059 247.909 276.911 247.939 276.768C247.947 276.678 247.979 276.591 248.032 276.517C248.086 276.442 248.158 276.383 248.243 276.345C249.021 276.012 250.982 277.253 251.208 277.396C251.233 277.412 251.253 277.435 251.266 277.462C251.278 277.489 251.282 277.519 251.278 277.548C251.271 277.576 251.256 277.602 251.236 277.624C251.215 277.645 251.19 277.66 251.161 277.669C250.598 277.805 250.021 277.881 249.441 277.896ZM248.57 276.587C248.505 276.574 248.439 276.574 248.375 276.587C248.338 276.604 248.306 276.631 248.283 276.664C248.259 276.697 248.246 276.736 248.243 276.776C248.22 276.872 248.223 276.971 248.251 277.066C248.28 277.16 248.333 277.245 248.406 277.313C248.733 277.608 249.589 277.646 250.741 277.427C250.085 277.002 249.346 276.716 248.57 276.587Z" fill="#90CAF9"/>
<path d="M251.122 277.669C251.097 277.676 251.07 277.676 251.044 277.669C250.422 277.321 249.239 275.959 249.387 275.24C249.412 275.123 249.477 275.018 249.572 274.942C249.667 274.866 249.785 274.825 249.908 274.824C250.025 274.808 250.144 274.818 250.257 274.852C250.37 274.886 250.474 274.944 250.562 275.02C251.27 275.633 251.278 277.457 251.278 277.54C251.277 277.566 251.269 277.592 251.255 277.614C251.242 277.636 251.223 277.655 251.2 277.669C251.174 277.676 251.147 277.676 251.122 277.669ZM250.017 275.104H249.947C249.745 275.104 249.706 275.217 249.69 275.285C249.597 275.724 250.336 276.746 250.959 277.23C250.974 276.519 250.762 275.821 250.352 275.232C250.307 275.19 250.255 275.157 250.198 275.135C250.14 275.113 250.079 275.102 250.017 275.104Z" fill="#90CAF9"/>
<path d="M208.858 275.096C207.807 274.892 205.979 274.422 205.574 273.582C205.511 273.466 205.478 273.336 205.478 273.204C205.478 273.072 205.511 272.943 205.574 272.826C205.61 272.751 205.666 272.687 205.735 272.641C205.805 272.594 205.886 272.567 205.971 272.561C206.858 272.455 208.765 274.619 208.982 274.831C208.999 274.854 209.009 274.881 209.011 274.91C209.014 274.938 209.008 274.966 208.996 274.992C208.983 275.017 208.963 275.039 208.939 275.054C208.915 275.07 208.887 275.079 208.858 275.081V275.096ZM206.041 272.826H206.002C205.968 272.83 205.936 272.842 205.909 272.862C205.881 272.882 205.86 272.909 205.846 272.939C205.803 273.017 205.78 273.104 205.78 273.193C205.78 273.281 205.803 273.368 205.846 273.446C206.08 273.915 207.045 274.369 208.469 274.695C207.667 273.862 206.547 272.833 206.041 272.833V272.826Z" fill="#90CAF9"/>
<path d="M208.858 275.096C208.816 275.093 208.777 275.074 208.749 275.043C208.165 274.438 207.286 272.606 207.675 272.016C207.752 271.91 207.866 271.833 207.996 271.802C208.126 271.77 208.263 271.784 208.383 271.842C208.531 271.885 208.668 271.956 208.786 272.053C208.903 272.149 209 272.268 209.068 272.402C209.566 273.318 209.029 274.952 209.006 275.02C208.999 275.045 208.985 275.067 208.966 275.085C208.947 275.102 208.923 275.114 208.897 275.119L208.858 275.096ZM208.08 272.069C207.955 272.069 207.924 272.122 207.909 272.145C207.675 272.516 208.212 273.9 208.757 274.627C208.987 273.938 208.987 273.197 208.757 272.508C208.706 272.41 208.635 272.322 208.548 272.252C208.461 272.182 208.36 272.13 208.251 272.099C208.206 272.084 208.159 272.074 208.111 272.069H208.08Z" fill="#90CAF9"/>
<path d="M234.85 72.9945C234.801 72.9951 234.754 72.9845 234.71 72.9634C234.667 72.9423 234.629 72.9115 234.601 72.8734C234.382 72.5611 234.09 72.3036 233.749 72.122C233.409 71.9405 233.028 71.8401 232.64 71.8291C232.595 71.836 232.55 71.8335 232.506 71.8216C232.463 71.8098 232.423 71.7889 232.389 71.7605C232.354 71.7321 232.327 71.6968 232.308 71.657C232.289 71.6173 232.279 71.574 232.279 71.5302C232.279 71.4865 232.289 71.4432 232.308 71.4034C232.327 71.3637 232.354 71.3284 232.389 71.2999C232.423 71.2715 232.463 71.2507 232.506 71.2388C232.55 71.227 232.595 71.2244 232.64 71.2313C233.128 71.2412 233.608 71.3628 234.039 71.5863C234.47 71.8098 234.841 72.1289 235.122 72.5178C235.146 72.55 235.164 72.5866 235.173 72.6254C235.183 72.6642 235.184 72.7044 235.178 72.7438C235.171 72.7832 235.157 72.8209 235.135 72.8549C235.114 72.8888 235.086 72.9183 235.052 72.9415C234.993 72.982 234.922 73.0008 234.85 72.9945Z" fill="#263238"/>
<path d="M233.146 76.6042C232.726 77.7897 232.139 78.9128 231.402 79.9415C231.678 80.1158 231.989 80.2298 232.314 80.2756C232.639 80.3213 232.971 80.2977 233.286 80.2063L233.146 76.6042Z" fill="#DE5753"/>
<path d="M233.558 75.7112C233.558 76.2258 233.317 76.6496 232.967 76.6571C232.616 76.6647 232.328 76.2712 232.313 75.7566C232.297 75.242 232.554 74.8258 232.897 74.8107C233.239 74.7956 233.535 75.2042 233.558 75.7112Z" fill="#263238"/>
<path d="M233.052 74.8337L231.776 74.531C231.776 74.531 232.461 75.4618 233.052 74.8337Z" fill="#263238"/>
<path d="M251.667 276.791H258.99C259.116 276.788 259.239 276.83 259.335 276.91C259.431 276.99 259.494 277.101 259.511 277.223L260.344 282.853C260.36 282.995 260.345 283.139 260.301 283.276C260.256 283.412 260.181 283.538 260.083 283.644C259.984 283.751 259.864 283.836 259.729 283.894C259.594 283.952 259.448 283.981 259.301 283.98C256.748 283.942 255.519 283.791 252.297 283.791C250.313 283.791 247.418 283.995 244.686 283.995C241.955 283.995 241.807 281.362 242.943 281.127C248.048 280.053 248.857 278.585 250.577 277.177C250.884 276.93 251.269 276.793 251.667 276.791Z" fill="#263238"/>
<path d="M209.543 274.423L216.305 277.154C216.423 277.199 216.519 277.283 216.576 277.392C216.634 277.501 216.648 277.626 216.617 277.745L215.169 283.261C215.128 283.399 215.058 283.526 214.962 283.635C214.867 283.745 214.748 283.833 214.615 283.894C214.482 283.956 214.337 283.989 214.19 283.992C214.043 283.995 213.896 283.968 213.761 283.912C211.426 282.921 210.337 282.33 207.364 281.127C205.535 280.37 201.667 279.046 199.138 278.025C196.609 277.003 197.52 274.521 198.664 274.725C203.8 275.648 206.243 275.035 208.383 274.377C208.763 274.259 209.174 274.275 209.543 274.423Z" fill="#263238"/>
<path d="M230.453 105.224C228.925 108.964 227.192 112.622 225.262 116.182C224.305 117.967 223.294 119.746 222.15 121.479C221.885 121.918 221.574 122.349 221.286 122.78C220.998 123.212 220.694 123.651 220.36 124.074C220.025 124.498 219.745 124.937 219.371 125.361L218.842 125.996L218.578 126.314L218.399 126.511L218.189 126.73C217.155 127.735 215.895 128.492 214.508 128.94C213.365 129.309 212.186 129.563 210.99 129.697C208.815 129.947 206.62 129.982 204.438 129.803C200.27 129.481 196.146 128.756 192.127 127.639L192.796 124.491C194.726 124.665 196.734 124.823 198.695 124.899C200.656 124.975 202.625 125.028 204.547 124.952C206.402 124.908 208.251 124.711 210.072 124.362C210.873 124.206 211.655 123.97 212.407 123.658C212.935 123.455 213.409 123.136 213.792 122.727L214.484 121.789C214.749 121.448 214.99 121.032 215.263 120.669C215.761 119.912 216.243 119.103 216.718 118.293C217.659 116.666 218.539 114.956 219.41 113.253C220.282 111.55 221.091 109.787 221.908 108.032C222.726 106.276 223.519 104.49 224.243 102.734L230.453 105.224Z" fill="#E4897B"/>
<path d="M193.154 127.926L186.5 126.814L189.271 122.084C189.271 122.084 193.893 123.287 194.952 125.709L193.154 127.926Z" fill="#E4897B"/>
<path d="M182.111 125.277L183.847 122.432L189.271 122.069L186.5 126.806L182.111 125.277Z" fill="#E4897B"/>
<path d="M251.145 73.282C251.005 79.5705 251.083 82.2342 247.955 85.579C243.286 90.6113 235.332 89.0675 233.543 82.8623C231.932 77.2776 232.437 67.9319 238.647 65.1925C240.015 64.5829 241.52 64.3232 243.019 64.4382C244.519 64.5531 245.963 65.0389 247.215 65.8494C248.468 66.6599 249.486 67.7682 250.174 69.0691C250.862 70.3699 251.196 71.8201 251.145 73.282Z" fill="#E4897B"/>
<path d="M258.927 73.1685C258.352 68.6281 256.071 64.1633 253.527 61.9688C247.394 56.6716 239.161 60.9094 235.099 64.1482C230.85 67.5384 233.776 72.9112 236.375 75.6052C236.417 76.5694 236.569 77.5261 236.827 78.4581C236.422 80.9402 234.718 83.3996 232.329 85.3822C240.414 87.6524 252.25 87.8416 256.624 86.26C262.274 84.2244 259.994 82.6201 258.927 73.1685Z" fill="#263238"/>
<path d="M238.741 76.1956C238.631 77.3802 238.109 78.4932 237.262 79.3512C236.111 80.509 234.928 79.8431 234.718 78.4734C234.539 77.2399 234.92 75.1513 236.321 74.493C237.721 73.8346 238.834 74.7957 238.741 76.1956Z" fill="#E4897B"/>
<path d="M209.232 267.491L220.391 269.337L221.659 265.243L209.714 263.253L209.232 267.491Z" fill="#90CAF9"/>
<path d="M250.126 269.118H261.449L262.04 265.259L250.064 264.865L250.126 269.118Z" fill="#90CAF9"/>
<path d="M257.846 133.322L259.036 135.592C259.13 135.773 258.912 135.955 258.608 135.955H230.811C230.578 135.955 230.375 135.842 230.36 135.69L230.126 133.42C230.126 133.261 230.313 133.125 230.578 133.125H257.387C257.474 133.112 257.564 133.123 257.646 133.158C257.727 133.193 257.796 133.25 257.846 133.322Z" fill="#90CAF9"/>
<path opacity="0.6" d="M257.846 133.322L259.036 135.592C259.13 135.773 258.912 135.955 258.608 135.955H230.811C230.578 135.955 230.375 135.842 230.36 135.69L230.126 133.42C230.126 133.261 230.313 133.125 230.578 133.125H257.387C257.474 133.112 257.564 133.123 257.646 133.158C257.727 133.193 257.796 133.25 257.846 133.322Z" fill="white"/>
<path d="M254.243 136.25H254.935C255.075 136.25 255.184 136.175 255.176 136.091L254.834 133.064C254.834 132.974 254.702 132.906 254.562 132.906H253.838C253.698 132.906 253.589 132.974 253.597 133.064L253.939 136.091C253.978 136.159 254.103 136.25 254.243 136.25Z" fill="#90CAF9"/>
<path d="M236.842 136.25H237.558C237.698 136.25 237.815 136.175 237.799 136.091L237.465 133.064C237.465 132.974 237.332 132.906 237.184 132.906H236.469C236.328 132.906 236.22 132.974 236.227 133.064L236.562 136.091C236.57 136.159 236.694 136.25 236.842 136.25Z" fill="#90CAF9"/>
<path opacity="0.7" d="M254.243 136.25H254.935C255.075 136.25 255.184 136.175 255.176 136.091L254.834 133.064C254.834 132.974 254.702 132.906 254.562 132.906H253.838C253.698 132.906 253.589 132.974 253.597 133.064L253.939 136.091C253.978 136.159 254.103 136.25 254.243 136.25Z" fill="black"/>
<path opacity="0.7" d="M236.842 136.25H237.558C237.698 136.25 237.815 136.175 237.799 136.091L237.465 133.064C237.465 132.974 237.332 132.906 237.184 132.906H236.469C236.328 132.906 236.22 132.974 236.227 133.064L236.562 136.091C236.57 136.159 236.694 136.25 236.842 136.25Z" fill="black"/>
<path d="M227.862 96.5748C224.617 97.3315 220.632 105.989 220.632 105.989L228.344 115.599C228.344 115.599 236.313 104.634 235.247 101.289C234.142 97.8007 231.792 95.644 227.862 96.5748Z" fill="#90CAF9"/>
<path opacity="0.2" d="M227.862 96.5748C224.617 97.3315 220.632 105.989 220.632 105.989L228.344 115.599C228.344 115.599 236.313 104.634 235.247 101.289C234.142 97.8007 231.792 95.644 227.862 96.5748Z" fill="white"/>
</svg>
