<svg width="65" height="66" viewBox="0 0 65 66" fill="none" xmlns="http://www.w3.org/2000/svg">
<path d="M16.632 34.832L17.7033 32.3628H12.9755L11.3996 39.415H15.2482L16.4888 36.664L16.632 34.832Z" fill="white"/>
<path d="M12.9753 32.3628H17.7031L24.5148 16.7114L31.3069 32.3564H39.74L24.5148 0L0 52.1071H9.5337L15.2481 39.415H11.3994L12.9753 32.3628Z" fill="white"/>
<path d="M26.654 39.415V32.3628H17.7032L16.6319 34.832L16.4887 36.664L15.2481 39.415" fill="white"/>
<path d="M37.9199 39.415H33.7424L39.4991 52.1071H49.0328L43.0612 39.415H37.9199Z" fill="white"/>
<path d="M63.3692 2.75073H54.8384V52.1068H63.3692V2.75073Z" fill="white"/>
<path d="M31.3068 32.3567H26.6539V32.3631H31.31L31.3068 32.3567Z" fill="white"/>
<path d="M9.71592 59.0472H11.0314L8.28977 66.0001L6.21893 61.3306L4.14808 66.0001L1.40649 59.0472H2.72194L4.31414 63.4732L6.22218 58.7173L8.14976 63.4732L9.72243 59.0472H9.71592Z" fill="white"/>
<path d="M18.7418 59.0471V65.651H17.6087V59.0471H18.7418ZM18.2827 59.0471H19.6828C20.168 59.0471 20.5913 59.1336 20.9527 59.3033C21.3141 59.4731 21.5941 59.7101 21.7928 60.0143C21.9914 60.3186 22.0891 60.6805 22.0891 61.0936C22.0891 61.5068 21.9914 61.8719 21.7928 62.1793C21.5941 62.4868 21.3141 62.727 20.9527 62.8967C20.5913 63.0664 20.168 63.1529 19.6828 63.1529H18.2827V62.237H19.634C19.8912 62.237 20.1159 62.1921 20.3113 62.1057C20.5066 62.0192 20.6564 61.8911 20.7671 61.7245C20.8778 61.558 20.9299 61.3594 20.9299 61.1256C20.9299 60.8918 20.8745 60.6869 20.7671 60.5235C20.6596 60.3602 20.5066 60.2353 20.3113 60.1456C20.1159 60.0592 19.8912 60.0143 19.634 60.0143H18.2827V59.0535V59.0471ZM20.2201 62.4996L22.4928 65.651H21.1318L18.9926 62.4996H20.2201Z" fill="white"/>
<path d="M30.2128 59.0471V65.651H29.0699V59.0471H30.2128Z" fill="white"/>
<path d="M36.7933 59.0471H41.4723V60.0752H39.6977V65.651H38.5548V60.0752H36.7901V59.0471H36.7933Z" fill="white"/>
<path d="M49.1662 59.0471V65.651H48.0526V59.0471H49.1662ZM48.7527 59.0471H52.1389V60.0271H48.7527V59.0471ZM48.7527 61.6317H51.9468V62.5925H48.7527V61.6317ZM48.7527 64.671H52.1389V65.651H48.7527V64.671Z" fill="white"/>
<path d="M60.4158 59.0471V65.651H59.2827V59.0471H60.4158ZM59.9567 59.0471H61.3568C61.8419 59.0471 62.2652 59.1336 62.6266 59.3033C62.9881 59.4731 63.2681 59.7101 63.4667 60.0143C63.6653 60.3186 63.763 60.6805 63.763 61.0936C63.763 61.5068 63.6653 61.8719 63.4667 62.1793C63.2681 62.4868 62.9881 62.727 62.6266 62.8967C62.2652 63.0664 61.8419 63.1529 61.3568 63.1529H59.9567V62.237H61.3079C61.5652 62.237 61.7898 62.1921 61.9852 62.1057C62.1806 62.0192 62.3336 61.8911 62.441 61.7245C62.5485 61.558 62.6038 61.3594 62.6038 61.1256C62.6038 60.8918 62.5485 60.6869 62.441 60.5235C62.3336 60.3602 62.1806 60.2353 61.9852 60.1456C61.7898 60.0592 61.5652 60.0143 61.3079 60.0143H59.9567V59.0535V59.0471ZM61.894 62.4996L64.1668 65.651H62.8057L60.6665 62.4996H61.894Z" fill="white"/>
</svg>
