<svg width="65" height="66" viewBox="0 0 65 66" fill="none" xmlns="http://www.w3.org/2000/svg">
<g clip-path="url(#clip0_43_2006)">
<path d="M63.37 2.75H54.84V52.11H63.37V2.75Z" fill="white"/>
<path d="M9.72004 59.05H11.04L8.30004 66L6.23004 61.33L4.16004 66L1.42004 59.05H2.74004L4.33004 63.48L6.24004 58.72L8.17004 63.48L9.74004 59.05H9.72004Z" fill="white"/>
<path d="M18.74 59.05V65.6501H17.61V59.05H18.74ZM18.28 59.05H19.68C20.17 59.05 20.59 59.1401 20.95 59.3101C21.31 59.4801 21.59 59.7201 21.79 60.0201C21.99 60.3201 22.09 60.69 22.09 61.1C22.09 61.51 21.99 61.88 21.79 62.19C21.59 62.5 21.31 62.74 20.95 62.91C20.59 63.08 20.17 63.17 19.68 63.17H18.28V62.25H19.63C19.89 62.25 20.11 62.21 20.31 62.12C20.51 62.03 20.66 61.9101 20.77 61.7401C20.88 61.5701 20.93 61.37 20.93 61.14C20.93 60.91 20.87 60.7001 20.77 60.5401C20.66 60.3801 20.51 60.25 20.31 60.16C20.11 60.07 19.89 60.03 19.63 60.03H18.28V59.07V59.05ZM20.22 62.5L22.49 65.6501H21.13L18.99 62.5H20.22Z" fill="white"/>
<path d="M30.2099 59.05V65.6501H29.0699V59.05H30.2099Z" fill="white"/>
<path d="M36.79 59.05H41.47V60.0801H39.7V65.6601H38.56V60.0801H36.8V59.05H36.79Z" fill="white"/>
<path d="M49.1701 59.05V65.6501H48.0601V59.05H49.1701ZM48.7601 59.05H52.1501V60.03H48.7601V59.05ZM48.7601 61.6301H51.9501V62.59H48.7601V61.6301ZM48.7601 64.67H52.1501V65.6501H48.7601V64.67Z" fill="white"/>
<path d="M60.42 59.05V65.6501H59.29V59.05H60.42ZM59.96 59.05H61.36C61.85 59.05 62.27 59.1401 62.63 59.3101C62.99 59.4801 63.27 59.7201 63.47 60.0201C63.67 60.3201 63.77 60.69 63.77 61.1C63.77 61.51 63.67 61.88 63.47 62.19C63.27 62.5 62.99 62.74 62.63 62.91C62.27 63.08 61.85 63.17 61.36 63.17H59.96V62.25H61.31C61.57 62.25 61.79 62.21 61.99 62.12C62.19 62.03 62.34 61.9101 62.45 61.7401C62.56 61.5701 62.61 61.37 62.61 61.14C62.61 60.91 62.55 60.7001 62.45 60.5401C62.34 60.3801 62.19 60.25 61.99 60.16C61.79 60.07 61.57 60.03 61.31 60.03H59.96V59.07V59.05ZM61.9 62.5L64.17 65.6501H62.81L60.67 62.5H61.9Z" fill="white"/>
<path fill-rule="evenodd" clip-rule="evenodd" d="M24.52 16.71L17.8667 32H18H26V40H15.271H14.979L9.53 52.11H0L24.51 0L40 32H35.5H31.5L24.52 16.71Z" fill="white"/>
<path d="M38 40H34L39.5 52.1099H49.03L43 40H38Z" fill="white"/>
</g>
<defs>
<clipPath id="clip0_43_2006">
<rect width="64.17" height="66" fill="white"/>
</clipPath>
</defs>
</svg>
