<?xml version="1.0" encoding="UTF-8"?>
<svg id="Layer_2" data-name="Layer 2" xmlns="http://www.w3.org/2000/svg" viewBox="0 0 197.07 206.08">
  <defs>
    <style>
      .cls-1 {
        fill: #fff;
      }

      .cls-2 {
        fill: none;
      }

      .cls-3 {
        fill: #5f94c0;
      }
    </style>
  </defs>
  <g id="Layer_2-2" data-name="Layer 2">
    <g id="Layer_1-2" data-name="Layer 1-2">
      <g>
        <polygon class="cls-2" points="96.15 101.03 75.29 52.18 54.37 101.05 81.86 101.05 81.86 101.03 96.15 101.03"/>
        <polygon class="cls-3" points="96.15 101.03 122.05 101.03 75.29 0 0 162.7 29.28 162.7 46.83 123.07 81.86 123.07 81.86 101.05 54.37 101.05 75.29 52.18 96.15 101.03"/>
        <polygon class="cls-3" points="116.46 123.07 116.46 123.07 103.63 123.07 121.31 162.7 150.59 162.7 132.25 123.07 116.46 123.07"/>
        <rect class="cls-3" x="168.42" y="8.59" width="26.2" height="154.11"/>
        <polygon class="cls-1" points="96.15 101.03 81.86 101.03 81.86 101.05 96.16 101.05 96.15 101.03"/>
      </g>
      <g>
        <path class="cls-3" d="m29.84,184.37h4.04l-8.42,21.71-6.36-14.58-6.36,14.58-8.42-21.71h4.04l4.89,13.82,5.86-14.85,5.92,14.85,4.83-13.82h-.02Z"/>
        <path class="cls-3" d="m57.56,184.37v20.62h-3.48v-20.62h3.48Zm-1.41,0h4.3c1.49,0,2.79.27,3.9.8,1.11.53,1.97,1.27,2.58,2.22s.91,2.08.91,3.37-.3,2.43-.91,3.39-1.47,1.71-2.58,2.24-2.41.8-3.9.8h-4.3v-2.86h4.15c.79,0,1.48-.14,2.08-.41s1.06-.67,1.4-1.19c.34-.52.5-1.14.5-1.87s-.17-1.37-.5-1.88-.8-.9-1.4-1.18c-.6-.27-1.29-.41-2.08-.41h-4.15v-3.02Zm5.95,10.78l6.98,9.84h-4.18l-6.57-9.84h3.77Z"/>
        <path class="cls-3" d="m92.79,184.37v20.62h-3.51v-20.62h3.51Z"/>
        <path class="cls-3" d="m113,184.37h14.37v3.21h-5.45v17.41h-3.51v-17.41h-5.42v-3.21h0Z"/>
        <path class="cls-3" d="m151,184.37v20.62h-3.42v-20.62h3.42Zm-1.27,0h10.4v3.06h-10.4v-3.06Zm0,8.07h9.81v3h-9.81v-3Zm0,9.49h10.4v3.06h-10.4v-3.06Z"/>
        <path class="cls-3" d="m185.55,184.37v20.62h-3.48v-20.62h3.48Zm-1.41,0h4.3c1.49,0,2.79.27,3.9.8s1.97,1.27,2.58,2.22.91,2.08.91,3.37-.3,2.43-.91,3.39-1.47,1.71-2.58,2.24-2.41.8-3.9.8h-4.3v-2.86h4.15c.79,0,1.48-.14,2.08-.41s1.07-.67,1.4-1.19c.33-.52.5-1.14.5-1.87s-.17-1.37-.5-1.88c-.33-.51-.8-.9-1.4-1.18-.6-.27-1.29-.41-2.08-.41h-4.15v-3.02Zm5.95,10.78l6.98,9.84h-4.18l-6.57-9.84h3.77Z"/>
      </g>
    </g>
  </g>
</svg>