<svg width="206" height="274" viewBox="0 0 206 274" fill="none" xmlns="http://www.w3.org/2000/svg">
<path fill-rule="evenodd" clip-rule="evenodd" d="M42.8324 1.12879C66.2326 -6.01763 85.3464 22.4896 104.023 38.2736C121.24 52.823 142.93 66.4934 146.49 88.7296C149.956 110.385 135.119 130.63 121.571 147.893C111.286 160.998 92.0705 161.938 80.0113 173.438C64.6906 188.047 62.8841 216.145 42.8324 222.975C22.2321 229.992 0.360941 217.319 -18.8555 207.114C-40.8353 195.441 -64.9964 183.355 -74.7945 160.507C-84.9223 136.89 -87.791 104.921 -71.0439 85.4148C-53.9763 65.5356 -17.1717 84.4459 3.89605 68.8525C25.3658 52.9616 17.2746 8.93415 42.8324 1.12879Z" fill="#C9E2F5"/>
<path d="M22.9383 254.593C63.4779 279.966 129.207 279.966 169.746 254.593C210.286 229.22 210.291 188.07 169.746 162.697C129.201 137.324 63.4779 137.317 22.9383 162.697C-17.6013 188.077 -17.6013 229.214 22.9383 254.593Z" fill="#EBEBEB"/>
<path d="M181.67 191.638L175.757 187.606C175.757 187.606 174.307 172.75 175.27 161.246C176.628 145.072 185.532 125.632 196.15 130.188C206.768 134.744 191.274 151.254 187.836 164.962C184.398 178.669 181.67 191.638 181.67 191.638Z" fill="#90CAF9"/>
<path opacity="0.1" d="M181.67 191.638L175.757 187.606C175.757 187.606 174.307 172.75 175.27 161.246C176.628 145.072 185.532 125.632 196.15 130.188C206.768 134.744 191.274 151.254 187.836 164.962C184.398 178.669 181.67 191.638 181.67 191.638Z" fill="black"/>
<path d="M178.593 189.817C178.538 189.818 178.484 189.795 178.442 189.753C178.4 189.711 178.372 189.653 178.364 189.589C176.353 171.446 181.859 144.023 192.975 133.622C192.998 133.6 193.025 133.584 193.053 133.574C193.081 133.564 193.111 133.561 193.14 133.565C193.17 133.569 193.198 133.579 193.224 133.596C193.25 133.612 193.272 133.635 193.291 133.662C193.328 133.717 193.346 133.788 193.339 133.858C193.333 133.929 193.303 133.993 193.256 134.038C182.26 144.333 176.823 171.54 178.817 189.515C178.825 189.585 178.809 189.656 178.772 189.713C178.736 189.77 178.682 189.807 178.622 189.817H178.593Z" fill="white"/>
<path d="M184.827 194.507L180.622 191.652C180.622 191.652 179.905 181.458 184.169 169.074C187.876 158.323 197.084 149.345 201.714 151.227C206.344 153.108 206.229 156.959 203.971 160.997C201.714 165.035 187.979 174.665 184.827 194.507Z" fill="#90CAF9"/>
<path d="M182.22 194.769C182.19 194.768 182.161 194.759 182.134 194.744C182.107 194.729 182.083 194.707 182.063 194.681C182.044 194.655 182.029 194.624 182.019 194.591C182.01 194.557 182.006 194.522 182.008 194.487C183.395 169.114 194.339 156.636 200.917 154.734C200.976 154.718 201.039 154.729 201.091 154.765C201.144 154.802 201.182 154.86 201.198 154.929C201.212 154.998 201.202 155.07 201.171 155.13C201.14 155.191 201.09 155.234 201.032 155.252C194.104 157.268 183.767 170.774 182.472 194.521C182.47 194.557 182.462 194.592 182.448 194.624C182.434 194.656 182.415 194.685 182.391 194.708C182.368 194.731 182.341 194.748 182.311 194.759C182.282 194.77 182.251 194.773 182.22 194.769Z" fill="white"/>
<path d="M11.3523 193.614C11.3523 193.614 12.1373 178.716 4.75708 168.503C-2.62313 158.289 -12.2323 158.329 -15.4124 160.231C-18.5926 162.133 -20.7299 167.569 -15.2577 171.459C-9.78561 175.35 1.85199 183.138 3.78872 190.086L11.3523 193.614Z" fill="#90CAF9"/>
<path opacity="0.1" d="M11.3523 193.614C11.3523 193.614 12.1373 178.716 4.75708 168.503C-2.62313 158.289 -12.2323 158.329 -15.4124 160.231C-18.5926 162.133 -20.7299 167.569 -15.2577 171.459C-9.78561 175.35 1.85199 183.138 3.78872 190.086L11.3523 193.614Z" fill="black"/>
<path d="M7.87991 189.884C7.809 189.883 7.74084 189.852 7.68813 189.796C7.63541 189.741 7.60175 189.665 7.59341 189.582C6.07497 173.099 -7.97495 163.967 -13.5731 162.932C-13.6108 162.926 -13.6469 162.91 -13.6795 162.887C-13.7121 162.864 -13.7405 162.834 -13.7631 162.798C-13.7858 162.762 -13.8021 162.722 -13.8113 162.678C-13.8205 162.635 -13.8223 162.59 -13.8167 162.546C-13.811 162.502 -13.798 162.459 -13.7784 162.421C-13.7588 162.383 -13.733 162.35 -13.7024 162.323C-13.6718 162.297 -13.637 162.277 -13.6001 162.267C-13.5632 162.256 -13.5248 162.254 -13.4872 162.26C-7.75721 163.315 6.60786 172.655 8.16641 189.508C8.17037 189.552 8.16682 189.597 8.15597 189.639C8.14513 189.682 8.12719 189.722 8.10322 189.756C8.07924 189.79 8.04969 189.819 8.01628 189.84C7.98287 189.86 7.94626 189.873 7.90856 189.878L7.87991 189.884Z" fill="white"/>
<path d="M5.1467 186.101C3.29592 181.156 1.20448 178.938 -4.812 180.121C-10.8285 181.303 -9.96899 181.122 -17.332 178.911C-20.4377 177.984 -23.9272 177.836 -26.9068 179.409C-29.4223 180.752 -31.3017 183.44 -28.8665 186.303C-26.1275 189.501 -22.0421 190.597 -19.0166 193.412C-18.3303 193.981 -17.7847 194.753 -17.4352 195.65C-16.6387 198.028 -18.2316 200.71 -17.7675 203.202C-17.3034 205.695 -15.0687 207.026 -12.9715 207.187C-10.8743 207.348 -8.8058 206.609 -6.71436 206.327C-4.62291 206.045 -2.27362 206.327 -0.829667 208.148C0.717428 210.077 0.757537 213.161 2.19576 215.21C4.35024 218.281 9.64474 219.134 12.5097 217.226L20.0103 212.153C24.9667 204.318 17.1453 198.109 13.0483 192.028C11.06 189.065 6.25832 189.078 5.1467 186.101Z" fill="#90CAF9"/>
<path d="M15.3633 207.422C15.3145 207.424 15.2663 207.409 15.2239 207.381C15.1815 207.352 15.1465 207.311 15.1226 207.261C6.56777 191.006 -16.7246 182.782 -24.9643 182.11C-25.0393 182.103 -25.109 182.062 -25.1583 181.995C-25.2077 181.928 -25.2326 181.842 -25.2279 181.754C-25.222 181.665 -25.1871 181.583 -25.1304 181.524C-25.0738 181.465 -24.9999 181.434 -24.9242 181.438C-16.5756 182.11 6.94022 190.455 15.6097 206.925C15.6481 207.002 15.6594 207.093 15.6412 207.18C15.623 207.267 15.5767 207.341 15.5123 207.389C15.4654 207.413 15.4145 207.424 15.3633 207.422Z" fill="white"/>
<path d="M-11.7338 199.762C-11.7784 199.763 -11.8226 199.751 -11.8626 199.728C-11.9025 199.705 -11.937 199.67 -11.963 199.628C-12.0086 199.556 -12.0282 199.467 -12.0174 199.379C-12.0067 199.29 -11.9665 199.211 -11.9057 199.157C-11.6077 198.895 -4.50256 192.78 2.41926 192.66C2.45661 192.659 2.49374 192.666 2.52847 192.683C2.56319 192.699 2.59483 192.723 2.62151 192.754C2.64819 192.784 2.66938 192.821 2.68385 192.861C2.69832 192.902 2.70577 192.945 2.70576 192.989C2.70652 193.033 2.69986 193.077 2.68616 193.118C2.67246 193.159 2.65199 193.196 2.62591 193.228C2.59984 193.26 2.56868 193.286 2.5342 193.303C2.49973 193.321 2.46261 193.331 2.42499 193.331C-4.29628 193.446 -11.4759 199.634 -11.5504 199.695C-11.6022 199.744 -11.6676 199.767 -11.7338 199.762Z" fill="white"/>
<path d="M14.8304 213.134C14.8916 214.111 15.1481 215.058 15.5791 215.897C16.0101 216.736 16.6036 217.445 17.3114 217.965L86.8333 265.036C87.6022 265.493 88.4522 265.731 89.3144 265.731C90.1765 265.731 91.0266 265.493 91.7955 265.036L186.913 200.629C187.663 200.165 188.29 199.47 188.728 198.618C189.166 197.767 189.397 196.792 189.397 195.797C189.397 194.803 189.166 193.828 188.728 192.977C188.29 192.125 187.663 191.43 186.913 190.966L117.397 143.929C116.628 143.472 115.778 143.233 114.916 143.233C114.054 143.233 113.204 143.472 112.435 143.929L17.3114 208.316C16.6051 208.835 16.0125 209.542 15.5816 210.378C15.1507 211.215 14.8933 212.159 14.8304 213.134Z" fill="#37474F"/>
<path d="M43.5147 190.563L17.3114 208.316C16.5617 208.78 15.9342 209.475 15.4965 210.327C15.0587 211.178 14.8274 212.153 14.8274 213.147C14.8274 214.141 15.0587 215.117 15.4965 215.968C15.9342 216.82 16.5617 217.515 17.3114 217.979L86.8333 265.049C87.598 265.517 88.452 265.749 89.3144 265.721V190.563H43.5147Z" fill="#263238"/>
<path d="M12.4982 208.41C11.8077 207.858 11.2374 207.124 10.8333 206.266C10.4292 205.408 10.2027 204.451 10.1719 203.471V106.179C10.218 105.169 10.4668 104.187 10.8979 103.311C11.329 102.435 11.9303 101.691 12.653 101.139L107.771 36.7326C108.489 36.2044 109.316 35.9157 110.163 35.8974C111.011 35.8791 111.846 36.1319 112.58 36.6287C113.314 37.1254 113.919 37.8473 114.33 38.7169C114.74 39.5864 114.941 40.5707 114.91 41.5639V138.863C114.863 139.872 114.614 140.855 114.183 141.73C113.752 142.606 113.151 143.35 112.429 143.903L17.3114 208.316C16.5717 208.773 15.7506 209.02 14.9144 209.037C14.0783 209.053 13.2505 208.838 12.4982 208.41Z" fill="#455A64"/>
<path d="M21.8152 110.701L10.8996 103.31C10.4649 104.182 10.2263 105.169 10.2062 106.179V203.471C10.237 204.451 10.4636 205.408 10.8677 206.266C11.2717 207.124 11.8421 207.858 12.5326 208.41C13.2851 208.835 14.1122 209.047 14.9473 209.028C15.7823 209.01 16.602 208.761 17.3401 208.303L28.1926 200.958L21.8152 110.701Z" fill="#263238"/>
<path d="M14.8304 109.337V206.623C14.8304 208.477 15.942 209.23 17.3114 208.303L112.429 143.903C113.151 143.35 113.752 142.606 114.183 141.73C114.614 140.855 114.863 139.872 114.91 138.863V41.5706C114.91 39.716 113.799 38.9635 112.429 39.8908L17.3114 104.298C16.5888 104.849 15.9875 105.593 15.5564 106.469C15.1252 107.345 14.8765 108.327 14.8304 109.337Z" fill="#37474F"/>
<path d="M17.3114 211.676L86.8333 258.713C87.6021 259.17 88.4522 259.408 89.3143 259.408C90.1765 259.408 91.0265 259.17 91.7954 258.713L186.913 194.306C188.288 193.378 188.288 191.873 186.913 190.946L117.397 143.909C116.628 143.452 115.778 143.213 114.916 143.213C114.054 143.213 113.204 143.452 112.435 143.909L17.3114 208.316C15.9362 209.23 15.9362 210.735 17.3114 211.676Z" fill="#455A64"/>
<path d="M18.6465 109.693L111.1 47.1008C111.919 46.5431 112.59 46.9933 112.59 48.1088V132.325C112.561 132.93 112.411 133.52 112.152 134.045C111.893 134.57 111.533 135.017 111.1 135.349L18.6465 197.941C17.8214 198.499 17.1567 198.049 17.1567 196.933V112.717C17.1842 112.111 17.3336 111.521 17.5925 110.996C17.8514 110.47 18.2125 110.024 18.6465 109.693Z" fill="white"/>
<path d="M25.3792 209.143L113.673 149.339C114.057 149.11 114.482 148.991 114.913 148.991C115.344 148.991 115.769 149.11 116.154 149.339L120.675 152.396C120.824 152.456 120.954 152.569 121.046 152.719C121.138 152.87 121.188 153.051 121.188 153.236C121.188 153.421 121.138 153.602 121.046 153.753C120.954 153.903 120.824 154.016 120.675 154.076L32.3641 213.873C31.9796 214.102 31.5546 214.221 31.1235 214.221C30.6925 214.221 30.2675 214.102 29.883 213.873L25.3792 210.822C25.2296 210.763 25.0996 210.65 25.0075 210.499C24.9154 210.348 24.8659 210.168 24.8659 209.982C24.8659 209.797 24.9154 209.616 25.0075 209.466C25.0996 209.315 25.2296 209.202 25.3792 209.143Z" fill="#263238"/>
<path d="M37.0225 217.051L125.31 157.248C125.696 157.019 126.122 156.9 126.553 156.9C126.985 156.9 127.411 157.019 127.797 157.248L155.57 176.062C155.72 176.122 155.85 176.235 155.942 176.385C156.034 176.536 156.083 176.717 156.083 176.902C156.083 177.088 156.034 177.268 155.942 177.419C155.85 177.57 155.72 177.683 155.57 177.742L67.38 237.425C66.9945 237.654 66.5685 237.773 66.1366 237.773C65.7046 237.773 65.2787 237.654 64.8932 237.425L37.0225 218.698C36.8801 218.634 36.7574 218.522 36.6708 218.375C36.5843 218.228 36.5379 218.053 36.5379 217.875C36.5379 217.696 36.5843 217.521 36.6708 217.374C36.7574 217.227 36.8801 217.115 37.0225 217.051Z" fill="#263238"/>
<path d="M116.165 184.126L118.933 182.251C119.047 182.17 119.042 182.043 118.933 181.955L115.735 179.792C115.667 179.75 115.591 179.729 115.515 179.729C115.438 179.729 115.362 179.75 115.294 179.792L112.532 181.666C112.412 181.747 112.418 181.875 112.532 181.962L115.73 184.126C115.797 184.166 115.872 184.187 115.947 184.187C116.023 184.187 116.098 184.166 116.165 184.126ZM110.71 176.734L107.948 178.609C107.828 178.683 107.834 178.817 107.948 178.905L111.146 181.068C111.214 181.11 111.289 181.131 111.366 181.131C111.443 181.131 111.519 181.11 111.587 181.068L114.354 179.194C114.469 179.113 114.463 178.979 114.354 178.898L111.151 176.734C111.083 176.693 111.007 176.671 110.931 176.671C110.854 176.671 110.778 176.693 110.71 176.734ZM101.783 182.782L97.1014 185.947C96.9868 186.027 96.9925 186.162 97.1014 186.249L100.299 188.413C100.367 188.454 100.443 188.476 100.519 188.476C100.596 188.476 100.672 188.454 100.74 188.413L105.416 185.248C105.536 185.167 105.524 185.033 105.416 184.952L102.218 182.782C102.151 182.741 102.076 182.719 102.001 182.719C101.925 182.719 101.85 182.741 101.783 182.782ZM106.67 179.469L103.909 181.344C103.788 181.424 103.794 181.559 103.909 181.639L107.106 183.803C107.174 183.844 107.25 183.866 107.327 183.866C107.403 183.866 107.479 183.844 107.547 183.803L110.315 181.928C110.429 181.848 110.424 181.72 110.315 181.633L107.112 179.422C107.043 179.381 106.968 179.359 106.891 179.359C106.814 179.359 106.739 179.381 106.67 179.422V179.469ZM95.8236 186.813L93.0618 188.682C92.9415 188.762 92.9529 188.897 93.0618 188.984L96.2591 191.148C96.3267 191.187 96.4013 191.208 96.4768 191.208C96.5524 191.208 96.627 191.187 96.6946 191.148L99.4622 189.273C99.5768 189.192 99.571 189.058 99.4622 188.977L96.2648 186.813C96.1966 186.772 96.121 186.751 96.0442 186.751C95.9675 186.751 95.8918 186.772 95.8236 186.813ZM91.8126 189.548L89.0508 191.423C88.9305 191.497 88.9419 191.631 89.0508 191.719L92.2481 193.882C92.3163 193.924 92.392 193.945 92.4687 193.945C92.5455 193.945 92.6211 193.924 92.6893 193.882L95.4569 192.008C95.5715 191.927 95.5658 191.793 95.4569 191.712L92.2252 189.501C92.157 189.46 92.0814 189.439 92.0046 189.439C91.9278 189.439 91.8522 189.46 91.784 189.501L91.8126 189.548ZM104.39 198.351L107.152 196.476C107.272 196.396 107.261 196.268 107.152 196.181L103.954 194.017C103.887 193.976 103.813 193.954 103.737 193.954C103.661 193.954 103.586 193.976 103.519 194.017L100.751 195.892C100.637 195.972 100.643 196.1 100.751 196.187L103.949 198.351C104.015 198.382 104.087 198.395 104.158 198.389C104.23 198.383 104.299 198.359 104.361 198.317L104.39 198.351ZM100.345 201.086L103.112 199.211C103.227 199.137 103.221 199.003 103.112 198.915L99.9148 196.752C99.8466 196.71 99.771 196.689 99.6942 196.689C99.6175 196.689 99.5418 196.71 99.4736 196.752L96.7118 198.626C96.5914 198.707 96.6029 198.841 96.7118 198.922L99.9091 201.086C99.9747 201.116 100.045 201.129 100.116 201.123C100.186 201.118 100.255 201.093 100.316 201.052L100.345 201.086ZM96.305 203.821L99.0725 201.953C99.1871 201.872 99.1814 201.738 99.0725 201.65L95.8752 199.487C95.8066 199.447 95.7311 199.426 95.6546 199.426C95.5781 199.426 95.5026 199.447 95.434 199.487L92.6721 201.361C92.5518 201.442 92.5633 201.576 92.6721 201.657L95.8637 203.821C95.9303 203.851 96.0019 203.864 96.0732 203.858C96.1446 203.853 96.214 203.828 96.2763 203.787L96.305 203.821ZM92.294 206.555L95.0615 204.687C95.1761 204.607 95.1704 204.472 95.0615 204.385L91.8642 202.221C91.796 202.18 91.7204 202.159 91.6436 202.159C91.5669 202.159 91.4912 202.18 91.423 202.221L88.6612 204.089C88.5408 204.17 88.5466 204.304 88.6612 204.392L91.8585 206.555C91.9834 206.603 92.1193 206.591 92.2367 206.522L92.294 206.555ZM112.183 186.908L114.95 185.033C115.065 184.959 115.059 184.825 114.95 184.737L111.753 182.573C111.684 182.534 111.609 182.513 111.532 182.513C111.456 182.513 111.38 182.534 111.312 182.573L108.55 184.448C108.43 184.529 108.435 184.663 108.55 184.744L111.747 186.908C111.809 186.932 111.874 186.942 111.939 186.936C112.004 186.93 112.068 186.909 112.125 186.874L112.183 186.908ZM108.458 195.643L114.624 191.463C114.738 191.389 114.733 191.255 114.624 191.168L106.86 185.913C106.791 185.872 106.716 185.85 106.639 185.85C106.562 185.85 106.487 185.872 106.418 185.913L103.232 188.077C103.112 188.151 103.124 188.285 103.232 188.372L107.347 191.154C107.473 191.242 107.478 191.376 107.347 191.457L104.751 193.11C104.636 193.184 104.642 193.318 104.751 193.405L107.96 195.549C108.026 195.595 108.1 195.623 108.177 195.629C108.254 195.634 108.33 195.619 108.401 195.582L108.458 195.643ZM87.8017 192.283L85.0398 194.158C84.9195 194.239 84.9252 194.366 85.0398 194.454L88.2371 196.617C88.3053 196.659 88.381 196.68 88.4577 196.68C88.5345 196.68 88.6101 196.659 88.6783 196.617L91.4459 194.743C91.5605 194.662 91.5548 194.534 91.4459 194.447L88.2486 192.283C88.1754 192.223 88.0896 192.189 88.0005 192.183C87.9115 192.177 87.8228 192.2 87.7444 192.25L87.8017 192.283ZM83.7907 195.018L80.9371 196.893C80.8225 196.973 80.8283 197.108 80.9371 197.188L84.1345 199.352C84.2027 199.393 84.2783 199.415 84.3551 199.415C84.4318 199.415 84.5075 199.393 84.5757 199.352L87.3433 197.477C87.4579 197.403 87.4521 197.269 87.3433 197.182L84.123 194.998C84.0586 194.959 83.9876 194.937 83.9152 194.935C83.8427 194.933 83.7708 194.95 83.7047 194.984L83.7907 195.018ZM63.4951 225.659C63.5633 225.7 63.6389 225.722 63.7157 225.722C63.7924 225.722 63.8681 225.7 63.9363 225.659L66.7039 223.784C66.8185 223.71 66.8127 223.576 66.7039 223.489L63.4951 221.338C63.4269 221.297 63.3512 221.276 63.2745 221.276C63.1977 221.276 63.1221 221.297 63.0539 221.338L60.292 223.213C60.1717 223.294 60.1774 223.428 60.292 223.509L63.4951 225.659ZM51.3647 216.87L48.5971 218.745C48.4825 218.825 48.4883 218.953 48.5971 219.04L51.7945 221.204C51.8627 221.245 51.9383 221.267 52.0151 221.267C52.0918 221.267 52.1674 221.245 52.2357 221.204L55.0032 219.329C55.1178 219.249 55.1121 219.121 55.0032 219.034L51.8059 216.87C51.7399 216.832 51.6674 216.812 51.5939 216.812C51.5204 216.812 51.4479 216.832 51.3819 216.87H51.3647ZM57.8682 223.287C57.9364 223.328 58.0121 223.35 58.0888 223.35C58.1656 223.35 58.2412 223.328 58.3094 223.287L61.0713 221.412C61.1916 221.338 61.1802 221.204 61.0713 221.117L57.8797 218.953C57.8115 218.912 57.7358 218.89 57.6591 218.89C57.5823 218.89 57.5067 218.912 57.4385 218.953L54.6709 220.828C54.5563 220.908 54.562 221.043 54.6709 221.123L57.8682 223.287ZM70.6289 227.319L73.3965 225.444C73.5111 225.363 73.5054 225.236 73.3965 225.148L70.1992 222.985C70.1309 222.943 70.0553 222.922 69.9786 222.922C69.9018 222.922 69.8262 222.943 69.7579 222.985L66.9961 224.86C66.8758 224.933 66.8872 225.068 66.9961 225.155L70.1877 227.319C70.2576 227.365 70.3361 227.389 70.4162 227.39C70.4962 227.391 70.5752 227.369 70.6461 227.326L70.6289 227.319ZM66.1481 230.007C66.2163 230.048 66.2919 230.069 66.3687 230.069C66.4454 230.069 66.521 230.048 66.5893 230.007L69.3568 228.132C69.4714 228.058 69.4657 227.924 69.3568 227.836L66.1595 225.673C66.0913 225.631 66.0157 225.61 65.9389 225.61C65.8622 225.61 65.7865 225.631 65.7183 225.673L62.9565 227.547C62.8361 227.628 62.8419 227.762 62.9565 227.843L66.1481 230.007ZM55.4043 214.095L52.6425 215.97C52.5222 216.043 52.5279 216.178 52.6425 216.265L55.8398 218.429C55.908 218.47 55.9837 218.492 56.0604 218.492C56.1372 218.492 56.2128 218.47 56.281 218.429L59.0486 216.554C59.1632 216.474 59.1575 216.339 59.0486 216.259L55.8513 214.095C55.7819 214.062 55.7069 214.048 55.6323 214.055C55.5577 214.062 55.4856 214.09 55.4215 214.135L55.4043 214.095ZM75.6083 200.421L72.8407 202.289C72.7261 202.369 72.7318 202.504 72.8407 202.584L76.038 204.755C76.1066 204.794 76.1821 204.815 76.2586 204.815C76.3351 204.815 76.4106 204.794 76.4792 204.755L79.2411 202.887C79.3614 202.806 79.3557 202.672 79.2411 202.584L76.0437 200.421C75.9759 200.39 75.9031 200.377 75.8306 200.384C75.7582 200.391 75.688 200.418 75.6254 200.461L75.6083 200.421ZM59.4841 211.4L56.7222 213.268C56.6019 213.349 56.6076 213.483 56.7222 213.571L59.9196 215.734C59.9882 215.774 60.0637 215.795 60.1402 215.795C60.2167 215.795 60.2922 215.774 60.3608 215.734L63.1284 213.86C63.243 213.779 63.2372 213.645 63.1284 213.564L59.931 211.394C59.8612 211.354 59.7845 211.334 59.7069 211.335C59.6293 211.336 59.553 211.358 59.4841 211.4ZM79.688 197.719L76.8975 199.581C76.7829 199.661 76.7886 199.796 76.8975 199.876L80.0948 202.04C80.163 202.081 80.2387 202.103 80.3154 202.103C80.3922 202.103 80.4678 202.081 80.536 202.04L83.2979 200.172C83.4182 200.091 83.4125 199.957 83.2979 199.87L80.112 197.733C80.0436 197.69 79.9675 197.666 79.8899 197.664C79.8123 197.662 79.7353 197.681 79.6651 197.719H79.688ZM71.6087 203.196L68.8411 205.064C68.7265 205.144 68.7323 205.279 68.8411 205.366L72.0385 207.53C72.1071 207.57 72.1826 207.59 72.2591 207.59C72.3356 207.59 72.4111 207.57 72.4797 207.53L75.2415 205.662C75.3619 205.581 75.3504 205.447 75.2415 205.359L72.0499 203.196C71.9784 203.152 71.8987 203.129 71.8179 203.129C71.737 203.129 71.6574 203.152 71.5858 203.196H71.6087ZM67.5634 205.931L64.8015 207.799C64.6812 207.879 64.6926 208.014 64.8015 208.101L67.9988 210.265C68.0675 210.304 68.1429 210.325 68.2194 210.325C68.296 210.325 68.3714 210.304 68.4401 210.265L71.2019 208.397C71.3165 208.316 71.3108 208.182 71.2019 208.094L68.0046 205.931C67.933 205.886 67.8534 205.863 67.7725 205.863C67.6916 205.863 67.612 205.886 67.5404 205.931H67.5634ZM63.4951 208.665L60.7332 210.533C60.6129 210.614 60.6243 210.748 60.7332 210.836L63.9248 213C63.993 213.041 64.0687 213.062 64.1454 213.062C64.2222 213.062 64.2978 213.041 64.366 213L67.1336 211.131C67.2482 211.051 67.2425 210.916 67.1336 210.829L63.9363 208.665C63.8677 208.626 63.7922 208.605 63.7157 208.605C63.6392 208.605 63.5637 208.626 63.4951 208.665ZM84.1517 212.025L86.9135 210.157C87.0338 210.077 87.0281 209.942 86.9135 209.855L83.7104 207.644C83.6418 207.604 83.5664 207.584 83.4898 207.584C83.4133 207.584 83.3378 207.604 83.2692 207.644L80.5017 209.512C80.3871 209.593 80.3928 209.727 80.5017 209.814L83.699 211.978C83.7684 212.025 83.8467 212.051 83.9267 212.053C84.0068 212.055 84.0861 212.034 84.1574 211.992L84.1517 212.025ZM119.649 170.687L116.881 172.561C116.767 172.642 116.772 172.77 116.881 172.857L120.079 175.021C120.147 175.062 120.223 175.083 120.299 175.083C120.376 175.083 120.452 175.062 120.52 175.021L123.282 173.146C123.402 173.065 123.396 172.938 123.282 172.85L120.084 170.687C120.017 170.646 119.942 170.626 119.867 170.626C119.791 170.626 119.716 170.646 119.649 170.687ZM114.755 173.999L111.994 175.874C111.873 175.948 111.885 176.082 111.994 176.17L115.185 178.333C115.254 178.373 115.329 178.394 115.406 178.394C115.482 178.394 115.558 178.373 115.626 178.333L118.394 176.459C118.509 176.378 118.503 176.244 118.394 176.163L115.197 173.999C115.13 173.952 115.055 173.924 114.977 173.918C114.899 173.912 114.821 173.928 114.75 173.966L114.755 173.999ZM123.689 167.952L120.927 169.826C120.806 169.9 120.812 170.035 120.927 170.122L124.124 172.286C124.192 172.327 124.268 172.349 124.345 172.349C124.421 172.349 124.497 172.327 124.565 172.286L127.333 170.411C127.447 170.33 127.442 170.196 127.333 170.115L124.135 167.952C124.065 167.898 123.985 167.867 123.901 167.861C123.818 167.855 123.735 167.875 123.66 167.918L123.689 167.952ZM102.774 193.244L105.542 191.369C105.656 191.289 105.651 191.154 105.542 191.074L102.344 188.91C102.276 188.869 102.2 188.847 102.124 188.847C102.047 188.847 101.971 188.869 101.903 188.91L99.1413 190.785C99.021 190.859 99.0267 190.993 99.1413 191.08L102.339 193.244C102.408 193.278 102.482 193.293 102.557 193.287C102.631 193.281 102.704 193.255 102.768 193.21L102.774 193.244ZM128.169 165.23C128.101 165.189 128.026 165.168 127.949 165.168C127.872 165.168 127.796 165.189 127.728 165.23L124.966 167.105C124.846 167.179 124.852 167.313 124.966 167.401L128.164 169.564C128.232 169.604 128.308 169.625 128.384 169.625C128.461 169.625 128.536 169.604 128.605 169.564L131.372 167.69C131.487 167.609 131.481 167.475 131.372 167.394L128.169 165.23ZM88.197 209.257L90.9646 207.389C91.0792 207.308 91.0735 207.174 90.9646 207.086L87.7501 204.956C87.6819 204.915 87.6062 204.893 87.5295 204.893C87.4527 204.893 87.3771 204.915 87.3089 204.956L84.547 206.824C84.4267 206.905 84.4324 207.039 84.547 207.127L87.7444 209.29C87.8167 209.327 87.8955 209.343 87.9741 209.337C88.0528 209.332 88.1292 209.304 88.197 209.257ZM137.744 175.713L140.512 173.838C140.626 173.764 140.621 173.63 140.512 173.542L137.297 171.359C137.229 171.317 137.153 171.296 137.077 171.296C137 171.296 136.924 171.317 136.856 171.359L134.094 173.233C133.974 173.314 133.98 173.448 134.094 173.529L137.292 175.693C137.36 175.739 137.437 175.766 137.516 175.769C137.595 175.773 137.673 175.753 137.744 175.713ZM129.149 175.357L131.917 173.482C132.031 173.401 132.026 173.274 131.917 173.186L128.719 171.023C128.651 170.981 128.576 170.96 128.499 170.96C128.422 170.96 128.346 170.981 128.278 171.023L125.516 172.897C125.396 172.978 125.402 173.106 125.516 173.193L128.714 175.357C128.777 175.4 128.849 175.425 128.922 175.431C128.996 175.437 129.07 175.423 129.138 175.39L129.149 175.357ZM132.742 168.288C132.674 168.246 132.598 168.225 132.521 168.225C132.445 168.225 132.369 168.246 132.301 168.288L129.539 170.162C129.419 170.236 129.424 170.371 129.539 170.458L132.736 172.622C132.804 172.663 132.88 172.685 132.957 172.685C133.034 172.685 133.109 172.663 133.177 172.622L135.945 170.747C136.06 170.666 136.054 170.532 135.945 170.451L132.742 168.288ZM133.596 167.71L141.354 172.965C141.422 173.006 141.498 173.027 141.575 173.027C141.651 173.027 141.727 173.006 141.795 172.965L144.563 171.09C144.677 171.009 144.672 170.881 144.563 170.794L136.799 165.539C136.731 165.498 136.655 165.477 136.578 165.477C136.501 165.477 136.426 165.498 136.358 165.539L133.596 167.414C133.447 167.488 133.458 167.622 133.584 167.71H133.596ZM124.221 173.757L121.454 175.632C121.339 175.713 121.345 175.847 121.454 175.928L124.651 178.092C124.719 178.133 124.795 178.154 124.872 178.154C124.949 178.154 125.024 178.133 125.092 178.092L127.854 176.217C127.975 176.143 127.969 176.008 127.854 175.921L124.657 173.757C124.592 173.717 124.52 173.695 124.446 173.693C124.373 173.691 124.3 173.708 124.233 173.744L124.221 173.757ZM93.8124 194.346L91.0334 196.221C90.9188 196.301 90.9245 196.436 91.0334 196.516L94.2307 198.68C94.2989 198.721 94.3745 198.743 94.4513 198.743C94.528 198.743 94.6037 198.721 94.6719 198.68L97.4338 196.805C97.5541 196.732 97.5484 196.597 97.4338 196.51L94.2364 194.346C94.1698 194.304 94.0957 194.281 94.0201 194.278C93.9444 194.276 93.8693 194.295 93.8009 194.333L93.8124 194.346ZM133.275 178.448C133.343 178.489 133.419 178.51 133.495 178.51C133.572 178.51 133.648 178.489 133.716 178.448L136.484 176.573C136.598 176.499 136.592 176.365 136.484 176.277L133.286 174.114C133.218 174.074 133.142 174.053 133.066 174.053C132.989 174.053 132.914 174.074 132.845 174.114L130.083 175.988C129.963 176.069 129.969 176.203 130.083 176.284L133.275 178.448ZM97.852 191.611L95.0902 193.486C94.9699 193.567 94.9756 193.694 95.0902 193.782L98.2875 195.945C98.3557 195.987 98.4314 196.008 98.5081 196.008C98.5849 196.008 98.6605 195.987 98.7287 195.945L101.496 194.071C101.611 193.99 101.605 193.862 101.496 193.775L98.299 191.611C98.2296 191.564 98.1513 191.539 98.0712 191.536C97.9912 191.534 97.9119 191.555 97.8406 191.598L97.852 191.611ZM67.5634 222.938C67.6316 222.979 67.7072 223 67.784 223C67.8607 223 67.9364 222.979 68.0046 222.938L70.7721 221.063C70.8867 220.982 70.881 220.855 70.7721 220.767L67.5748 218.604C67.5066 218.562 67.431 218.541 67.3542 218.541C67.2775 218.541 67.2018 218.562 67.1336 218.604L64.3718 220.478C64.2514 220.559 64.2629 220.687 64.3718 220.774L67.5634 222.938ZM61.4896 216.218L58.722 218.093C58.6074 218.174 58.6131 218.301 58.722 218.389L61.9193 220.552C61.9875 220.594 62.0632 220.615 62.1399 220.615C62.2167 220.615 62.2923 220.594 62.3605 220.552L65.1224 218.678C65.2427 218.597 65.237 218.469 65.1224 218.382L61.9251 216.218C61.8561 216.176 61.7794 216.154 61.7016 216.154C61.6237 216.154 61.5471 216.176 61.4781 216.218H61.4896ZM72.0499 220.203L74.8118 218.328C74.9264 218.247 74.9207 218.113 74.8118 218.032L71.6145 215.869C71.5462 215.828 71.4706 215.806 71.3939 215.806C71.3171 215.806 71.2415 215.828 71.1732 215.869L68.3827 217.723C68.2681 217.797 68.2739 217.932 68.3827 218.019L71.5801 220.183C71.649 220.231 71.7271 220.257 71.8071 220.261C71.8871 220.264 71.9667 220.245 72.0385 220.203H72.0499ZM76.0896 217.468L78.8514 215.593C78.9718 215.513 78.9603 215.378 78.8514 215.298L75.6598 213.134C75.5916 213.093 75.516 213.071 75.4392 213.071C75.3625 213.071 75.2868 213.093 75.2186 213.134L72.451 215.002C72.3364 215.083 72.3422 215.217 72.451 215.304L75.6484 217.468C75.7185 217.51 75.796 217.532 75.8747 217.532C75.9534 217.532 76.0309 217.51 76.101 217.468H76.0896ZM80.1006 214.726L82.8624 212.858C82.9827 212.778 82.977 212.643 82.8624 212.563L79.6651 210.392C79.5965 210.353 79.521 210.332 79.4445 210.332C79.368 210.332 79.2925 210.353 79.2239 210.392L76.4563 212.26C76.3417 212.341 76.3474 212.475 76.4563 212.563L79.6536 214.726C79.724 214.771 79.8028 214.795 79.8828 214.795C79.9629 214.795 80.0416 214.771 80.112 214.726H80.1006ZM65.5006 213.483L62.733 215.358C62.6184 215.432 62.6241 215.566 62.733 215.654L65.9303 217.817C65.9985 217.859 66.0742 217.88 66.1509 217.88C66.2277 217.88 66.3033 217.859 66.3715 217.817L69.1391 215.943C69.2537 215.862 69.248 215.728 69.1391 215.647L65.9418 213.483C65.8758 213.445 65.8033 213.426 65.7298 213.426C65.6563 213.426 65.5837 213.445 65.5178 213.483H65.5006ZM69.5402 210.748L66.7784 212.617C66.658 212.697 66.6638 212.832 66.7784 212.919L69.9757 215.083C70.0443 215.122 70.1198 215.143 70.1963 215.143C70.2728 215.143 70.3483 215.122 70.4169 215.083L73.236 213.221C73.3506 213.141 73.3449 213.006 73.236 212.926L70.0387 210.762C69.9666 210.71 69.8841 210.682 69.7996 210.68C69.7151 210.677 69.6316 210.701 69.5574 210.748H69.5402ZM85.7045 199.809L82.977 201.677C82.8624 201.758 82.8681 201.892 82.977 201.979L86.1743 204.143C86.243 204.183 86.3184 204.204 86.3949 204.204C86.4715 204.204 86.5469 204.183 86.6156 204.143L89.3774 202.275C89.4977 202.195 89.4863 202.06 89.3774 201.973L86.1858 199.809C86.1147 199.763 86.0349 199.739 85.9537 199.739C85.8726 199.739 85.7928 199.763 85.7217 199.809H85.7045ZM81.6591 202.544L78.8973 204.412C78.7827 204.493 78.7884 204.627 78.8973 204.714L82.0946 206.878C82.1632 206.918 82.2387 206.938 82.3152 206.938C82.3917 206.938 82.4672 206.918 82.5358 206.878L85.2977 205.01C85.418 204.929 85.4065 204.795 85.2977 204.708L82.1003 202.544C82.034 202.507 81.9616 202.488 81.8883 202.488C81.815 202.488 81.7426 202.507 81.6763 202.544H81.6591ZM89.7441 197.068L86.988 198.942C86.8734 199.023 86.8791 199.157 86.988 199.238L90.1853 201.408C90.2539 201.448 90.3294 201.469 90.4059 201.469C90.4824 201.469 90.5579 201.448 90.6265 201.408L93.3884 199.534C93.5087 199.46 93.503 199.325 93.3884 199.238L90.1911 197.074C90.1244 197.036 90.0512 197.015 89.9768 197.014C89.9025 197.013 89.8288 197.031 89.7613 197.068H89.7441ZM73.5798 208.014L70.818 209.882C70.6977 209.962 70.7034 210.097 70.818 210.184L74.0153 212.348C74.0839 212.387 74.1594 212.408 74.2359 212.408C74.3124 212.408 74.3879 212.387 74.4565 212.348L77.2241 210.473C77.3387 210.392 77.333 210.258 77.2241 210.177L74.0268 208.007C73.9593 207.97 73.8856 207.952 73.8113 207.953C73.7369 207.954 73.6637 207.975 73.597 208.014H73.5798ZM77.6195 205.279L74.8576 207.147C74.7373 207.227 74.7488 207.362 74.8576 207.449L78.055 209.613C78.1222 209.654 78.1969 209.676 78.2727 209.676C78.3485 209.676 78.4232 209.654 78.4904 209.613L81.258 207.745C81.3726 207.664 81.3669 207.53 81.258 207.442L78.0607 205.279C77.9944 205.242 77.922 205.223 77.8487 205.223C77.7754 205.223 77.703 205.242 77.6367 205.279H77.6195ZM74.6743 224.591L77.4361 222.716C77.5507 222.635 77.545 222.501 77.4361 222.42L74.2388 220.257C74.1706 220.215 74.0949 220.194 74.0182 220.194C73.9414 220.194 73.8658 220.215 73.7976 220.257L71.0357 222.131C70.9154 222.205 70.9269 222.34 71.0357 222.427L74.2331 224.591C74.3034 224.635 74.3822 224.659 74.4623 224.659C74.5423 224.659 74.6211 224.635 74.6915 224.591H74.6743ZM50.9808 221.755L47.7835 219.591C47.7153 219.55 47.6396 219.529 47.5629 219.529C47.4861 219.529 47.4105 219.55 47.3423 219.591L44.5861 221.48C44.4715 221.56 44.4773 221.688 44.5861 221.775L47.7835 223.939C47.8517 223.98 47.9273 224.002 48.0041 224.002C48.0808 224.002 48.1565 223.98 48.2247 223.939L50.9865 222.064C51.1126 222.004 51.1069 221.869 50.9808 221.755ZM57.0317 223.838L53.8343 221.674C53.7667 221.635 53.6922 221.614 53.6166 221.614C53.541 221.614 53.4665 221.635 53.3988 221.674L49.1701 224.571C49.0555 224.651 49.0613 224.786 49.1701 224.866L52.3675 227.03C52.4357 227.071 52.5113 227.093 52.5881 227.093C52.6648 227.093 52.7404 227.071 52.8087 227.03L57.0603 224.154C57.1921 224.087 57.1577 223.952 57.0317 223.865V223.838ZM46.0759 217.569L42.8671 215.432C42.7989 215.391 42.7233 215.369 42.6465 215.369C42.5698 215.369 42.4941 215.391 42.4259 215.432L39.0338 217.723C38.9192 217.804 38.9249 217.938 39.0338 218.026L42.2311 220.189C42.2993 220.231 42.375 220.252 42.4517 220.252C42.5285 220.252 42.6041 220.231 42.6723 220.189L46.0702 217.891C46.2077 217.817 46.202 217.683 46.0759 217.596V217.569ZM48.6831 215.802C48.7513 215.843 48.8269 215.864 48.9037 215.864C48.9804 215.864 49.0561 215.843 49.1243 215.802L51.8861 213.927C52.0065 213.853 52.0007 213.719 51.8861 213.631L48.6888 211.467C48.6206 211.426 48.5449 211.405 48.4682 211.405C48.3914 211.405 48.3158 211.426 48.2476 211.467L45.48 213.342C45.3654 213.423 45.3711 213.557 45.48 213.638L48.6831 215.802ZM62.6642 226.21L59.4841 224.073C59.4155 224.034 59.34 224.013 59.2635 224.013C59.187 224.013 59.1115 224.034 59.0429 224.073L53.7255 227.675C53.6109 227.756 53.6166 227.89 53.7255 227.971L56.9228 230.141C56.9914 230.181 57.0669 230.201 57.1434 230.201C57.2199 230.201 57.2954 230.181 57.364 230.141L62.6814 226.539C62.796 226.459 62.7903 226.324 62.6642 226.237V226.21ZM65.3172 230.598L62.1199 228.475C62.0517 228.433 61.976 228.412 61.8993 228.412C61.8225 228.412 61.7469 228.433 61.6787 228.475L58.2751 230.779C58.1605 230.86 58.1662 230.994 58.2751 231.082L61.4724 233.245C61.541 233.285 61.6165 233.306 61.693 233.306C61.7695 233.306 61.845 233.285 61.9136 233.245L65.3172 230.941C65.449 230.847 65.4433 230.712 65.3172 230.625V230.598ZM78.7254 195.462C78.7936 195.503 78.8692 195.524 78.946 195.524C79.0227 195.524 79.0984 195.503 79.1666 195.462L81.9284 193.593C82.0488 193.513 82.0373 193.378 81.9284 193.291L78.7311 191.127C78.6625 191.088 78.587 191.067 78.5105 191.067C78.434 191.067 78.3585 191.088 78.2899 191.127L75.528 193.029C75.4134 193.11 75.4192 193.244 75.528 193.325L78.7254 195.462ZM70.6404 200.938C70.709 200.978 70.7845 200.998 70.861 200.998C70.9375 200.998 71.013 200.978 71.0816 200.938L73.8492 199.07C73.9638 198.989 73.958 198.855 73.8492 198.768L70.6518 196.604C70.5832 196.564 70.5077 196.543 70.4312 196.543C70.3547 196.543 70.2792 196.564 70.2106 196.604L67.4488 198.472C67.3284 198.553 67.3399 198.687 67.4488 198.774L70.6404 200.938ZM52.7227 213.094C52.7909 213.135 52.8666 213.156 52.9433 213.156C53.0201 213.156 53.0957 213.135 53.1639 213.094L55.9258 211.219C56.0461 211.138 56.0404 211.011 55.9258 210.923L52.7284 208.759C52.6602 208.718 52.5846 208.697 52.5078 208.697C52.4311 208.697 52.3554 208.718 52.2872 208.759L49.5196 210.634C49.4051 210.715 49.4108 210.843 49.5196 210.93L52.7227 213.094ZM74.6857 198.237C74.7533 198.276 74.8279 198.297 74.9035 198.297C74.9791 198.297 75.0536 198.276 75.1212 198.237L77.8888 196.369C78.0034 196.288 77.9977 196.154 77.8888 196.066L74.6915 193.903C74.6232 193.861 74.5476 193.84 74.4709 193.84C74.3941 193.84 74.3185 193.861 74.2503 193.903L71.4884 195.771C71.3681 195.851 71.3795 195.986 71.4884 196.073L74.6857 198.237ZM66.6007 203.706C66.6689 203.748 66.7446 203.769 66.8213 203.769C66.8981 203.769 66.9737 203.748 67.0419 203.706L69.8095 201.838C69.9241 201.758 69.9184 201.623 69.8095 201.536L66.6122 199.372C66.5436 199.333 66.4681 199.312 66.3916 199.312C66.3151 199.312 66.2396 199.333 66.171 199.372L63.4091 201.24C63.2888 201.321 63.2945 201.455 63.4091 201.543L66.6007 203.706ZM67.5347 230.981C67.4661 230.941 67.3906 230.921 67.3141 230.921C67.2376 230.921 67.1621 230.941 67.0935 230.981L62.8419 233.85C62.7273 233.931 62.733 234.065 62.8419 234.153L66.0392 236.316C66.1074 236.358 66.183 236.379 66.2598 236.379C66.3365 236.379 66.4122 236.358 66.4804 236.316L70.732 233.44C70.8524 233.36 70.8409 233.225 70.732 233.138L67.5347 230.981ZM60.802 207.644C60.8706 207.684 60.9461 207.704 61.0226 207.704C61.0991 207.704 61.1746 207.684 61.2432 207.644L64.0108 205.769C64.1254 205.689 64.1196 205.554 64.0108 205.474L60.8134 203.31C60.7452 203.269 60.6696 203.247 60.5928 203.247C60.5161 203.247 60.4405 203.269 60.3722 203.31L57.6104 205.185C57.4901 205.259 57.4958 205.393 57.6104 205.48L60.802 207.644ZM56.7623 210.332C56.8306 210.373 56.9062 210.395 56.9829 210.395C57.0597 210.395 57.1353 210.373 57.2036 210.332L59.9711 208.457C60.0857 208.376 60.08 208.242 59.9711 208.161L56.7738 205.998C56.7056 205.957 56.6299 205.935 56.5532 205.935C56.4764 205.935 56.4008 205.957 56.3326 205.998L53.5707 207.873C53.4504 207.946 53.4561 208.081 53.5707 208.168L56.7623 210.332ZM142.391 180.296C142.323 180.254 142.247 180.233 142.171 180.233C142.094 180.233 142.018 180.254 141.95 180.296L135.12 184.892C135.005 184.972 135.011 185.107 135.12 185.194L138.317 187.358C138.386 187.397 138.461 187.418 138.538 187.418C138.614 187.418 138.69 187.397 138.758 187.358L145.6 182.782C145.72 182.701 145.715 182.567 145.6 182.479L142.391 180.296ZM133.458 186.343C133.39 186.302 133.314 186.28 133.238 186.28C133.161 186.28 133.085 186.302 133.017 186.343L130.255 188.211C130.135 188.292 130.14 188.426 130.255 188.514L133.452 190.677C133.521 190.717 133.597 190.738 133.673 190.738C133.75 190.738 133.825 190.717 133.894 190.677L136.661 188.809C136.776 188.729 136.77 188.594 136.661 188.507L133.458 186.343ZM78.7311 221.856L81.4929 219.981C81.6133 219.9 81.6018 219.766 81.4929 219.685L78.3013 217.515C78.2327 217.475 78.1573 217.455 78.0807 217.455C78.0042 217.455 77.9288 217.475 77.8601 217.515L75.0926 219.383C74.978 219.464 74.9837 219.598 75.0926 219.685L78.2899 221.849C78.3581 221.89 78.4333 221.912 78.5098 221.913C78.5863 221.914 78.662 221.895 78.7311 221.856ZM125.379 191.813C125.31 191.773 125.235 191.752 125.158 191.752C125.082 191.752 125.006 191.773 124.938 191.813L122.17 193.681C122.055 193.761 122.061 193.896 122.17 193.983L125.367 196.147C125.436 196.188 125.511 196.21 125.588 196.21C125.665 196.21 125.74 196.188 125.809 196.147L128.57 194.279C128.691 194.198 128.685 194.064 128.57 193.977L125.379 191.813ZM146.431 177.561C146.362 177.521 146.287 177.5 146.21 177.5C146.134 177.5 146.058 177.521 145.99 177.561L143.228 179.422C143.107 179.503 143.113 179.637 143.228 179.718L146.425 181.888C146.494 181.928 146.569 181.948 146.646 181.948C146.722 181.948 146.798 181.928 146.866 181.888L149.634 180.02C149.748 179.939 149.743 179.805 149.634 179.718L146.431 177.561ZM153.668 176.99L145.904 171.735C145.835 171.694 145.76 171.672 145.683 171.672C145.606 171.672 145.531 171.694 145.462 171.735L142.701 173.61C142.58 173.69 142.586 173.825 142.701 173.905L150.465 179.16C150.533 179.201 150.609 179.223 150.685 179.223C150.762 179.223 150.838 179.201 150.906 179.16L153.674 177.285C153.8 177.211 153.794 177.077 153.668 176.99ZM110.28 202.04C110.212 201.999 110.137 201.977 110.06 201.977C109.983 201.977 109.907 201.999 109.839 202.04L106.436 204.345C106.321 204.425 106.327 204.56 106.436 204.64L109.633 206.804C109.701 206.845 109.777 206.867 109.853 206.867C109.93 206.867 110.006 206.845 110.074 206.804L113.478 204.499C113.592 204.419 113.587 204.284 113.478 204.204L110.28 202.04ZM120.485 195.126C120.417 195.084 120.342 195.063 120.265 195.063C120.188 195.063 120.112 195.084 120.044 195.126L115.793 198.002C115.678 198.082 115.684 198.217 115.793 198.297L118.99 200.468C119.059 200.507 119.134 200.528 119.211 200.528C119.287 200.528 119.363 200.507 119.431 200.468L123.683 197.592C123.797 197.511 123.792 197.377 123.683 197.289L120.485 195.126ZM100.923 208.37C100.855 208.33 100.779 208.309 100.703 208.309C100.626 208.309 100.551 208.33 100.482 208.37L77.7283 223.771C77.6137 223.852 77.6195 223.986 77.7283 224.073L80.9257 226.237C80.9943 226.277 81.0698 226.297 81.1463 226.297C81.2228 226.297 81.2983 226.277 81.3669 226.237L104.121 210.829C104.235 210.748 104.23 210.614 104.121 210.527L100.923 208.37ZM76.8918 224.644C76.8236 224.603 76.7479 224.582 76.6712 224.582C76.5944 224.582 76.5188 224.603 76.4506 224.644L73.0527 226.949C72.9324 227.03 72.9381 227.164 73.0527 227.245L76.25 229.409C76.3182 229.45 76.3939 229.471 76.4706 229.471C76.5474 229.471 76.623 229.45 76.6912 229.409L80.112 227.131C80.2266 227.05 80.2209 226.916 80.112 226.835L76.8918 224.644ZM105.599 205.205C105.53 205.165 105.455 205.145 105.378 205.145C105.302 205.145 105.226 205.165 105.158 205.205L101.76 207.51C101.64 207.59 101.645 207.725 101.76 207.812L104.957 209.976C105.026 210.015 105.101 210.036 105.178 210.036C105.254 210.036 105.33 210.015 105.398 209.976L108.802 207.671C108.922 207.597 108.911 207.463 108.802 207.375L105.599 205.205ZM72.2161 227.803C72.1475 227.763 72.072 227.742 71.9955 227.742C71.919 227.742 71.8435 227.763 71.7749 227.803L68.3713 230.107C68.2567 230.188 68.2624 230.322 68.3713 230.41L71.5686 232.574C71.6372 232.613 71.7127 232.634 71.7892 232.634C71.8657 232.634 71.9412 232.613 72.0098 232.574L75.4077 230.275C75.528 230.195 75.5223 230.06 75.4077 229.973L72.2161 227.803ZM114.956 198.862C114.887 198.822 114.812 198.801 114.735 198.801C114.659 198.801 114.583 198.822 114.515 198.862L111.117 201.16C110.997 201.24 111.002 201.375 111.117 201.462L114.314 203.626C114.383 203.665 114.458 203.686 114.535 203.686C114.611 203.686 114.687 203.665 114.755 203.626L118.159 201.321C118.279 201.24 118.268 201.106 118.159 201.019L114.956 198.862ZM129.419 189.071C129.35 189.03 129.275 189.008 129.198 189.008C129.121 189.008 129.046 189.03 128.977 189.071L126.215 190.939C126.095 191.02 126.101 191.154 126.215 191.242L129.413 193.405C129.481 193.445 129.557 193.466 129.633 193.466C129.71 193.466 129.785 193.445 129.854 193.405L132.622 191.537C132.736 191.457 132.73 191.322 132.622 191.235L129.419 189.071ZM138.271 181.532L141.033 179.664C141.154 179.583 141.148 179.449 141.033 179.362L137.836 177.198C137.767 177.158 137.692 177.137 137.615 177.137C137.539 177.137 137.463 177.158 137.395 177.198L134.627 179.073C134.512 179.153 134.518 179.288 134.627 179.368L137.824 181.539C137.894 181.579 137.97 181.601 138.048 181.601C138.125 181.601 138.202 181.579 138.271 181.539V181.532ZM120.222 181.438L122.989 179.563C123.104 179.482 123.098 179.348 122.989 179.267L119.792 177.104C119.724 177.062 119.648 177.041 119.572 177.041C119.495 177.041 119.419 177.062 119.351 177.104L116.589 178.978C116.469 179.059 116.48 179.187 116.589 179.274L119.781 181.438C119.849 181.479 119.925 181.501 120.001 181.501C120.078 181.501 120.154 181.479 120.222 181.438ZM111.054 200.004L119.133 194.534C119.248 194.454 119.242 194.319 119.133 194.232L115.936 192.068C115.867 192.028 115.792 192.008 115.715 192.008C115.639 192.008 115.563 192.028 115.495 192.068L107.415 197.545C107.301 197.619 107.307 197.753 107.415 197.84L110.613 200.004C110.683 200.04 110.76 200.056 110.837 200.05C110.914 200.044 110.988 200.017 111.054 199.97V200.004ZM133.79 184.3C133.859 184.34 133.935 184.361 134.011 184.361C134.088 184.361 134.163 184.34 134.232 184.3L136.994 182.432C137.114 182.352 137.108 182.217 136.994 182.13L133.796 179.966C133.728 179.925 133.652 179.904 133.576 179.904C133.499 179.904 133.423 179.925 133.355 179.966L130.587 181.834C130.473 181.915 130.479 182.049 130.587 182.137L133.79 184.3ZM129.665 181.216L132.427 179.348C132.547 179.267 132.541 179.133 132.427 179.046L129.229 176.882C129.161 176.842 129.085 176.822 129.009 176.822C128.932 176.822 128.857 176.842 128.788 176.882L126.021 178.757C125.906 178.837 125.912 178.972 126.021 179.052L129.218 181.223C129.29 181.257 129.368 181.272 129.446 181.265C129.523 181.258 129.598 181.23 129.665 181.183V181.216ZM107.014 202.719L109.776 200.844C109.896 200.763 109.885 200.636 109.776 200.548L106.579 198.385C106.511 198.343 106.435 198.322 106.358 198.322C106.281 198.322 106.206 198.343 106.138 198.385L103.359 200.253C103.238 200.333 103.25 200.461 103.359 200.548L106.556 202.712C106.63 202.762 106.715 202.787 106.8 202.786C106.886 202.785 106.97 202.757 107.043 202.705L107.014 202.719ZM124.857 190.328C124.926 190.368 125.002 190.388 125.078 190.388C125.155 190.388 125.23 190.368 125.299 190.328L128.066 188.46C128.181 188.379 128.175 188.245 128.066 188.157L124.869 185.994C124.8 185.954 124.725 185.933 124.648 185.933C124.572 185.933 124.496 185.954 124.428 185.994L121.666 187.868C121.546 187.949 121.551 188.083 121.666 188.164L124.857 190.328ZM86.8104 216.379L89.5722 214.511C89.6925 214.431 89.6868 214.296 89.5722 214.209L86.3749 212.045C86.3063 212.006 86.2308 211.985 86.1543 211.985C86.0778 211.985 86.0023 212.006 85.9337 212.045L83.1661 213.913C83.0515 213.994 83.0572 214.128 83.1661 214.216L86.3634 216.379C86.4328 216.42 86.5093 216.441 86.5869 216.441C86.6645 216.441 86.741 216.42 86.8104 216.379ZM90.85 213.645L93.6176 211.777C93.7322 211.696 93.7265 211.562 93.6176 211.474L90.426 209.311C90.3578 209.269 90.2821 209.248 90.2054 209.248C90.1286 209.248 90.053 209.269 89.9848 209.311L87.2172 211.179C87.1026 211.259 87.1083 211.394 87.2172 211.481L90.4145 213.645C90.4824 213.683 90.5568 213.703 90.6323 213.703C90.7077 213.703 90.7822 213.683 90.85 213.645ZM82.7707 219.114L85.5326 217.246C85.6529 217.166 85.6472 217.031 85.5326 216.944L82.341 214.78C82.2724 214.74 82.1969 214.72 82.1204 214.72C82.0439 214.72 81.9684 214.74 81.8998 214.78L79.1322 216.648C79.0176 216.729 79.0233 216.863 79.1322 216.951L82.3295 219.114C82.3977 219.156 82.4734 219.177 82.5501 219.177C82.6269 219.177 82.7025 219.156 82.7707 219.114ZM98.9293 208.175L101.697 206.307C101.811 206.226 101.806 206.092 101.697 206.004L98.4995 203.841C98.4309 203.801 98.3554 203.78 98.2789 203.78C98.2024 203.78 98.1269 203.801 98.0583 203.841L95.2965 205.716C95.1761 205.796 95.1819 205.931 95.2965 206.011L98.4938 208.175C98.5613 208.215 98.6359 208.236 98.7115 208.236C98.7872 208.236 98.8618 208.215 98.9293 208.175ZM94.9183 210.91L97.6859 209.042C97.8005 208.961 97.7948 208.827 97.6859 208.739L94.437 206.576C94.3688 206.534 94.2931 206.513 94.2164 206.513C94.1396 206.513 94.064 206.534 93.9958 206.576L91.2339 208.444C91.1136 208.524 91.1193 208.659 91.2339 208.739L94.4312 210.91C94.5021 210.953 94.5807 210.975 94.6604 210.975C94.7402 210.975 94.8188 210.953 94.8896 210.91H94.9183ZM102.998 205.44L105.765 203.565C105.88 203.491 105.874 203.357 105.765 203.27L102.568 201.106C102.5 201.065 102.424 201.043 102.347 201.043C102.27 201.043 102.195 201.065 102.127 201.106L99.3189 202.94C99.1986 203.021 99.21 203.155 99.3189 203.236L102.511 205.4C102.578 205.451 102.655 205.481 102.735 205.488C102.815 205.495 102.896 205.479 102.969 205.44H102.998ZM121.482 164.968C121.551 165.01 121.626 165.031 121.703 165.031C121.78 165.031 121.855 165.01 121.924 164.968L124.691 163.094C124.806 163.02 124.8 162.885 124.691 162.798L123.843 162.22C123.775 162.18 123.699 162.16 123.623 162.16C123.546 162.16 123.471 162.18 123.402 162.22L120.634 164.088C120.52 164.169 120.526 164.303 120.634 164.39L121.482 164.968ZM101.605 180.02C101.673 180.061 101.749 180.083 101.826 180.083C101.903 180.083 101.978 180.061 102.046 180.02L104.808 178.152C104.929 178.071 104.923 177.937 104.808 177.85L101.611 175.686C101.542 175.646 101.467 175.626 101.39 175.626C101.314 175.626 101.238 175.646 101.17 175.686L98.4021 177.554C98.2875 177.635 98.2933 177.769 98.4021 177.856L101.605 180.02ZM109.684 174.55C109.753 174.59 109.829 174.611 109.905 174.611C109.982 174.611 110.057 174.59 110.126 174.55L112.893 172.682C113.008 172.602 113.002 172.467 112.893 172.38L109.696 170.216C109.628 170.175 109.552 170.153 109.475 170.153C109.399 170.153 109.323 170.175 109.255 170.216L106.47 172.084C106.35 172.165 106.355 172.299 106.47 172.387L109.684 174.55ZM96.6717 183.36C96.7403 183.399 96.8158 183.42 96.8923 183.42C96.9688 183.42 97.0443 183.399 97.1129 183.36L99.8747 181.485C99.995 181.404 99.9893 181.27 99.8747 181.189L96.6774 179.019C96.6088 178.979 96.5333 178.958 96.4568 178.958C96.3803 178.958 96.3048 178.979 96.2362 179.019L93.4686 180.887C93.354 180.967 93.3597 181.102 93.4686 181.189L96.6717 183.36ZM105.645 177.312C105.713 177.352 105.789 177.372 105.865 177.372C105.942 177.372 106.017 177.352 106.086 177.312L108.854 175.444C108.968 175.363 108.962 175.229 108.854 175.142L105.656 172.978C105.588 172.938 105.512 172.918 105.436 172.918C105.359 172.918 105.284 172.938 105.215 172.978L102.453 174.846C102.333 174.927 102.339 175.061 102.453 175.148L105.645 177.312ZM88.5637 188.829C88.632 188.871 88.7076 188.892 88.7843 188.892C88.8611 188.892 88.9367 188.871 89.005 188.829L91.7668 186.955C91.8871 186.874 91.8757 186.74 91.7668 186.659L88.5752 184.495C88.507 184.454 88.4313 184.432 88.3546 184.432C88.2778 184.432 88.2022 184.454 88.134 184.495L85.3664 186.37C85.2518 186.444 85.2575 186.578 85.3664 186.666L88.5637 188.829ZM92.6034 186.094C92.672 186.134 92.7475 186.155 92.824 186.155C92.9005 186.155 92.976 186.134 93.0446 186.094L95.8064 184.22C95.9268 184.139 95.921 184.005 95.8064 183.924L92.6148 181.76C92.5466 181.719 92.471 181.698 92.3942 181.698C92.3175 181.698 92.2418 181.719 92.1736 181.76L89.4061 183.635C89.2915 183.709 89.2972 183.843 89.4061 183.931L92.6034 186.094ZM113.375 170.445C113.443 170.484 113.519 170.505 113.595 170.505C113.672 170.505 113.747 170.484 113.816 170.445L116.583 168.577C116.698 168.496 116.692 168.362 116.583 168.274L115.73 167.696C115.661 167.657 115.585 167.636 115.509 167.636C115.432 167.636 115.357 167.657 115.288 167.696L112.527 169.564C112.406 169.645 112.418 169.779 112.527 169.867L113.375 170.445ZM125.499 162.233C125.566 162.275 125.641 162.296 125.717 162.296C125.793 162.296 125.867 162.275 125.935 162.233L128.702 160.359C128.817 160.278 128.811 160.15 128.702 160.063L127.854 159.485C127.786 159.444 127.71 159.422 127.634 159.422C127.557 159.422 127.481 159.444 127.413 159.485L124.645 161.353C124.531 161.434 124.537 161.568 124.645 161.656L125.499 162.233ZM132.209 166.783C132.278 166.822 132.353 166.843 132.43 166.843C132.506 166.843 132.582 166.822 132.65 166.783L135.418 164.908C135.532 164.827 135.527 164.693 135.418 164.612L132.22 162.442C132.152 162.402 132.076 162.381 132 162.381C131.923 162.381 131.848 162.402 131.779 162.442L129.017 164.31C128.897 164.39 128.909 164.525 129.017 164.612L132.209 166.783ZM142.311 178.804L145.079 176.929C145.193 176.855 145.187 176.721 145.079 176.633L141.881 174.47C141.813 174.43 141.737 174.409 141.661 174.409C141.584 174.409 141.509 174.43 141.44 174.47L138.678 176.344C138.558 176.425 138.564 176.559 138.678 176.64L141.875 178.804C141.943 178.844 142.018 178.865 142.093 178.865C142.169 178.865 142.243 178.844 142.311 178.804ZM117.414 167.71C117.483 167.75 117.558 167.77 117.635 167.77C117.711 167.77 117.787 167.75 117.855 167.71L120.623 165.842C120.738 165.761 120.732 165.627 120.623 165.539L119.769 164.962C119.701 164.922 119.625 164.901 119.549 164.901C119.472 164.901 119.397 164.922 119.328 164.962L116.566 166.83C116.452 166.91 116.457 167.045 116.566 167.132L117.414 167.71ZM84.5241 191.564C84.5923 191.605 84.668 191.627 84.7447 191.627C84.8215 191.627 84.8971 191.605 84.9653 191.564L87.7272 189.689C87.8418 189.609 87.836 189.481 87.7272 189.394L84.5298 187.23C84.4616 187.189 84.386 187.167 84.3092 187.167C84.2325 187.167 84.1568 187.189 84.0886 187.23L81.3268 189.105C81.2122 189.185 81.2179 189.313 81.3268 189.401L84.5241 191.564Z" fill="#455A64"/>
<path d="M100.952 221.016L131.206 200.528L149.829 213.134L119.569 233.622L100.952 221.016Z" fill="#263238"/>
<path d="M33.6992 117.777L123.866 56.7299C125.625 55.5338 127.069 56.5149 127.069 58.9003V140.791C127.04 141.397 126.89 141.986 126.632 142.511C126.373 143.037 126.012 143.483 125.579 143.815L33.1262 206.414C32.3068 206.965 31.6364 206.515 31.6364 205.406V121.963C31.6776 121.125 31.8856 120.31 32.2438 119.583C32.602 118.856 33.1005 118.237 33.6992 117.777Z" fill="#F5F5F5"/>
<path d="M127.098 60.8624V58.9002C127.098 56.5148 125.654 55.5405 123.895 56.7298L33.6992 117.777C33.1005 118.237 32.602 118.856 32.2438 119.583C31.8856 120.31 31.6776 121.125 31.6364 121.963V125.477L127.098 60.8624Z" fill="#90CAF9"/>
<path d="M113.644 65.331C113.322 65.5767 113.054 65.9081 112.862 66.2981C112.67 66.6882 112.559 67.1259 112.538 67.5758C112.538 68.4025 113.031 68.7385 113.644 68.3218C113.965 68.0768 114.231 67.7463 114.423 67.3574C114.614 66.9685 114.724 66.5321 114.744 66.0837C114.744 65.257 114.251 64.921 113.644 65.331Z" fill="white"/>
<path d="M118.022 62.3677C117.701 62.6142 117.434 62.9458 117.243 63.3359C117.052 63.7259 116.942 64.1632 116.921 64.6125C116.921 65.4392 117.414 65.7685 118.022 65.3585C118.344 65.1128 118.611 64.7814 118.804 64.3913C118.996 64.0013 119.107 63.5635 119.127 63.1137C119.127 62.287 118.635 61.951 118.022 62.3677Z" fill="white"/>
<path d="M122.405 59.3976C122.084 59.6445 121.817 59.9762 121.625 60.366C121.433 60.7558 121.321 61.193 121.299 61.6424C121.299 62.4691 121.798 62.8052 122.405 62.3885C122.726 62.1438 122.994 61.8136 123.186 61.4247C123.378 61.0358 123.49 60.5992 123.511 60.1504C123.511 59.3237 123.012 58.9876 122.405 59.3976Z" fill="white"/>
<path d="M53.9016 165.571L50.3932 163.196L41.8011 180.648L45.3095 183.023L53.9016 165.571Z" fill="#37474F"/>
<path d="M53.9086 165.566L52.1569 164.38L43.5647 181.832L45.3164 183.018L53.9086 165.566Z" fill="#263238"/>
<path d="M32.3813 214.726C30.7826 217.985 23.2133 212.811 24.8062 209.599L44.546 173.495C44.5992 173.398 44.6825 173.328 44.7786 173.3C44.8747 173.273 44.9761 173.29 45.0617 173.348L49.0269 176.035C49.1123 176.092 49.1755 176.185 49.2033 176.296C49.2311 176.406 49.2213 176.525 49.1759 176.627L32.3813 214.726Z" fill="#90CAF9"/>
<path opacity="0.1" d="M32.3813 214.726L49.1701 176.627C49.2156 176.525 49.2254 176.406 49.1976 176.296C49.1698 176.185 49.1065 176.092 49.0212 176.035L47.2162 174.812L27.9692 214.935C29.7226 215.949 31.6593 216.198 32.3813 214.726Z" fill="black"/>
<path d="M90.426 129.731C90.426 129.455 90.426 129.187 90.3917 128.918C90.3573 128.649 90.3917 128.387 90.3401 128.125C90.2885 127.863 90.3401 127.776 90.2943 127.601C90.2541 127.144 90.1968 126.694 90.1338 126.257C90.1052 126.062 90.0765 125.861 90.0421 125.666C90.0078 125.471 89.9791 125.296 89.9447 125.115C89.8473 124.617 89.7442 124.134 89.6238 123.67C89.5608 123.448 89.5035 123.226 89.4405 122.998C89.4284 122.965 89.4188 122.932 89.4118 122.897C89.3431 122.682 89.28 122.474 89.2113 122.272C89.1425 122.071 89.0508 121.802 88.9592 121.6C88.8675 121.399 88.8331 121.271 88.7586 121.11C88.7171 120.989 88.6672 120.872 88.6096 120.76C88.5523 120.619 88.4893 120.478 88.4205 120.344C88.3518 120.209 88.3919 120.277 88.3747 120.25C88.3575 120.223 88.2544 120.008 88.1913 119.887C88.1283 119.766 88.1054 119.732 88.0653 119.658C87.7717 119.116 87.4421 118.601 87.0797 118.12L86.8964 117.878L86.7417 117.69C86.6786 117.609 86.6099 117.535 86.5411 117.454C86.3612 117.233 86.1698 117.024 85.9681 116.829C85.8707 116.729 85.7676 116.635 85.6644 116.547L85.3493 116.278C85.1855 116.138 85.0153 116.008 84.8393 115.889L84.7018 115.788H84.6731L76.5537 110.291L76.5079 110.258C74.9502 109.239 73.1917 108.718 71.4082 108.746C68.7495 108.746 65.747 109.767 62.5669 111.917C51.6455 119.309 42.787 137.304 42.787 152.1C42.787 159.492 44.9873 164.666 48.5456 167.098H48.58L56.7051 172.588H56.7395L56.8369 172.649C56.9893 172.754 57.1461 172.851 57.3067 172.938C57.5016 173.052 57.7021 173.153 57.8797 173.247C58.0574 173.341 58.2407 173.415 58.4241 173.482L58.7163 173.583C58.8187 173.629 58.9241 173.665 59.0315 173.69C59.137 173.728 59.2441 173.759 59.3524 173.784C59.4294 173.811 59.5079 173.831 59.5873 173.845C59.7248 173.878 59.8738 173.912 60.017 173.932C60.0493 173.938 60.0822 173.938 60.1144 173.932C60.2863 173.968 60.4582 173.995 60.6301 174.013C63.5753 174.376 67.0019 173.401 70.6691 170.922C81.5961 163.53 90.4547 145.529 90.4547 130.739C90.426 130.43 90.426 130.08 90.426 129.731ZM77.1726 119.269C77.6017 121.107 77.8119 123.007 77.7972 124.913C77.7972 137.962 69.6549 154.479 60.0342 161.024C58.6279 162.004 57.1094 162.744 55.5247 163.221C55.098 161.38 54.8879 159.478 54.9002 157.57C54.9002 144.521 63.0425 128.004 72.6631 121.459C74.0642 120.482 75.5768 119.745 77.1554 119.269H77.1726Z" fill="#90CAF9"/>
<path opacity="0.1" d="M56.3727 172.4L48.4825 167.065C44.9242 164.626 42.7239 159.438 42.7239 152.073C42.7239 145.475 44.4887 138.245 47.4053 131.606L55.5304 137.089C52.6081 143.728 50.849 150.958 50.849 157.557C50.849 164.787 52.9462 169.9 56.3727 172.4Z" fill="black"/>
<path opacity="0.4" d="M90.426 129.731C90.426 129.455 90.426 129.187 90.3917 128.918C90.3573 128.649 90.3917 128.387 90.3401 128.125C90.2885 127.863 90.3401 127.776 90.2943 127.601C90.2541 127.144 90.1968 126.694 90.1338 126.257C90.1052 126.062 90.0765 125.861 90.0421 125.666C90.0078 125.471 89.9791 125.296 89.9447 125.115C89.8473 124.617 89.7442 124.134 89.6238 123.67C89.5608 123.448 89.5035 123.226 89.4405 122.998C89.4284 122.965 89.4188 122.932 89.4118 122.897C89.3431 122.682 89.28 122.474 89.2113 122.272C89.1425 122.071 89.0508 121.802 88.9592 121.6C88.8675 121.399 88.8331 121.271 88.7586 121.11C88.7171 120.989 88.6672 120.872 88.6096 120.76C88.5523 120.619 88.4893 120.478 88.4205 120.344C88.3518 120.209 88.3919 120.277 88.3747 120.25C88.3575 120.223 88.2544 120.008 88.1914 119.887C88.1283 119.766 88.1054 119.732 88.0653 119.658C87.7717 119.116 87.4421 118.601 87.0797 118.12L86.8964 117.878L86.7417 117.69C86.6786 117.609 86.6099 117.535 86.5411 117.454C86.3612 117.233 86.1698 117.024 85.9681 116.829C85.8707 116.729 85.7676 116.635 85.6644 116.547L85.3493 116.278C85.1855 116.138 85.0153 116.008 84.8393 115.889C81.2466 113.329 76.2443 113.631 70.6805 117.387C59.7534 124.779 50.8949 142.774 50.8949 157.57C50.8949 165.062 53.1869 170.297 56.8254 172.676C56.9778 172.781 57.1346 172.878 57.2953 172.964C57.4901 173.079 57.6907 173.18 57.8683 173.274C58.0459 173.368 58.2293 173.442 58.4126 173.509L58.7049 173.61C58.8072 173.656 58.9126 173.691 59.02 173.717C59.1256 173.755 59.2327 173.786 59.3409 173.811C59.4179 173.838 59.4964 173.858 59.5758 173.872C59.7133 173.905 59.8623 173.939 60.0056 173.959C60.0378 173.965 60.0707 173.965 60.103 173.959C60.2749 173.995 60.4468 174.022 60.6187 174.04C63.5639 174.402 66.9904 173.428 70.6576 170.949C81.5847 163.557 90.4432 145.555 90.4432 130.766C90.426 130.43 90.426 130.08 90.426 129.731ZM68.6521 166.897C66.1997 168.556 63.8389 169.43 61.822 169.43C58.0345 169.43 56.2925 166.4 55.519 163.221C55.0923 161.38 54.8822 159.478 54.8944 157.57C54.8944 144.521 63.0367 128.004 72.6574 121.459C74.0638 120.481 75.5824 119.743 77.1669 119.269C77.917 119.051 78.6861 118.936 79.4589 118.926C85.7217 118.926 86.3921 127.218 86.3921 130.786C86.4151 143.808 78.2728 160.372 68.6521 166.897Z" fill="white"/>
<path opacity="0.1" d="M86.415 130.786C86.415 143.835 78.2784 160.352 68.6521 166.897C66.1996 168.556 63.8389 169.43 61.8219 169.43C58.0344 169.43 56.2925 166.4 55.519 163.221C57.1036 162.744 58.6221 162.004 60.0284 161.024C69.6663 154.499 77.7914 137.962 77.7914 124.913C77.8062 123.007 77.596 121.107 77.1668 119.269C77.9169 119.051 78.6861 118.936 79.4588 118.926C85.7389 118.946 86.415 127.218 86.415 130.786Z" fill="black"/>
<path opacity="0.7" d="M82.977 128.508C82.977 141.557 74.8404 158.074 65.2141 164.619C62.7616 166.279 60.4009 167.152 58.3839 167.152C57.9827 167.153 57.5822 167.115 57.1864 167.038C56.4121 165.916 55.8478 164.616 55.5304 163.221C55.1037 161.38 54.8936 159.478 54.9058 157.57C54.9058 144.521 63.0481 128.004 72.6688 121.459C74.0752 120.481 75.5938 119.743 77.1783 119.269C77.9284 119.051 78.6975 118.936 79.4703 118.926C79.8734 118.925 80.2759 118.963 80.6736 119.04C82.6561 121.775 82.977 126.163 82.977 128.508Z" fill="white"/>
</svg>
